<svg width="116" height="38" viewBox="0 0 116 38" fill="none" xmlns="http://www.w3.org/2000/svg">
<path d="M91.4901 24.8299C91.4901 24.6299 91.6501 24.4699 91.8401 24.4799L96.2801 24.6699C96.4701 24.6799 96.6201 24.8499 96.6201 25.0499C96.6201 25.2499 96.4601 25.4099 96.2701 25.3999L91.8301 25.2099C91.6301 25.1999 91.4801 25.0299 91.4901 24.8299Z" fill="#FF9D03"/>
<path d="M91.7501 26.0999C91.7501 25.8999 91.9101 25.74 92.1001 25.75L96.5401 25.94C96.7301 25.95 96.8801 26.12 96.8801 26.32C96.8801 26.52 96.7201 26.6799 96.5301 26.6699L92.0901 26.4799C91.9001 26.4699 91.7501 26.2999 91.7501 26.0999Z" fill="#FF9D03"/>
<path d="M92.0201 27.37C92.0201 27.17 92.1801 27.01 92.3701 27.02L96.8101 27.21C97.0001 27.22 97.1501 27.39 97.1501 27.59C97.1501 27.79 96.9901 27.95 96.8001 27.94L92.3601 27.75C92.1601 27.74 92.0101 27.57 92.0201 27.37Z" fill="#FF9D03"/>
<path d="M92.28 28.63C92.28 28.43 92.44 28.27 92.63 28.28L97.07 28.47C97.26 28.48 97.41 28.65 97.41 28.85C97.41 29.05 97.25 29.21 97.06 29.2L92.62 29.01C92.43 29.01 92.28 28.84 92.28 28.63Z" fill="#FF9D03"/>
<path d="M92.5501 29.9C92.5501 29.7 92.7101 29.54 92.9001 29.55L97.3401 29.74C97.5301 29.75 97.6801 29.92 97.6801 30.12C97.6801 30.32 97.5201 30.48 97.3301 30.47L92.8901 30.28C92.7001 30.27 92.5401 30.1 92.5501 29.9Z" fill="#FF9D03"/>
<path d="M92.8101 31.17C92.8101 30.97 92.9701 30.81 93.1601 30.82L97.6001 31.01C97.7901 31.02 97.9401 31.19 97.9401 31.39C97.9401 31.59 97.7801 31.75 97.5901 31.74L93.1501 31.55C92.9601 31.54 92.8101 31.37 92.8101 31.17Z" fill="#FF9D03"/>
<path d="M93.0801 32.44C93.0801 32.24 93.2401 32.0799 93.4301 32.0899L97.8701 32.2799C98.0601 32.2899 98.2101 32.4599 98.2101 32.6599C98.2101 32.8599 98.0501 33.02 97.8601 33.01L93.4201 32.82C93.2301 32.81 93.0801 32.64 93.0801 32.44Z" fill="#FF9D03"/>
<path d="M93.3401 33.7099C93.3401 33.5099 93.5001 33.3499 93.6901 33.3599L98.1301 33.5499C98.3201 33.5599 98.4701 33.7299 98.4701 33.9299C98.4701 34.1299 98.3101 34.2899 98.1201 34.2799L93.6801 34.0899C93.4901 34.0799 93.3401 33.9099 93.3401 33.7099Z" fill="#FF9D03"/>
<path d="M93.6101 34.9799C93.6101 34.7799 93.7701 34.62 93.9601 34.63L98.4001 34.82C98.5901 34.83 98.7401 34.9999 98.7401 35.1999C98.7401 35.3999 98.5801 35.5599 98.3901 35.5499L93.9501 35.3599C93.7601 35.3499 93.6101 35.1799 93.6101 34.9799Z" fill="#FF9D03"/>
<path d="M30.2401 24.8299C30.2401 24.6299 30.0801 24.4699 29.8901 24.4799L25.4501 24.6699C25.2601 24.6799 25.1101 24.8499 25.1101 25.0499C25.1101 25.2499 25.2701 25.4099 25.4601 25.3999L29.9001 25.2099C30.1001 25.1999 30.2501 25.0299 30.2401 24.8299Z" fill="#FF9D03"/>
<path d="M29.9801 26.0999C29.9801 25.8999 29.8201 25.74 29.6301 25.75L25.1901 25.94C25.0001 25.95 24.8501 26.12 24.8501 26.32C24.8501 26.52 25.0101 26.6799 25.2001 26.6699L29.6401 26.4799C29.8301 26.4699 29.9801 26.2999 29.9801 26.0999Z" fill="#FF9D03"/>
<path d="M29.7101 27.37C29.7101 27.17 29.5501 27.01 29.3601 27.02L24.9201 27.21C24.7301 27.22 24.5801 27.39 24.5801 27.59C24.5801 27.79 24.7401 27.95 24.9301 27.94L29.3701 27.75C29.5701 27.74 29.7201 27.57 29.7101 27.37Z" fill="#FF9D03"/>
<path d="M29.4501 28.63C29.4501 28.43 29.2901 28.27 29.1001 28.28L24.6601 28.48C24.4701 28.49 24.3201 28.66 24.3201 28.86C24.3201 29.06 24.4801 29.22 24.6701 29.21L29.1101 29.02C29.3001 29.01 29.4501 28.84 29.4501 28.63Z" fill="#FF9D03"/>
<path d="M29.1802 29.9C29.1802 29.7 29.0202 29.54 28.8302 29.55L24.3902 29.74C24.2002 29.75 24.0502 29.92 24.0502 30.12C24.0502 30.32 24.2102 30.48 24.4002 30.47L28.8402 30.28C29.0302 30.27 29.1902 30.1 29.1802 29.9Z" fill="#FF9D03"/>
<path d="M28.9202 31.17C28.9202 30.97 28.7602 30.81 28.5702 30.82L24.1302 31.01C23.9402 31.02 23.7902 31.19 23.7902 31.39C23.7902 31.59 23.9502 31.75 24.1402 31.74L28.5802 31.55C28.7702 31.54 28.9202 31.37 28.9202 31.17Z" fill="#FF9D03"/>
<path d="M28.6501 32.44C28.6501 32.24 28.4901 32.0799 28.3001 32.0899L23.8601 32.2799C23.6701 32.2899 23.5201 32.4599 23.5201 32.6599C23.5201 32.8599 23.6801 33.02 23.8701 33.01L28.3101 32.82C28.5001 32.81 28.6501 32.64 28.6501 32.44Z" fill="#FF9D03"/>
<path d="M28.3901 33.7099C28.3901 33.5099 28.2301 33.3499 28.0401 33.3599L23.6001 33.5499C23.4101 33.5599 23.2601 33.7299 23.2601 33.9299C23.2601 34.1299 23.4201 34.2899 23.6101 34.2799L28.0501 34.0899C28.2401 34.0799 28.3901 33.9099 28.3901 33.7099Z" fill="#FF9D03"/>
<path d="M28.1201 34.9799C28.1201 34.7799 27.9601 34.62 27.7701 34.63L23.3301 34.82C23.1401 34.83 22.9901 34.9999 22.9901 35.1999C22.9901 35.3999 23.1501 35.5599 23.3401 35.5499L27.7801 35.3599C27.9701 35.3499 28.1201 35.1799 28.1201 34.9799Z" fill="#FF9D03"/>
<path opacity="0.2" d="M9.01013 31.07L9.86013 31.12C11.0301 28.57 12.8401 26.37 15.2401 24.79C17.3801 23.38 19.7801 22.59 22.2501 22.38C22.3901 22.36 22.5201 22.36 22.6601 22.35C26.9801 22.09 31.5201 23.56 35.3501 26.5C36.0801 27.06 36.7901 27.67 37.4601 28.33C38.5901 29.44 39.6201 30.7 40.5401 32.09C41.2901 33.22 41.9201 34.39 42.4501 35.59H43.8201C43.2001 33.3 42.2001 31.03 40.7901 28.9C34.6901 19.66 23.3601 16.4 15.4901 21.6C12.1401 23.81 9.95013 27.2 9.01013 31.07Z" fill="#130911"/>
<path opacity="0.2" d="M74.7201 35.59H75.9601C76.4801 34.4 77.1201 33.23 77.8701 32.09C83.9701 22.86 95.3001 19.59 103.17 24.79C105.22 26.14 106.82 27.93 107.98 30L109.19 29.85C108.12 26.49 106.06 23.58 103.06 21.6C95.1801 16.4 83.8501 19.66 77.7601 28.9C76.3401 31.03 75.3401 33.3 74.7201 35.59Z" fill="#130911"/>
<path d="M111.23 30.1201H114.08C115.04 30.1201 115.82 29.3401 115.82 28.3801V25.53C115.82 24.57 115.04 23.79 114.08 23.79H108.38C107.42 23.79 106.64 24.57 106.64 25.53C106.64 28.07 108.69 30.1201 111.23 30.1201Z" fill="#BFBFBF"/>
<path d="M112.86 20.1199C114.02 20.1199 114.97 19.1799 114.97 18.0099C114.97 16.8499 114.03 15.8999 112.86 15.8999C111.7 15.9099 111.7 20.1199 112.86 20.1199Z" fill="#99E7FF"/>
<path opacity="0.28" d="M103.01 14.56C94.9501 13.93 86.8301 13.8 78.7401 14.51C77.7301 14.59 76.7201 14.71 75.7101 14.84C74.7001 14.96 73.7101 15.05 72.7101 15.16C72.2101 15.22 71.7101 15.24 71.2101 15.27L69.7001 15.36L68.1901 15.45L66.6801 15.5L63.6601 15.61L60.6301 15.68C58.6101 15.74 56.5901 15.74 54.5701 15.77C50.5301 15.82 46.4901 15.83 42.4501 15.83L30.3301 15.82L18.2001 15.77L6.07007 15.75C8.09007 15.86 10.1101 15.96 12.1301 16.04L18.1901 16.29C22.2301 16.42 26.2701 16.53 30.3201 16.64C38.4101 16.84 46.5001 16.9 54.5901 16.83C56.6101 16.8 58.6401 16.78 60.6601 16.71L63.7001 16.63L66.7401 16.5L68.2601 16.43L69.7801 16.32L71.3001 16.21C71.8101 16.17 72.3101 16.15 72.8201 16.08C73.8301 15.96 74.8601 15.86 75.8501 15.71C76.8401 15.57 77.8401 15.42 78.8401 15.32C82.8401 14.86 86.8701 14.65 90.9101 14.55C94.9301 14.42 98.9701 14.45 103.01 14.56Z" fill="white"/>
<path d="M23.2701 14.4799L23.5101 14.0099C23.6501 13.7399 26.9601 7.40994 36.8301 6.05994L37.0801 6.02991L40.3801 14.4799H23.2701Z" fill="#46C0FF"/>
<path d="M36.8701 6.37994L39.9101 14.1499H23.7901C23.7901 14.1499 27.0501 7.71994 36.8701 6.37994ZM37.2901 5.66992L36.7801 5.73993C26.7401 7.10993 23.3501 13.5899 23.2101 13.8599L22.7301 14.7999H23.7901H39.9001H40.8501L40.5001 13.9099L37.4601 6.13989L37.2901 5.66992Z" fill="#010101"/>
<path d="M37.2201 7.22992L34.8101 13.9599L30.2401 13.8899L32.6001 7.35992C33.8601 6.93992 35.2701 6.59989 36.8601 6.38989L37.2201 7.22992Z" fill="#99E7FF"/>
<path d="M62.0801 3.44L62.8901 4.20996C62.9001 4.21996 63.9001 5.17 65.3401 6.44C66.6801 7.62 67.9401 8.65999 69.0901 9.54999C69.6301 9.96999 70.1601 10.36 70.6701 10.73C72.9901 12.37 74.6701 13.17 75.8101 13.17C76.0501 13.17 76.2701 13.13 76.4801 13.06L76.7901 12.96C76.6201 12.78 76.4401 12.59 76.2601 12.4C73.6501 9.66996 69.2101 5.42997 64.8301 3.15997C64.5401 3.00997 64.2501 2.86998 63.9601 2.72998L62.0801 3.44Z" fill="#010101"/>
<path d="M63.3801 3.69989C63.3801 3.69989 64.3701 4.63991 65.8101 5.90991C66.8701 6.83991 68.1801 7.94993 69.5201 8.98993C70.0401 9.38993 70.5601 9.7899 71.0801 10.1499C73.2201 11.6599 75.2301 12.7499 76.2601 12.3999C75.0901 11.1699 73.5501 9.63993 71.8101 8.11993C71.3201 7.68993 70.8101 7.2599 70.2901 6.8399C69.0601 5.8499 67.7701 4.8999 66.4601 4.0899C65.9201 3.7599 65.3701 3.43991 64.8301 3.15991L63.3801 3.69989Z" fill="#46C0FF"/>
<path d="M63.3801 3.69989C63.3801 3.69989 64.3701 4.63991 65.8101 5.90991L66.4601 4.0899C65.9201 3.7599 65.3701 3.43991 64.8301 3.15991L63.3801 3.69989Z" fill="#99E7FF"/>
<path d="M69.52 8.98999C70.04 9.38999 70.56 9.78996 71.08 10.15L71.81 8.12C71.32 7.69 70.81 7.25997 70.29 6.83997L69.52 8.98999Z" fill="#99E7FF"/>
<path d="M70.4702 14.8L69.7602 13.78C69.7402 13.75 69.3002 13.11 68.5302 12.17C68.0802 11.61 67.6502 11.12 67.2202 10.65C66.1002 9.41002 64.9602 8.33006 63.8402 7.44006C62.8802 6.67006 61.9302 6.03006 61.0102 5.56006C60.1102 5.09006 59.2102 4.76002 58.3502 4.58002C57.6802 4.44002 56.9102 4.33006 56.0702 4.25006C54.7802 4.12006 53.2902 4.06006 51.6302 4.06006H51.5002C49.5002 4.07006 47.3802 4.18006 45.5302 4.37006C44.8602 4.44006 44.2102 4.52005 43.5902 4.61005C40.9602 5.01005 40.5102 5.41006 40.3502 5.56006C39.8102 6.04006 39.4702 7.08005 41.0502 11.1801C41.3302 11.9101 41.6502 12.6901 42.0302 13.5601C42.2702 14.1001 42.4302 14.4301 42.4302 14.4301L42.6102 14.8H43.0202H70.4702Z" fill="#010101"/>
<path d="M41.6602 10.94C42.0102 11.85 42.3702 12.7 42.6302 13.29C42.8702 13.82 43.0202 14.15 43.0202 14.15H69.2302C69.2302 14.15 68.7902 13.51 68.0302 12.58C67.6702 12.14 67.2402 11.63 66.7502 11.09C65.8302 10.07 64.7002 8.93995 63.4502 7.94995C62.5902 7.25995 61.6702 6.63 60.7202 6.13C59.9102 5.71 59.0702 5.37996 58.2302 5.20996C57.5602 5.06996 56.8102 4.96995 56.0102 4.88995C54.6202 4.74995 53.0702 4.69995 51.5102 4.69995C49.4602 4.70995 47.3802 4.83001 45.6002 5.01001C44.9102 5.08001 44.2702 5.16 43.6902 5.25C42.1802 5.48 41.1002 5.75998 40.7802 6.03998C40.1702 6.57998 40.8802 8.91 41.6602 10.94Z" fill="#46C0FF"/>
<path d="M48.1201 14.15H52.6901L56.0101 4.88995C54.6201 4.74995 53.0701 4.69995 51.5101 4.69995L48.1201 14.15Z" fill="#99E7FF"/>
<path d="M41.6602 10.94C42.0102 11.85 42.3701 12.7 42.6301 13.29L45.6002 5.01001C44.9102 5.08001 44.2702 5.16 43.6902 5.25L41.6602 10.94Z" fill="#99E7FF"/>
<path d="M57.8402 14.1501H61.2202L63.4402 7.94012C62.5802 7.25012 61.6602 6.62012 60.7102 6.12012L57.8402 14.1501Z" fill="#99E7FF"/>
<path d="M65.6501 14.1501H67.4701L68.0301 12.5801C67.6701 12.1401 67.2401 11.6301 66.7501 11.0901L65.6501 14.1501Z" fill="#99E7FF"/>
<path d="M83.9301 9.08002L84.2701 13.1L93.51 12.77L93.1001 7.92004L83.9301 9.08002Z" fill="#727272"/>
<path d="M82.29 7.13009L82.9 10.4901L98.88 9.64004C98.88 9.64004 100.69 3.01009 98.41 1.76009C96.12 0.500094 82.29 7.13009 82.29 7.13009Z" fill="#AFAFAF"/>
<path d="M18.0501 11.75L8.66012 4.08997H4.87012L7.17012 13.34H15.8001L18.0501 11.75Z" fill="#727272"/>
<path d="M4.53008 5.66998C9.39008 5.66998 13.3201 4.59001 13.3201 3.26001C13.3201 1.93001 9.38008 0.849976 4.53008 0.849976C-0.319922 0.849976 -0.319922 5.66998 4.53008 5.66998Z" fill="#AFAFAF"/>
</svg>
