<svg width="117" height="66" viewBox="0 0 117 66" fill="none" xmlns="http://www.w3.org/2000/svg">
<path d="M55.03 22.3301H52.99V44.3901H55.03V22.3301Z" fill="#030507"/>
<path d="M69.82 22.3301H67.78V44.3901H69.82V22.3301Z" fill="#030507"/>
<path d="M62.0107 31.3753L36.6897 42.8748L37.7565 45.2238L63.0775 33.7244L62.0107 31.3753Z" fill="#182228"/>
<path d="M61.704 31.4207L60.6372 33.7698L85.9582 45.2692L87.025 42.9201L61.704 31.4207Z" fill="#182228"/>
<path d="M40.0299 25.9658L38.3673 27.1479L51.1511 45.1268L52.8137 43.9447L40.0299 25.9658Z" fill="#0B1116"/>
<path d="M46.5884 21.3836L23.9232 37.4995L25.4183 39.6022L48.0835 23.4863L46.5884 21.3836Z" fill="#030507"/>
<path d="M77.3934 21.3819L75.8983 23.4846L98.5635 39.6005L100.059 37.4978L77.3934 21.3819Z" fill="#030507"/>
<path d="M79.4634 24.1844L70.3107 44.2568L72.1668 45.1032L81.3195 25.0308L79.4634 24.1844Z" fill="#0B1116"/>
<path d="M72.12 43.0703H51.12V45.1103H72.12V43.0703Z" fill="#0B1116"/>
<path d="M93.9879 12.3353L91.0026 12.9602L96.2091 37.8315L99.1944 37.2065L93.9879 12.3353Z" fill="#0B1116"/>
<path d="M90.89 17.22C90.89 17.02 91.05 16.8601 91.24 16.8701L95.68 17.0601C95.87 17.0701 96.02 17.2401 96.02 17.4401C96.02 17.6401 95.86 17.8001 95.67 17.7901L91.23 17.6001C91.04 17.5901 90.89 17.42 90.89 17.22Z" fill="#FF9D03"/>
<path d="M91.16 18.4901C91.16 18.2901 91.32 18.1301 91.51 18.1401L95.95 18.3301C96.14 18.3401 96.29 18.5101 96.29 18.7101C96.29 18.9101 96.13 19.0701 95.94 19.0601L91.5 18.8701C91.31 18.8601 91.16 18.6901 91.16 18.4901Z" fill="#FF9D03"/>
<path d="M91.42 19.7601C91.42 19.5601 91.5801 19.4001 91.7701 19.4101L96.2101 19.6001C96.4001 19.6101 96.55 19.7801 96.55 19.9801C96.55 20.1801 96.39 20.3401 96.2 20.3301L91.76 20.1401C91.57 20.1301 91.42 19.9601 91.42 19.7601Z" fill="#FF9D03"/>
<path d="M91.6901 21.0301C91.6901 20.8301 91.8501 20.6701 92.0401 20.6801L96.4801 20.8701C96.6701 20.8801 96.8201 21.0501 96.8201 21.2501C96.8201 21.4501 96.6601 21.6101 96.4701 21.6001L92.0301 21.4101C91.8401 21.4001 91.6901 21.2301 91.6901 21.0301Z" fill="#FF9D03"/>
<path d="M92.49 24.8299C92.49 24.6299 92.65 24.4699 92.84 24.4799L97.28 24.6699C97.47 24.6799 97.62 24.8499 97.62 25.0499C97.62 25.2499 97.46 25.4099 97.27 25.3999L92.83 25.2099C92.63 25.1999 92.48 25.0299 92.49 24.8299Z" fill="#FF9D03"/>
<path d="M92.75 26.0999C92.75 25.8999 92.91 25.74 93.1 25.75L97.54 25.94C97.73 25.95 97.88 26.12 97.88 26.32C97.88 26.52 97.72 26.6799 97.53 26.6699L93.09 26.4799C92.9 26.4699 92.75 26.2999 92.75 26.0999Z" fill="#FF9D03"/>
<path d="M93.02 27.37C93.02 27.17 93.18 27.01 93.37 27.02L97.81 27.21C98 27.22 98.15 27.39 98.15 27.59C98.15 27.79 97.99 27.95 97.8 27.94L93.36 27.75C93.16 27.74 93.01 27.57 93.02 27.37Z" fill="#FF9D03"/>
<path d="M93.28 28.63C93.28 28.43 93.44 28.27 93.63 28.28L98.07 28.47C98.26 28.48 98.41 28.65 98.41 28.85C98.41 29.05 98.25 29.21 98.06 29.2L93.62 29.01C93.43 29.01 93.28 28.84 93.28 28.63Z" fill="#FF9D03"/>
<path d="M93.55 29.9C93.55 29.7 93.71 29.54 93.9 29.55L98.34 29.74C98.53 29.75 98.68 29.92 98.68 30.12C98.68 30.32 98.52 30.48 98.33 30.47L93.89 30.28C93.7 30.27 93.54 30.1 93.55 29.9Z" fill="#FF9D03"/>
<path d="M93.8101 31.17C93.8101 30.97 93.9701 30.81 94.1601 30.82L98.6001 31.01C98.7901 31.02 98.9401 31.19 98.9401 31.39C98.9401 31.59 98.7801 31.75 98.5901 31.74L94.1501 31.55C93.9601 31.54 93.8101 31.37 93.8101 31.17Z" fill="#FF9D03"/>
<path d="M94.0801 32.4401C94.0801 32.2401 94.2401 32.08 94.4301 32.09L98.8701 32.28C99.0601 32.29 99.2101 32.4601 99.2101 32.6601C99.2101 32.8601 99.0501 33.0201 98.8601 33.0101L94.4201 32.8201C94.2301 32.8101 94.0801 32.6401 94.0801 32.4401Z" fill="#FF9D03"/>
<path d="M94.34 33.71C94.34 33.51 94.5 33.3501 94.69 33.3601L99.13 33.5501C99.32 33.5601 99.47 33.7301 99.47 33.9301C99.47 34.1301 99.31 34.29 99.12 34.28L94.68 34.09C94.49 34.08 94.34 33.91 94.34 33.71Z" fill="#FF9D03"/>
<path d="M94.61 34.9801C94.61 34.7801 94.77 34.6201 94.96 34.6301L99.4 34.8201C99.59 34.8301 99.74 35 99.74 35.2C99.74 35.4 99.58 35.5601 99.39 35.5501L94.95 35.3601C94.76 35.3501 94.61 35.1801 94.61 34.9801Z" fill="#FF9D03"/>
<path d="M29.7796 12.3492L24.5731 37.2205L27.5584 37.8454L32.765 12.9741L29.7796 12.3492Z" fill="#030507"/>
<path d="M32.84 17.2203C32.84 17.0203 32.68 16.8603 32.49 16.8703L28.05 17.0603C27.86 17.0703 27.71 17.2403 27.71 17.4403C27.71 17.6403 27.87 17.8003 28.06 17.7903L32.5 17.6003C32.69 17.5903 32.84 17.4203 32.84 17.2203Z" fill="#FF9D03"/>
<path d="M32.5699 18.4904C32.5699 18.2904 32.4099 18.1303 32.2199 18.1403L27.7799 18.3303C27.5899 18.3403 27.4399 18.5103 27.4399 18.7103C27.4399 18.9103 27.5999 19.0704 27.7899 19.0604L32.2299 18.8704C32.4199 18.8604 32.5699 18.6904 32.5699 18.4904Z" fill="#FF9D03"/>
<path d="M32.3099 19.7604C32.3099 19.5604 32.1499 19.4004 31.9599 19.4104L27.5199 19.6004C27.3299 19.6104 27.1799 19.7804 27.1799 19.9804C27.1799 20.1804 27.3399 20.3403 27.5299 20.3303L31.9699 20.1403C32.1599 20.1303 32.3099 19.9604 32.3099 19.7604Z" fill="#FF9D03"/>
<path d="M32.04 21.0304C32.04 20.8304 31.88 20.6704 31.69 20.6804L27.25 20.8704C27.06 20.8804 26.91 21.0504 26.91 21.2504C26.91 21.4504 27.07 21.6104 27.26 21.6004L31.7 21.4104C31.89 21.4004 32.04 21.2304 32.04 21.0304Z" fill="#FF9D03"/>
<path d="M31.24 24.8304C31.24 24.6304 31.08 24.4704 30.89 24.4804L26.45 24.6704C26.26 24.6804 26.11 24.8504 26.11 25.0504C26.11 25.2504 26.27 25.4104 26.46 25.4004L30.9 25.2104C31.1 25.2004 31.25 25.0304 31.24 24.8304Z" fill="#FF9D03"/>
<path d="M30.98 26.1004C30.98 25.9004 30.82 25.7404 30.63 25.7504L26.19 25.9404C26 25.9504 25.85 26.1205 25.85 26.3205C25.85 26.5205 26.01 26.6804 26.2 26.6704L30.64 26.4804C30.83 26.4704 30.98 26.3004 30.98 26.1004Z" fill="#FF9D03"/>
<path d="M30.71 27.3703C30.71 27.1703 30.55 27.0102 30.36 27.0202L25.92 27.2102C25.73 27.2202 25.58 27.3902 25.58 27.5902C25.58 27.7902 25.74 27.9503 25.93 27.9403L30.37 27.7503C30.57 27.7403 30.72 27.5703 30.71 27.3703Z" fill="#FF9D03"/>
<path d="M30.4499 28.6303C30.4499 28.4303 30.2899 28.2702 30.0999 28.2802L25.66 28.4802C25.47 28.4902 25.3199 28.6602 25.3199 28.8602C25.3199 29.0602 25.4799 29.2202 25.6699 29.2102L30.1099 29.0202C30.2999 29.0102 30.4499 28.8403 30.4499 28.6303Z" fill="#FF9D03"/>
<path d="M30.18 29.9002C30.18 29.7002 30.02 29.5402 29.83 29.5502L25.39 29.7403C25.2 29.7503 25.05 29.9203 25.05 30.1203C25.05 30.3203 25.21 30.4802 25.4 30.4702L29.84 30.2802C30.03 30.2702 30.19 30.1002 30.18 29.9002Z" fill="#FF9D03"/>
<path d="M29.92 31.1702C29.92 30.9702 29.76 30.8103 29.57 30.8203L25.13 31.0103C24.94 31.0203 24.79 31.1902 24.79 31.3902C24.79 31.5902 24.95 31.7503 25.14 31.7403L29.58 31.5502C29.77 31.5402 29.92 31.3702 29.92 31.1702Z" fill="#FF9D03"/>
<path d="M29.65 32.4403C29.65 32.2403 29.49 32.0803 29.3 32.0903L24.86 32.2803C24.67 32.2903 24.52 32.4603 24.52 32.6603C24.52 32.8603 24.68 33.0203 24.87 33.0103L29.31 32.8203C29.5 32.8103 29.65 32.6403 29.65 32.4403Z" fill="#FF9D03"/>
<path d="M29.39 33.7103C29.39 33.5103 29.23 33.3503 29.04 33.3603L24.6 33.5503C24.41 33.5603 24.26 33.7303 24.26 33.9303C24.26 34.1303 24.42 34.2903 24.61 34.2803L29.05 34.0903C29.24 34.0803 29.39 33.9103 29.39 33.7103Z" fill="#FF9D03"/>
<path d="M29.12 34.9803C29.12 34.7803 28.96 34.6203 28.77 34.6303L24.33 34.8203C24.14 34.8303 23.99 35.0003 23.99 35.2003C23.99 35.4003 24.15 35.5603 24.34 35.5503L28.78 35.3603C28.97 35.3503 29.12 35.1803 29.12 34.9803Z" fill="#FF9D03"/>
<path class="car__body" d="M108.16 14.5901C107.43 13.2501 106.02 12.4202 104.5 12.4202C104.45 12.4202 104.4 12.4202 104.35 12.4202L92.1601 12.8502L78.3701 13.3401H78.1401C78.0301 13.2201 77.9101 13.0901 77.7801 12.9601C77.7401 12.9101 77.7001 12.8702 77.6501 12.8202C77.5301 12.6902 77.3901 12.5501 77.2501 12.4001C76.4501 11.5601 75.4701 10.5802 74.3801 9.55017C73.5801 8.80017 72.7101 8.03014 71.8001 7.27014C71.0701 6.66014 70.3001 6.07018 69.5301 5.50018C69.3201 5.35018 69.1101 5.20017 68.9001 5.05017C68.1901 4.56017 67.4701 4.09018 66.7501 3.68018C66.4401 3.50018 66.1301 3.33017 65.8201 3.17017C65.5301 3.02017 65.2401 2.88017 64.9501 2.74017C64.5601 2.56017 64.1701 2.40019 63.7801 2.26019C63.7701 2.26019 63.7701 2.26019 63.7701 2.26019C63.3501 2.11019 62.9501 1.98019 62.5401 1.88019C62.0201 1.75019 61.5101 1.67019 61.0201 1.63019C59.7501 1.54019 58.5001 1.48019 57.2801 1.44019C56.6301 1.43019 55.9801 1.42017 55.3501 1.42017C50.3001 1.42017 45.7001 1.90014 41.5401 2.71014C40.2401 2.96014 38.9801 3.25018 37.7701 3.56018C37.6501 3.59018 37.5301 3.62015 37.4101 3.65015C37.1801 3.71015 36.9501 3.77014 36.7301 3.83014C35.3701 4.20014 34.0701 4.60015 32.8201 5.03015C31.1001 5.62015 29.4901 6.25016 27.9801 6.91016C23.1001 9.04016 19.3701 11.4302 16.8001 13.3502H4.10006C1.96006 13.3502 -0.389943 14.7902 0.230057 17.2202L2.16006 26.5502C2.87006 29.2102 3.92006 30.6901 6.19006 30.8401L10.0101 31.0801L10.8501 31.1302C12.0201 28.5802 13.8301 26.3802 16.2301 24.8002C18.3701 23.3902 20.7701 22.6001 23.2401 22.3901C23.3801 22.3701 23.5101 22.3702 23.6501 22.3602C27.9701 22.1002 32.5101 23.5702 36.3401 26.5102C37.0701 27.0702 37.7801 27.6801 38.4501 28.3401C39.5801 29.4501 40.6101 30.7102 41.5301 32.1002C42.2801 33.2302 42.9101 34.4002 43.4401 35.6002H76.9401C77.4601 34.4102 78.0901 33.2502 78.8401 32.1202C78.8401 32.1102 78.8501 32.1102 78.8501 32.1002C82.1901 27.0402 87.1101 23.7701 92.1601 22.7101C94.4601 22.2301 96.7801 22.2002 99.0001 22.6602C100.81 23.0402 102.56 23.7402 104.15 24.8002C106.2 26.1502 107.8 27.9402 108.96 30.0102L114.37 29.3102V16.2101L108.16 14.5901Z" fill="#FF0000" stroke="#333333" stroke-width="0.4"/>
<path class="car__wheel" d="M25.4 64.07C34.1979 64.07 41.33 56.9379 41.33 48.14C41.33 39.3421 34.1979 32.21 25.4 32.21C16.6021 32.21 9.46997 39.3421 9.46997 48.14C9.46997 56.9379 16.6021 64.07 25.4 64.07Z" fill="#0B1116"/>
<path d="M28.5001 37.84L22.3501 31.8801L23.6701 30.52L29.0901 37.23L28.5001 37.84Z" fill="#19242B"/>
<path d="M21.7001 59.6201L27.6601 65.77L29.0201 64.45L22.3101 59.02L21.7001 59.6201Z" fill="#19242B"/>
<path d="M15.09 45.0399L9.14002 51.1899L7.77002 49.8699L14.48 44.4399L15.09 45.0399Z" fill="#19242B"/>
<path d="M36.87 51.84L43.02 45.8801L41.7 44.52L36.28 51.23L36.87 51.84Z" fill="#19242B"/>
<path d="M20.31 38.6599L11.74 38.7999L11.71 36.8999L20.29 37.8099L20.31 38.6599Z" fill="#19242B"/>
<path d="M30.8999 58.8699L39.4599 59.0099L39.4899 57.1099L30.9099 58.0198L30.8999 58.8699Z" fill="#19242B"/>
<path d="M15.92 53.23L16.05 61.79L14.15 61.82L15.06 53.25L15.92 53.23Z" fill="#19242B"/>
<path d="M36.12 42.64L36.26 34.08L34.36 34.05L35.27 42.6301L36.12 42.64Z" fill="#19242B"/>
<path d="M24.4 37.43L16.47 34.22L17.18 32.46L24.72 36.64L24.4 37.43Z" fill="#19242B"/>
<path d="M26.2899 60.1699L34.1199 63.6299L34.8799 61.8899L26.6299 59.3899L26.2899 60.1699Z" fill="#19242B"/>
<path d="M14.68 49.1403L11.48 57.0803L9.71997 56.3703L13.89 48.8203L14.68 49.1403Z" fill="#19242B"/>
<path d="M37.42 47.2602L40.88 39.4302L39.14 38.6602L36.64 46.9102L37.42 47.2602Z" fill="#19242B"/>
<path d="M17.12 41.27L9.24 44.62L8.5 42.87L16.79 40.49L17.12 41.27Z" fill="#19242B"/>
<path d="M34.53 56.0199L42.51 52.9299L41.83 51.1599L34.22 55.2199L34.53 56.0199Z" fill="#19242B"/>
<path d="M18.53 56.4302L21.87 64.3102L20.12 65.0502L17.74 56.7602L18.53 56.4302Z" fill="#19242B"/>
<path d="M33.27 39.02L30.18 31.03L28.41 31.72L32.48 39.33L33.27 39.02Z" fill="#19242B"/>
<path d="M25.4001 56.96C30.2712 56.96 34.2201 53.0112 34.2201 48.14C34.2201 43.2689 30.2712 39.3201 25.4001 39.3201C20.5289 39.3201 16.5801 43.2689 16.5801 48.14C16.5801 53.0112 20.5289 56.96 25.4001 56.96Z" fill="black"/>
<path d="M25.4 55.4501C29.4372 55.4501 32.71 52.1773 32.71 48.1401C32.71 44.1029 29.4372 40.8301 25.4 40.8301C21.3628 40.8301 18.09 44.1029 18.09 48.1401C18.09 52.1773 21.3628 55.4501 25.4 55.4501Z" fill="#FFFFFB"/>
<path d="M25.4 51.6701C27.3496 51.6701 28.93 50.0896 28.93 48.1401C28.93 46.1905 27.3496 44.6101 25.4 44.6101C23.4504 44.6101 21.87 46.1905 21.87 48.1401C21.87 50.0896 23.4504 51.6701 25.4 51.6701Z" fill="#AFAFAF"/>
<path d="M25.4001 49.1099C25.9358 49.1099 26.3701 48.6756 26.3701 48.1399C26.3701 47.6042 25.9358 47.1699 25.4001 47.1699C24.8643 47.1699 24.4301 47.6042 24.4301 48.1399C24.4301 48.6756 24.8643 49.1099 25.4001 49.1099Z" fill="#0B1116"/>
<path d="M26.1894 42.7106C26.1987 42.2854 25.8615 41.9333 25.4363 41.924C25.0111 41.9148 24.659 42.252 24.6498 42.6772C24.6405 43.1023 24.9777 43.4545 25.4029 43.4637C25.828 43.473 26.1802 43.1358 26.1894 42.7106Z" fill="#0B1116"/>
<path d="M26.1601 53.59C26.1601 54.01 25.8201 54.36 25.3901 54.36C24.9701 54.36 24.6201 54.02 24.6201 53.59C24.6201 53.17 24.9601 52.8201 25.3901 52.8201C25.8201 52.8201 26.1601 53.16 26.1601 53.59Z" fill="#0B1116"/>
<path d="M30.8301 47.3801C30.4101 47.3801 30.0601 47.7201 30.0601 48.1501C30.0601 48.5801 30.4001 48.9201 30.8301 48.9201C31.2501 48.9201 31.6001 48.5801 31.6001 48.1501C31.6001 47.7201 31.2601 47.3801 30.8301 47.3801Z" fill="#0B1116"/>
<path d="M19.9601 48.9201C20.3853 48.9201 20.7301 48.5753 20.7301 48.1501C20.7301 47.7248 20.3853 47.3801 19.9601 47.3801C19.5348 47.3801 19.1901 47.7248 19.1901 48.1501C19.1901 48.5753 19.5348 48.9201 19.9601 48.9201Z" fill="#0B1116"/>
<path d="M29.2401 45.0701C29.6653 45.0701 30.0101 44.7253 30.0101 44.3C30.0101 43.8748 29.6653 43.53 29.2401 43.53C28.8148 43.53 28.4701 43.8748 28.4701 44.3C28.4701 44.7253 28.8148 45.0701 29.2401 45.0701Z" fill="#0B1116"/>
<path d="M22.09 52.5401C21.79 52.8401 21.31 52.8401 21.01 52.5401C20.71 52.2401 20.71 51.7601 21.01 51.4601C21.31 51.1601 21.79 51.1601 22.09 51.4601C22.39 51.7501 22.39 52.2401 22.09 52.5401Z" fill="#0B1116"/>
<path d="M29.78 51.4501C29.48 51.1501 29 51.1501 28.7 51.4501C28.4 51.7501 28.4 52.2301 28.7 52.5301C29 52.8301 29.48 52.8301 29.78 52.5301C30.08 52.2401 30.08 51.7501 29.78 51.4501Z" fill="#0B1116"/>
<path d="M22.09 43.7602C21.79 43.4602 21.31 43.4602 21.01 43.7602C20.71 44.0602 20.71 44.5401 21.01 44.8401C21.31 45.1401 21.79 45.1401 22.09 44.8401C22.39 44.5501 22.39 44.0602 22.09 43.7602Z" fill="#0B1116"/>
<path class="car__wheel" d="M98.28 64.07C107.078 64.07 114.21 56.9379 114.21 48.14C114.21 39.3421 107.078 32.21 98.28 32.21C89.4821 32.21 82.35 39.3421 82.35 48.14C82.35 56.9379 89.4821 64.07 98.28 64.07Z" fill="#0B1116"/>
<path d="M101.38 37.84L95.2301 31.8801L96.5501 30.52L101.97 37.23L101.38 37.84Z" fill="#19242B"/>
<path d="M94.5801 59.6201L100.54 65.77L101.9 64.45L95.1901 59.02L94.5801 59.6201Z" fill="#19242B"/>
<path d="M87.97 45.0399L82.02 51.1899L80.65 49.8699L87.36 44.4399L87.97 45.0399Z" fill="#19242B"/>
<path d="M109.75 51.84L115.9 45.8801L114.58 44.52L109.16 51.23L109.75 51.84Z" fill="#19242B"/>
<path d="M93.19 38.6599L84.63 38.7999L84.6 36.8999L93.17 37.8099L93.19 38.6599Z" fill="#19242B"/>
<path d="M103.78 58.8699L112.34 59.0099L112.37 57.1099L103.79 58.0198L103.78 58.8699Z" fill="#19242B"/>
<path d="M88.8 53.23L88.93 61.79L87.03 61.82L87.94 53.25L88.8 53.23Z" fill="#19242B"/>
<path d="M109.01 42.64L109.14 34.08L107.24 34.05L108.15 42.6301L109.01 42.64Z" fill="#19242B"/>
<path d="M97.28 37.43L89.35 34.22L90.06 32.46L97.6 36.64L97.28 37.43Z" fill="#19242B"/>
<path d="M99.1699 60.1699L107 63.6299L107.77 61.8899L99.5099 59.3899L99.1699 60.1699Z" fill="#19242B"/>
<path d="M87.57 49.1403L84.36 57.0803L82.6 56.3703L86.77 48.8203L87.57 49.1403Z" fill="#19242B"/>
<path d="M110.3 47.2602L113.76 39.4302L112.03 38.6602L109.52 46.9102L110.3 47.2602Z" fill="#19242B"/>
<path d="M90 41.27L82.12 44.62L81.38 42.87L89.67 40.49L90 41.27Z" fill="#19242B"/>
<path d="M107.41 56.0199L115.39 52.9299L114.71 51.1599L107.1 55.2199L107.41 56.0199Z" fill="#19242B"/>
<path d="M91.41 56.4302L94.75 64.3102L93.01 65.0502L90.62 56.7602L91.41 56.4302Z" fill="#19242B"/>
<path d="M106.15 39.02L103.06 31.03L101.29 31.72L105.36 39.33L106.15 39.02Z" fill="#19242B"/>
<path d="M98.2801 56.96C103.151 56.96 107.1 53.0112 107.1 48.14C107.1 43.2689 103.151 39.3201 98.2801 39.3201C93.4089 39.3201 89.4601 43.2689 89.4601 48.14C89.4601 53.0112 93.4089 56.96 98.2801 56.96Z" fill="black"/>
<path d="M98.28 55.4501C102.317 55.4501 105.59 52.1773 105.59 48.1401C105.59 44.1029 102.317 40.8301 98.28 40.8301C94.2428 40.8301 90.97 44.1029 90.97 48.1401C90.97 52.1773 94.2428 55.4501 98.28 55.4501Z" fill="#FFFFFB"/>
<path d="M98.28 51.6701C100.23 51.6701 101.81 50.0896 101.81 48.1401C101.81 46.1905 100.23 44.6101 98.28 44.6101C96.3304 44.6101 94.75 46.1905 94.75 48.1401C94.75 50.0896 96.3304 51.6701 98.28 51.6701Z" fill="#AFAFAF"/>
<path d="M98.2801 49.1099C98.8158 49.1099 99.2501 48.6756 99.2501 48.1399C99.2501 47.6042 98.8158 47.1699 98.2801 47.1699C97.7443 47.1699 97.3101 47.6042 97.3101 48.1399C97.3101 48.6756 97.7443 49.1099 98.2801 49.1099Z" fill="#0B1116"/>
<path d="M98.28 43.4799C98.7053 43.4799 99.05 43.1352 99.05 42.7099C99.05 42.2846 98.7053 41.9399 98.28 41.9399C97.8548 41.9399 97.51 42.2846 97.51 42.7099C97.51 43.1352 97.8548 43.4799 98.28 43.4799Z" fill="#0B1116"/>
<path d="M99.04 53.5898C99.04 54.0098 98.7 54.3598 98.27 54.3598C97.85 54.3598 97.5 54.0198 97.5 53.5898C97.5 53.1698 97.84 52.8198 98.27 52.8198C98.7 52.8198 99.04 53.1598 99.04 53.5898Z" fill="#0B1116"/>
<path d="M103.72 47.3799C103.3 47.3799 102.95 47.7198 102.95 48.1498C102.95 48.5798 103.29 48.9199 103.72 48.9199C104.14 48.9199 104.49 48.5798 104.49 48.1498C104.49 47.7198 104.14 47.3799 103.72 47.3799Z" fill="#0B1116"/>
<path d="M92.8401 48.9199C93.2653 48.9199 93.6101 48.5751 93.6101 48.1498C93.6101 47.7246 93.2653 47.3799 92.8401 47.3799C92.4148 47.3799 92.0701 47.7246 92.0701 48.1498C92.0701 48.5751 92.4148 48.9199 92.8401 48.9199Z" fill="#0B1116"/>
<path d="M102.12 45.0698C102.545 45.0698 102.89 44.7251 102.89 44.2998C102.89 43.8745 102.545 43.5298 102.12 43.5298C101.695 43.5298 101.35 43.8745 101.35 44.2998C101.35 44.7251 101.695 45.0698 102.12 45.0698Z" fill="#0B1116"/>
<path d="M94.97 52.5399C94.67 52.8399 94.19 52.8399 93.89 52.5399C93.59 52.2399 93.59 51.7599 93.89 51.4599C94.19 51.1599 94.67 51.1599 94.97 51.4599C95.27 51.7499 95.27 52.2399 94.97 52.5399Z" fill="#0B1116"/>
<path d="M102.66 51.4499C102.36 51.1499 101.88 51.1499 101.58 51.4499C101.28 51.7499 101.28 52.2299 101.58 52.5299C101.88 52.8299 102.36 52.8299 102.66 52.5299C102.96 52.2399 102.96 51.7499 102.66 51.4499Z" fill="#0B1116"/>
<path d="M94.97 43.7599C94.67 43.4599 94.19 43.4599 93.89 43.7599C93.59 44.0599 93.59 44.5399 93.89 44.8399C94.19 45.1399 94.67 45.1399 94.97 44.8399C95.27 44.5499 95.27 44.0599 94.97 43.7599Z" fill="#0B1116"/>
<path opacity="0.2" d="M10.0101 31.07L10.8601 31.12C12.0301 28.57 13.8401 26.37 16.2401 24.79C18.3801 23.38 20.7801 22.59 23.2501 22.38C23.3901 22.36 23.5201 22.36 23.6601 22.35C27.9801 22.09 32.5201 23.56 36.3501 26.5C37.0801 27.06 37.7901 27.67 38.4601 28.33C39.5901 29.44 40.6201 30.7 41.5401 32.09C42.2901 33.22 42.9201 34.39 43.4501 35.59H44.8201C44.2001 33.3 43.2001 31.03 41.7901 28.9C35.6901 19.66 24.3601 16.4 16.4901 21.6C13.1401 23.81 10.9501 27.2 10.0101 31.07Z" fill="#130911"/>
<path opacity="0.2" d="M75.7201 35.59H76.9601C77.4801 34.4 78.1201 33.23 78.8701 32.09C84.9701 22.86 96.3001 19.59 104.17 24.79C106.22 26.14 107.82 27.93 108.98 30L110.19 29.85C109.12 26.49 107.06 23.58 104.06 21.6C96.1801 16.4 84.8501 19.66 78.7601 28.9C77.3401 31.03 76.3401 33.3 75.7201 35.59Z" fill="#130911"/>
<path d="M112.23 30.1201H115.08C116.04 30.1201 116.82 29.3401 116.82 28.3801V25.53C116.82 24.57 116.04 23.79 115.08 23.79H109.38C108.42 23.79 107.64 24.57 107.64 25.53C107.64 28.07 109.69 30.1201 112.23 30.1201Z" fill="#BFBFBF"/>
<path d="M113.86 20.1202C115.02 20.1202 115.97 19.1802 115.97 18.0102C115.97 16.8502 115.03 15.9001 113.86 15.9001C112.7 15.9101 112.7 20.1202 113.86 20.1202Z" fill="#99E7FF"/>
<path opacity="0.28" d="M104.01 14.56C95.9501 13.93 87.8301 13.8 79.7401 14.51C78.7301 14.59 77.7201 14.71 76.7101 14.84C75.7001 14.96 74.7101 15.05 73.7101 15.16C73.2101 15.22 72.7101 15.24 72.2101 15.27L70.7001 15.36L69.1901 15.45L67.6801 15.5L64.6601 15.61L61.6301 15.68C59.6101 15.74 57.5901 15.74 55.5701 15.77C51.5301 15.82 47.4901 15.83 43.4501 15.83L31.3301 15.82L19.2001 15.77L7.07007 15.75C9.09007 15.86 11.1101 15.96 13.1301 16.04L19.1901 16.29C23.2301 16.42 27.2701 16.53 31.3201 16.64C39.4101 16.84 47.5001 16.9 55.5901 16.83C57.6101 16.8 59.6401 16.78 61.6601 16.71L64.7001 16.63L67.7401 16.5L69.2601 16.43L70.7801 16.32L72.3001 16.21C72.8101 16.17 73.3101 16.15 73.8201 16.08C74.8301 15.96 75.8601 15.86 76.8501 15.71C77.8401 15.57 78.8401 15.42 79.8401 15.32C83.8401 14.86 87.8701 14.65 91.9101 14.55C95.9301 14.42 99.9701 14.45 104.01 14.56Z" fill="white"/>
<path d="M24.2701 14.4798L24.5101 14.0098C24.6501 13.7398 27.9601 7.40981 37.8301 6.05981L38.0801 6.02979L41.3801 14.4798H24.2701Z" fill="#46C0FF"/>
<path d="M37.8701 6.37994L40.9101 14.1499H24.7901C24.7901 14.1499 28.0501 7.71994 37.8701 6.37994ZM38.2901 5.66992L37.7801 5.73993C27.7401 7.10993 24.3501 13.5899 24.2101 13.8599L23.7301 14.7999H24.7901H40.9001H41.8501L41.5001 13.9099L38.4601 6.13989L38.2901 5.66992Z" fill="#010101"/>
<path d="M38.2201 7.22992L35.8101 13.9599L31.2401 13.8899L33.6001 7.35992C34.8601 6.93992 36.2701 6.59989 37.8601 6.38989L38.2201 7.22992Z" fill="#99E7FF"/>
<path d="M63.0801 3.44L63.8901 4.20996C63.9001 4.21996 64.9001 5.17 66.3401 6.44C67.6801 7.62 68.9401 8.65999 70.0901 9.54999C70.6301 9.96999 71.1601 10.36 71.6701 10.73C73.9901 12.37 75.6701 13.17 76.8101 13.17C77.0501 13.17 77.2701 13.13 77.4801 13.06L77.7901 12.96C77.6201 12.78 77.4401 12.59 77.2601 12.4C74.6501 9.66996 70.2101 5.42997 65.8301 3.15997C65.5401 3.00997 65.2501 2.86998 64.9601 2.72998L63.0801 3.44Z" fill="#010101"/>
<path d="M64.3801 3.69989C64.3801 3.69989 65.3701 4.63991 66.8101 5.90991C67.8701 6.83991 69.1801 7.94993 70.5201 8.98993C71.0401 9.38993 71.5601 9.7899 72.0801 10.1499C74.2201 11.6599 76.2301 12.7499 77.2601 12.3999C76.0901 11.1699 74.5501 9.63993 72.8101 8.11993C72.3201 7.68993 71.8101 7.2599 71.2901 6.8399C70.0601 5.8499 68.7701 4.8999 67.4601 4.0899C66.9201 3.7599 66.3701 3.43991 65.8301 3.15991L64.3801 3.69989Z" fill="#46C0FF"/>
<path d="M64.3801 3.69989C64.3801 3.69989 65.3701 4.63991 66.8101 5.90991L67.4601 4.0899C66.9201 3.7599 66.3701 3.43991 65.8301 3.15991L64.3801 3.69989Z" fill="#99E7FF"/>
<path d="M70.52 8.98987C71.04 9.38987 71.56 9.78984 72.08 10.1498L72.81 8.11987C72.32 7.68987 71.81 7.25984 71.29 6.83984L70.52 8.98987Z" fill="#99E7FF"/>
<path d="M71.4702 14.8L70.7602 13.78C70.7402 13.75 70.3002 13.11 69.5302 12.17C69.0802 11.61 68.6502 11.12 68.2202 10.65C67.1002 9.41002 65.9602 8.33006 64.8402 7.44006C63.8802 6.67006 62.9302 6.03006 62.0102 5.56006C61.1102 5.09006 60.2102 4.76002 59.3502 4.58002C58.6802 4.44002 57.9102 4.33006 57.0702 4.25006C55.7802 4.12006 54.2902 4.06006 52.6302 4.06006H52.5002C50.5002 4.07006 48.3802 4.18006 46.5302 4.37006C45.8602 4.44006 45.2102 4.52005 44.5902 4.61005C41.9602 5.01005 41.5102 5.41006 41.3502 5.56006C40.8102 6.04006 40.4702 7.08005 42.0502 11.1801C42.3302 11.9101 42.6502 12.6901 43.0302 13.5601C43.2702 14.1001 43.4302 14.4301 43.4302 14.4301L43.6102 14.8H44.0202H71.4702Z" fill="#010101"/>
<path d="M42.6602 10.94C43.0102 11.85 43.3702 12.7 43.6302 13.29C43.8702 13.82 44.0202 14.15 44.0202 14.15H70.2302C70.2302 14.15 69.7902 13.51 69.0302 12.58C68.6702 12.14 68.2402 11.63 67.7502 11.09C66.8302 10.07 65.7002 8.93995 64.4502 7.94995C63.5902 7.25995 62.6702 6.63 61.7202 6.13C60.9102 5.71 60.0702 5.37996 59.2302 5.20996C58.5602 5.06996 57.8102 4.96995 57.0102 4.88995C55.6202 4.74995 54.0702 4.69995 52.5102 4.69995C50.4602 4.70995 48.3802 4.83001 46.6002 5.01001C45.9102 5.08001 45.2702 5.16 44.6902 5.25C43.1802 5.48 42.1002 5.75998 41.7802 6.03998C41.1702 6.57998 41.8802 8.91 42.6602 10.94Z" fill="#46C0FF"/>
<path d="M49.1201 14.15H53.6901L57.0101 4.88995C55.6201 4.74995 54.0701 4.69995 52.5101 4.69995L49.1201 14.15Z" fill="#99E7FF"/>
<path d="M42.6602 10.94C43.0102 11.85 43.3701 12.7 43.6301 13.29L46.6002 5.01001C45.9102 5.08001 45.2702 5.16 44.6902 5.25L42.6602 10.94Z" fill="#99E7FF"/>
<path d="M58.8402 14.1501H62.2202L64.4402 7.94012C63.5802 7.25012 62.6602 6.62012 61.7102 6.12012L58.8402 14.1501Z" fill="#99E7FF"/>
<path d="M66.6501 14.1501H68.4701L69.0301 12.5801C68.6701 12.1401 68.2401 11.6301 67.7501 11.0901L66.6501 14.1501Z" fill="#99E7FF"/>
<path d="M84.9301 9.0799L85.2701 13.0999L94.51 12.7699L94.1001 7.91992L84.9301 9.0799Z" fill="#727272"/>
<path d="M83.29 7.13009L83.9 10.4901L99.88 9.64004C99.88 9.64004 101.69 3.01009 99.41 1.76009C97.12 0.500094 83.29 7.13009 83.29 7.13009Z" fill="#AFAFAF"/>
<path d="M19.0501 11.7501L9.66012 4.09009H5.87012L8.17012 13.3401H16.8001L19.0501 11.7501Z" fill="#727272"/>
<path d="M5.53008 5.6701C10.3901 5.6701 14.3201 4.59013 14.3201 3.26013C14.3201 1.93013 10.3801 0.850098 5.53008 0.850098C0.680078 0.850098 0.680078 5.6701 5.53008 5.6701Z" fill="#AFAFAF"/>
</svg>
