<svg width="117" height="46" viewBox="0 0 117 46" fill="none" xmlns="http://www.w3.org/2000/svg">
<path d="M55.03 22.3298H52.99V44.3898H55.03V22.3298Z" fill="#030507"/>
<path d="M69.82 22.3298H67.78V44.3898H69.82V22.3298Z" fill="#030507"/>
<path d="M62.0107 31.3751L36.6897 42.8745L37.7565 45.2236L63.0775 33.7241L62.0107 31.3751Z" fill="#182228"/>
<path d="M61.704 31.4204L60.6372 33.7695L85.9582 45.269L87.025 42.9199L61.704 31.4204Z" fill="#182228"/>
<path d="M40.0299 25.9655L38.3673 27.1477L51.1511 45.1266L52.8137 43.9444L40.0299 25.9655Z" fill="#0B1116"/>
<path d="M46.5884 21.3834L23.9232 37.4993L25.4183 39.6019L48.0835 23.486L46.5884 21.3834Z" fill="#030507"/>
<path d="M77.3934 21.3817L75.8983 23.4844L98.5635 39.6003L100.059 37.4976L77.3934 21.3817Z" fill="#030507"/>
<path d="M79.4634 24.1841L70.3107 44.2565L72.1668 45.1029L81.3195 25.0305L79.4634 24.1841Z" fill="#0B1116"/>
<path d="M72.12 43.0699H51.12V45.1099H72.12V43.0699Z" fill="#0B1116"/>
<path d="M93.9879 12.335L91.0026 12.96L96.2091 37.8312L99.1944 37.2063L93.9879 12.335Z" fill="#0B1116"/>
<path d="M90.89 17.2199C90.89 17.0199 91.05 16.86 91.24 16.87L95.68 17.06C95.87 17.07 96.02 17.24 96.02 17.44C96.02 17.64 95.86 17.7999 95.67 17.7899L91.23 17.5999C91.04 17.5899 90.89 17.4199 90.89 17.2199Z" fill="#FF9D03"/>
<path d="M91.16 18.4899C91.16 18.2899 91.32 18.1298 91.51 18.1398L95.95 18.3299C96.14 18.3399 96.29 18.5099 96.29 18.7099C96.29 18.9099 96.13 19.0699 95.94 19.0599L91.5 18.8699C91.31 18.8599 91.16 18.6899 91.16 18.4899Z" fill="#FF9D03"/>
<path d="M91.42 19.7599C91.42 19.5599 91.5801 19.3999 91.7701 19.4099L96.2101 19.5999C96.4001 19.6099 96.55 19.7799 96.55 19.9799C96.55 20.1799 96.39 20.3399 96.2 20.3299L91.76 20.1398C91.57 20.1298 91.42 19.9599 91.42 19.7599Z" fill="#FF9D03"/>
<path d="M91.6901 21.0299C91.6901 20.8299 91.8501 20.6699 92.0401 20.6799L96.4801 20.8699C96.6701 20.8799 96.8201 21.0499 96.8201 21.2499C96.8201 21.4499 96.6601 21.6099 96.4701 21.5999L92.0301 21.4099C91.8401 21.3999 91.6901 21.2299 91.6901 21.0299Z" fill="#FF9D03"/>
<path d="M92.49 24.8299C92.49 24.6299 92.65 24.4699 92.84 24.4799L97.28 24.6699C97.47 24.6799 97.62 24.8499 97.62 25.0499C97.62 25.2499 97.46 25.4099 97.27 25.3999L92.83 25.2099C92.63 25.1999 92.48 25.0299 92.49 24.8299Z" fill="#FF9D03"/>
<path d="M92.75 26.0999C92.75 25.8999 92.91 25.74 93.1 25.75L97.54 25.94C97.73 25.95 97.88 26.12 97.88 26.32C97.88 26.52 97.72 26.6799 97.53 26.6699L93.09 26.4799C92.9 26.4699 92.75 26.2999 92.75 26.0999Z" fill="#FF9D03"/>
<path d="M93.02 27.37C93.02 27.17 93.18 27.01 93.37 27.02L97.81 27.21C98 27.22 98.15 27.39 98.15 27.59C98.15 27.79 97.99 27.95 97.8 27.94L93.36 27.75C93.16 27.74 93.01 27.57 93.02 27.37Z" fill="#FF9D03"/>
<path d="M93.28 28.63C93.28 28.43 93.44 28.27 93.63 28.28L98.07 28.47C98.26 28.48 98.41 28.65 98.41 28.85C98.41 29.05 98.25 29.21 98.06 29.2L93.62 29.01C93.43 29.01 93.28 28.84 93.28 28.63Z" fill="#FF9D03"/>
<path d="M93.55 29.9C93.55 29.7 93.71 29.54 93.9 29.55L98.34 29.74C98.53 29.75 98.68 29.92 98.68 30.12C98.68 30.32 98.52 30.48 98.33 30.47L93.89 30.28C93.7 30.27 93.54 30.1 93.55 29.9Z" fill="#FF9D03"/>
<path d="M93.8101 31.17C93.8101 30.97 93.9701 30.81 94.1601 30.82L98.6001 31.01C98.7901 31.02 98.9401 31.19 98.9401 31.39C98.9401 31.59 98.7801 31.75 98.5901 31.74L94.1501 31.55C93.9601 31.54 93.8101 31.37 93.8101 31.17Z" fill="#FF9D03"/>
<path d="M94.0801 32.44C94.0801 32.24 94.2401 32.0799 94.4301 32.0899L98.8701 32.2799C99.0601 32.2899 99.2101 32.4599 99.2101 32.6599C99.2101 32.8599 99.0501 33.02 98.8601 33.01L94.4201 32.82C94.2301 32.81 94.0801 32.64 94.0801 32.44Z" fill="#FF9D03"/>
<path d="M94.34 33.7099C94.34 33.5099 94.5 33.3499 94.69 33.3599L99.13 33.5499C99.32 33.5599 99.47 33.7299 99.47 33.9299C99.47 34.1299 99.31 34.2899 99.12 34.2799L94.68 34.0899C94.49 34.0799 94.34 33.9099 94.34 33.7099Z" fill="#FF9D03"/>
<path d="M94.61 34.9799C94.61 34.7799 94.77 34.62 94.96 34.63L99.4 34.82C99.59 34.83 99.74 34.9999 99.74 35.1999C99.74 35.3999 99.58 35.5599 99.39 35.5499L94.95 35.3599C94.76 35.3499 94.61 35.1799 94.61 34.9799Z" fill="#FF9D03"/>
<path d="M29.7796 12.3488L24.5731 37.2201L27.5584 37.845L32.765 12.9737L29.7796 12.3488Z" fill="#030507"/>
<path d="M32.84 17.2199C32.84 17.0199 32.68 16.86 32.49 16.87L28.05 17.06C27.86 17.07 27.71 17.24 27.71 17.44C27.71 17.64 27.87 17.7999 28.06 17.7899L32.5 17.5999C32.69 17.5899 32.84 17.4199 32.84 17.2199Z" fill="#FF9D03"/>
<path d="M32.5699 18.4899C32.5699 18.2899 32.4099 18.1298 32.2199 18.1398L27.7799 18.3299C27.5899 18.3399 27.4399 18.5099 27.4399 18.7099C27.4399 18.9099 27.5999 19.0699 27.7899 19.0599L32.2299 18.8699C32.4199 18.8599 32.5699 18.6899 32.5699 18.4899Z" fill="#FF9D03"/>
<path d="M32.3099 19.7599C32.3099 19.5599 32.1499 19.3999 31.9599 19.4099L27.5199 19.5999C27.3299 19.6099 27.1799 19.7799 27.1799 19.9799C27.1799 20.1799 27.3399 20.3399 27.5299 20.3299L31.9699 20.1398C32.1599 20.1298 32.3099 19.9599 32.3099 19.7599Z" fill="#FF9D03"/>
<path d="M32.04 21.0299C32.04 20.8299 31.88 20.6699 31.69 20.6799L27.25 20.8699C27.06 20.8799 26.91 21.0499 26.91 21.2499C26.91 21.4499 27.07 21.6099 27.26 21.5999L31.7 21.4099C31.89 21.3999 32.04 21.2299 32.04 21.0299Z" fill="#FF9D03"/>
<path d="M31.24 24.8299C31.24 24.6299 31.08 24.4699 30.89 24.4799L26.45 24.6699C26.26 24.6799 26.11 24.8499 26.11 25.0499C26.11 25.2499 26.27 25.4099 26.46 25.3999L30.9 25.2099C31.1 25.1999 31.25 25.0299 31.24 24.8299Z" fill="#FF9D03"/>
<path d="M30.98 26.0999C30.98 25.8999 30.82 25.74 30.63 25.75L26.19 25.94C26 25.95 25.85 26.12 25.85 26.32C25.85 26.52 26.01 26.6799 26.2 26.6699L30.64 26.4799C30.83 26.4699 30.98 26.2999 30.98 26.0999Z" fill="#FF9D03"/>
<path d="M30.71 27.37C30.71 27.17 30.55 27.01 30.36 27.02L25.92 27.21C25.73 27.22 25.58 27.39 25.58 27.59C25.58 27.79 25.74 27.95 25.93 27.94L30.37 27.75C30.57 27.74 30.72 27.57 30.71 27.37Z" fill="#FF9D03"/>
<path d="M30.4499 28.63C30.4499 28.43 30.2899 28.27 30.0999 28.28L25.66 28.48C25.47 28.49 25.3199 28.66 25.3199 28.86C25.3199 29.06 25.4799 29.22 25.6699 29.21L30.1099 29.02C30.2999 29.01 30.4499 28.84 30.4499 28.63Z" fill="#FF9D03"/>
<path d="M30.18 29.9C30.18 29.7 30.02 29.54 29.83 29.55L25.39 29.74C25.2 29.75 25.05 29.92 25.05 30.12C25.05 30.32 25.21 30.48 25.4 30.47L29.84 30.28C30.03 30.27 30.19 30.1 30.18 29.9Z" fill="#FF9D03"/>
<path d="M29.92 31.17C29.92 30.97 29.76 30.81 29.57 30.82L25.13 31.01C24.94 31.02 24.79 31.19 24.79 31.39C24.79 31.59 24.95 31.75 25.14 31.74L29.58 31.55C29.77 31.54 29.92 31.37 29.92 31.17Z" fill="#FF9D03"/>
<path d="M29.65 32.44C29.65 32.24 29.49 32.0799 29.3 32.0899L24.86 32.2799C24.67 32.2899 24.52 32.4599 24.52 32.6599C24.52 32.8599 24.68 33.02 24.87 33.01L29.31 32.82C29.5 32.81 29.65 32.64 29.65 32.44Z" fill="#FF9D03"/>
<path d="M29.39 33.7099C29.39 33.5099 29.23 33.3499 29.04 33.3599L24.6 33.5499C24.41 33.5599 24.26 33.7299 24.26 33.9299C24.26 34.1299 24.42 34.2899 24.61 34.2799L29.05 34.0899C29.24 34.0799 29.39 33.9099 29.39 33.7099Z" fill="#FF9D03"/>
<path d="M29.12 34.9799C29.12 34.7799 28.96 34.62 28.77 34.63L24.33 34.82C24.14 34.83 23.99 34.9999 23.99 35.1999C23.99 35.3999 24.15 35.5599 24.34 35.5499L28.78 35.3599C28.97 35.3499 29.12 35.1799 29.12 34.9799Z" fill="#FF9D03"/>
<path d="M108.16 14.5899C107.43 13.2499 106.02 12.4199 104.5 12.4199C104.45 12.4199 104.4 12.4199 104.35 12.4199L92.1601 12.8499L78.3701 13.3399H78.1401C78.0301 13.2199 77.9101 13.0899 77.7801 12.9599C77.7401 12.9099 77.7001 12.8699 77.6501 12.8199C77.5301 12.6899 77.3901 12.5499 77.2501 12.3999C76.4501 11.5599 75.4701 10.5799 74.3801 9.54993C73.5801 8.79993 72.7101 8.0299 71.8001 7.2699C71.0701 6.6599 70.3001 6.06994 69.5301 5.49994C69.3201 5.34994 69.1101 5.19993 68.9001 5.04993C68.1901 4.55993 67.4701 4.08993 66.7501 3.67993C66.4401 3.49993 66.1301 3.32992 65.8201 3.16992C65.5301 3.01992 65.2401 2.87993 64.9501 2.73993C64.5601 2.55993 64.1701 2.39995 63.7801 2.25995C63.7701 2.25995 63.7701 2.25995 63.7701 2.25995C63.3501 2.10995 62.9501 1.97994 62.5401 1.87994C62.0201 1.74994 61.5101 1.66994 61.0201 1.62994C59.7501 1.53994 58.5001 1.47994 57.2801 1.43994C56.6301 1.42994 55.9801 1.41992 55.3501 1.41992C50.3001 1.41992 45.7001 1.8999 41.5401 2.7099C40.2401 2.9599 38.9801 3.24994 37.7701 3.55994C37.6501 3.58994 37.5301 3.6199 37.4101 3.6499C37.1801 3.7099 36.9501 3.7699 36.7301 3.8299C35.3701 4.1999 34.0701 4.59991 32.8201 5.02991C31.1001 5.61991 29.4901 6.24991 27.9801 6.90991C23.1001 9.03991 19.3701 11.4299 16.8001 13.3499H4.10006C1.96006 13.3499 -0.389943 14.7899 0.230057 17.2199L2.16006 26.5499C2.87006 29.2099 3.92006 30.6899 6.19006 30.8399L10.0101 31.0799L10.8501 31.1299C12.0201 28.5799 13.8301 26.3799 16.2301 24.7999C18.3701 23.3899 20.7701 22.5999 23.2401 22.3899C23.3801 22.3699 23.5101 22.3699 23.6501 22.3599C27.9701 22.0999 32.5101 23.5699 36.3401 26.5099C37.0701 27.0699 37.7801 27.6799 38.4501 28.3399C39.5801 29.4499 40.6101 30.7099 41.5301 32.0999C42.2801 33.2299 42.9101 34.3999 43.4401 35.5999H76.9401C77.4601 34.4099 78.0901 33.2499 78.8401 32.1199C78.8401 32.1099 78.8501 32.1099 78.8501 32.0999C82.1901 27.0399 87.1101 23.7699 92.1601 22.7099C94.4601 22.2299 96.7801 22.1999 99.0001 22.6599C100.81 23.0399 102.56 23.7399 104.15 24.7999C106.2 26.1499 107.8 27.9399 108.96 30.0099L114.37 29.3099V16.2099L108.16 14.5899Z" fill="#FF9D03"/>
<path opacity="0.2" d="M10.0101 31.07L10.8601 31.12C12.0301 28.57 13.8401 26.37 16.2401 24.79C18.3801 23.38 20.7801 22.59 23.2501 22.38C23.3901 22.36 23.5201 22.36 23.6601 22.35C27.9801 22.09 32.5201 23.56 36.3501 26.5C37.0801 27.06 37.7901 27.67 38.4601 28.33C39.5901 29.44 40.6201 30.7 41.5401 32.09C42.2901 33.22 42.9201 34.39 43.4501 35.59H44.8201C44.2001 33.3 43.2001 31.03 41.7901 28.9C35.6901 19.66 24.3601 16.4 16.4901 21.6C13.1401 23.81 10.9501 27.2 10.0101 31.07Z" fill="#130911"/>
<path opacity="0.2" d="M75.7201 35.59H76.9601C77.4801 34.4 78.1201 33.23 78.8701 32.09C84.9701 22.86 96.3001 19.59 104.17 24.79C106.22 26.14 107.82 27.93 108.98 30L110.19 29.85C109.12 26.49 107.06 23.58 104.06 21.6C96.1801 16.4 84.8501 19.66 78.7601 28.9C77.3401 31.03 76.3401 33.3 75.7201 35.59Z" fill="#130911"/>
<path d="M112.23 30.1201H115.08C116.04 30.1201 116.82 29.3401 116.82 28.3801V25.53C116.82 24.57 116.04 23.79 115.08 23.79H109.38C108.42 23.79 107.64 24.57 107.64 25.53C107.64 28.07 109.69 30.1201 112.23 30.1201Z" fill="#BFBFBF"/>
<path d="M113.86 20.1199C115.02 20.1199 115.97 19.1799 115.97 18.0099C115.97 16.8499 115.03 15.8999 113.86 15.8999C112.7 15.9099 112.7 20.1199 113.86 20.1199Z" fill="#99E7FF"/>
<path opacity="0.28" d="M104.01 14.56C95.9501 13.93 87.8301 13.8 79.7401 14.51C78.7301 14.59 77.7201 14.71 76.7101 14.84C75.7001 14.96 74.7101 15.05 73.7101 15.16C73.2101 15.22 72.7101 15.24 72.2101 15.27L70.7001 15.36L69.1901 15.45L67.6801 15.5L64.6601 15.61L61.6301 15.68C59.6101 15.74 57.5901 15.74 55.5701 15.77C51.5301 15.82 47.4901 15.83 43.4501 15.83L31.3301 15.82L19.2001 15.77L7.07007 15.75C9.09007 15.86 11.1101 15.96 13.1301 16.04L19.1901 16.29C23.2301 16.42 27.2701 16.53 31.3201 16.64C39.4101 16.84 47.5001 16.9 55.5901 16.83C57.6101 16.8 59.6401 16.78 61.6601 16.71L64.7001 16.63L67.7401 16.5L69.2601 16.43L70.7801 16.32L72.3001 16.21C72.8101 16.17 73.3101 16.15 73.8201 16.08C74.8301 15.96 75.8601 15.86 76.8501 15.71C77.8401 15.57 78.8401 15.42 79.8401 15.32C83.8401 14.86 87.8701 14.65 91.9101 14.55C95.9301 14.42 99.9701 14.45 104.01 14.56Z" fill="white"/>
<path d="M24.2701 14.4799L24.5101 14.0099C24.6501 13.7399 27.9601 7.40994 37.8301 6.05994L38.0801 6.02991L41.3801 14.4799H24.2701Z" fill="#46C0FF"/>
<path d="M37.8701 6.37994L40.9101 14.1499H24.7901C24.7901 14.1499 28.0501 7.71994 37.8701 6.37994ZM38.2901 5.66992L37.7801 5.73993C27.7401 7.10993 24.3501 13.5899 24.2101 13.8599L23.7301 14.7999H24.7901H40.9001H41.8501L41.5001 13.9099L38.4601 6.13989L38.2901 5.66992Z" fill="#010101"/>
<path d="M38.2201 7.22992L35.8101 13.9599L31.2401 13.8899L33.6001 7.35992C34.8601 6.93992 36.2701 6.59989 37.8601 6.38989L38.2201 7.22992Z" fill="#99E7FF"/>
<path d="M63.0801 3.44L63.8901 4.20996C63.9001 4.21996 64.9001 5.17 66.3401 6.44C67.6801 7.62 68.9401 8.65999 70.0901 9.54999C70.6301 9.96999 71.1601 10.36 71.6701 10.73C73.9901 12.37 75.6701 13.17 76.8101 13.17C77.0501 13.17 77.2701 13.13 77.4801 13.06L77.7901 12.96C77.6201 12.78 77.4401 12.59 77.2601 12.4C74.6501 9.66996 70.2101 5.42997 65.8301 3.15997C65.5401 3.00997 65.2501 2.86998 64.9601 2.72998L63.0801 3.44Z" fill="#010101"/>
<path d="M64.3801 3.69989C64.3801 3.69989 65.3701 4.63991 66.8101 5.90991C67.8701 6.83991 69.1801 7.94993 70.5201 8.98993C71.0401 9.38993 71.5601 9.7899 72.0801 10.1499C74.2201 11.6599 76.2301 12.7499 77.2601 12.3999C76.0901 11.1699 74.5501 9.63993 72.8101 8.11993C72.3201 7.68993 71.8101 7.2599 71.2901 6.8399C70.0601 5.8499 68.7701 4.8999 67.4601 4.0899C66.9201 3.7599 66.3701 3.43991 65.8301 3.15991L64.3801 3.69989Z" fill="#46C0FF"/>
<path d="M64.3801 3.69989C64.3801 3.69989 65.3701 4.63991 66.8101 5.90991L67.4601 4.0899C66.9201 3.7599 66.3701 3.43991 65.8301 3.15991L64.3801 3.69989Z" fill="#99E7FF"/>
<path d="M70.52 8.98999C71.04 9.38999 71.56 9.78996 72.08 10.15L72.81 8.12C72.32 7.69 71.81 7.25997 71.29 6.83997L70.52 8.98999Z" fill="#99E7FF"/>
<path d="M71.4702 14.8L70.7602 13.78C70.7402 13.75 70.3002 13.11 69.5302 12.17C69.0802 11.61 68.6502 11.12 68.2202 10.65C67.1002 9.41002 65.9602 8.33006 64.8402 7.44006C63.8802 6.67006 62.9302 6.03006 62.0102 5.56006C61.1102 5.09006 60.2102 4.76002 59.3502 4.58002C58.6802 4.44002 57.9102 4.33006 57.0702 4.25006C55.7802 4.12006 54.2902 4.06006 52.6302 4.06006H52.5002C50.5002 4.07006 48.3802 4.18006 46.5302 4.37006C45.8602 4.44006 45.2102 4.52005 44.5902 4.61005C41.9602 5.01005 41.5102 5.41006 41.3502 5.56006C40.8102 6.04006 40.4702 7.08005 42.0502 11.1801C42.3302 11.9101 42.6502 12.6901 43.0302 13.5601C43.2702 14.1001 43.4302 14.4301 43.4302 14.4301L43.6102 14.8H44.0202H71.4702Z" fill="#010101"/>
<path d="M42.6602 10.94C43.0102 11.85 43.3702 12.7 43.6302 13.29C43.8702 13.82 44.0202 14.15 44.0202 14.15H70.2302C70.2302 14.15 69.7902 13.51 69.0302 12.58C68.6702 12.14 68.2402 11.63 67.7502 11.09C66.8302 10.07 65.7002 8.93995 64.4502 7.94995C63.5902 7.25995 62.6702 6.63 61.7202 6.13C60.9102 5.71 60.0702 5.37996 59.2302 5.20996C58.5602 5.06996 57.8102 4.96995 57.0102 4.88995C55.6202 4.74995 54.0702 4.69995 52.5102 4.69995C50.4602 4.70995 48.3802 4.83001 46.6002 5.01001C45.9102 5.08001 45.2702 5.16 44.6902 5.25C43.1802 5.48 42.1002 5.75998 41.7802 6.03998C41.1702 6.57998 41.8802 8.91 42.6602 10.94Z" fill="#46C0FF"/>
<path d="M49.1201 14.15H53.6901L57.0101 4.88995C55.6201 4.74995 54.0701 4.69995 52.5101 4.69995L49.1201 14.15Z" fill="#99E7FF"/>
<path d="M42.6602 10.94C43.0102 11.85 43.3701 12.7 43.6301 13.29L46.6002 5.01001C45.9102 5.08001 45.2702 5.16 44.6902 5.25L42.6602 10.94Z" fill="#99E7FF"/>
<path d="M58.8402 14.1501H62.2202L64.4402 7.94012C63.5802 7.25012 62.6602 6.62012 61.7102 6.12012L58.8402 14.1501Z" fill="#99E7FF"/>
<path d="M66.6501 14.1501H68.4701L69.0301 12.5801C68.6701 12.1401 68.2401 11.6301 67.7501 11.0901L66.6501 14.1501Z" fill="#99E7FF"/>
<path d="M84.9301 9.08002L85.2701 13.1L94.51 12.77L94.1001 7.92004L84.9301 9.08002Z" fill="#727272"/>
<path d="M83.29 7.13009L83.9 10.4901L99.88 9.64004C99.88 9.64004 101.69 3.01009 99.41 1.76009C97.12 0.500094 83.29 7.13009 83.29 7.13009Z" fill="#AFAFAF"/>
<path d="M19.0501 11.75L9.66012 4.08997H5.87012L8.17012 13.34H16.8001L19.0501 11.75Z" fill="#727272"/>
<path d="M5.53008 5.66998C10.3901 5.66998 14.3201 4.59001 14.3201 3.26001C14.3201 1.93001 10.3801 0.849976 5.53008 0.849976C0.680078 0.849976 0.680078 5.66998 5.53008 5.66998Z" fill="#AFAFAF"/>
</svg>
