<svg width="305" height="473" viewBox="0 0 305 473" fill="none" xmlns="http://www.w3.org/2000/svg">
<path fill-rule="evenodd" clip-rule="evenodd" d="M119.85 253.38H184.01L201.57 268.5H102.29L119.85 253.38Z" fill="#CA3927"/>
<path fill-rule="evenodd" clip-rule="evenodd" d="M55.19 267.45H249.76L297.65 340.43H7.30005L55.19 267.45Z" fill="#82341A"/>
<path fill-rule="evenodd" clip-rule="evenodd" d="M128.06 267.45H150.05L159.83 333.43L202.93 267.45H224.92L225.86 268.5L175.75 340.43H136.23L126.59 268.5L128.06 267.45Z" fill="#57260E"/>
<path fill-rule="evenodd" clip-rule="evenodd" d="M97.8099 267.45H249.76L270.23 298.65C257.05 312.09 220.26 321.75 176.93 321.75C122.54 321.75 78.4399 306.51 78.4399 287.72C78.4499 280.13 85.6399 273.12 97.8099 267.45Z" fill="#57260E"/>
<path fill-rule="evenodd" clip-rule="evenodd" d="M73.5301 38.82L16.3401 32.83C10.8501 32.27 6.56012 35.27 4.72012 39.66V39.67C4.41012 40.42 4.17012 41.2 4.00012 42.02L1.38013 50.57L4.67012 52.68C9.13012 82.66 20.7001 106.17 36.5501 123.29C55.9301 144.22 81.5101 155.43 108.35 157.15L109.79 134.2C88.6301 132.84 68.5201 124.08 53.3801 107.72C41.9401 95.36 33.2201 78.57 28.8101 57.24L71.1901 61.68L73.5301 38.82Z" fill="#FEBB12"/>
<path fill-rule="evenodd" clip-rule="evenodd" d="M70.6 48.57L13.42 42.58C5.49003 41.77 0.0600238 48.3899 0.900024 55.9299C4.58002 89.0299 16.65 114.71 33.63 133.05C53.01 153.98 78.59 165.19 105.43 166.91L106.87 143.96C85.71 142.6 65.6 133.84 50.46 117.48C39.02 105.12 30.3 88.33 25.89 67L68.27 71.44L70.6 48.57Z" fill="#E19525"/>
<path fill-rule="evenodd" clip-rule="evenodd" d="M231.42 38.63L288.6 32.64C294.09 32.08 298.38 35.08 300.22 39.47V39.48C300.53 40.23 300.77 41.01 300.94 41.83L303.56 50.38L300.27 52.49C295.81 82.47 284.24 105.98 268.39 123.1C249.01 144.03 223.43 155.24 196.59 156.96L195.15 134.01C216.31 132.65 236.42 123.89 251.56 107.53C263 95.17 271.73 78.38 276.13 57.05L233.75 61.49L231.42 38.63Z" fill="#FEBB12"/>
<path fill-rule="evenodd" clip-rule="evenodd" d="M234.35 48.38L291.53 42.39C299.46 41.58 304.89 48.2 304.05 55.73C300.37 88.83 288.3 114.51 271.33 132.85C251.95 153.78 226.37 164.99 199.53 166.71L198.09 143.76C219.25 142.4 239.36 133.64 254.5 117.28C265.94 104.92 274.66 88.13 279.07 66.8L236.69 71.24L234.35 48.38Z" fill="#E19525"/>
<path fill-rule="evenodd" clip-rule="evenodd" d="M234.35 48.38L266.64 45C266.62 46.34 266.59 47.69 266.54 49.04C266.31 55.56 265.76 61.99 264.91 68.29L236.68 71.25L234.35 48.38ZM221.93 162.96C214.64 164.98 207.13 166.23 199.52 166.72L198.08 143.77C216.75 142.57 234.6 135.61 248.95 122.75C241.73 138 232.57 151.6 221.93 162.96Z" fill="#CF8A29"/>
<path fill-rule="evenodd" clip-rule="evenodd" d="M152.47 278.29C168.44 278.29 182.84 281.15 193.01 285.74H208.29V302.12C208.29 315.28 183.3 325.94 152.46 325.94C121.63 325.94 96.6301 315.27 96.6301 302.12V285.74H111.91C122.11 281.15 136.51 278.29 152.47 278.29Z" fill="#E19525"/>
<path fill-rule="evenodd" clip-rule="evenodd" d="M152.47 278.29C168.44 278.29 182.84 281.15 193.01 285.74H208.29V302.12C208.29 315.28 183.3 325.94 152.46 325.94C136.93 325.94 122.87 323.23 112.75 318.86C125.13 322.89 145.89 322.96 158.53 320.29C177.45 316.29 178.92 313.04 156.55 313.67C143.24 314.05 128.82 309.81 121.06 305.44L123.23 281.82C131.74 279.58 141.76 278.29 152.47 278.29Z" fill="#CA862A"/>
<path fill-rule="evenodd" clip-rule="evenodd" d="M152.47 309.56C183.22 309.56 208.3 298.86 208.3 285.74C208.3 272.62 183.22 261.92 152.47 261.92C121.72 261.92 96.6401 272.62 96.6401 285.74C96.6401 298.86 121.73 309.56 152.47 309.56Z" fill="#F4A51D"/>
<path fill-rule="evenodd" clip-rule="evenodd" d="M170.7 263.21C192.58 266.43 208.3 275.3 208.3 285.73C208.3 298.89 183.31 309.55 152.47 309.55C140.83 309.55 130.01 308.03 121.07 305.43C153.76 312.24 183.3 295.07 184.25 282.52C176.44 279.32 172.23 272.88 170.7 263.21Z" fill="#E19525"/>
<path fill-rule="evenodd" clip-rule="evenodd" d="M111.45 186.19C125.8 193.59 134.26 206.74 134.26 223V268.73L152.48 285.73L170.7 268.73V223C170.7 206.74 179.16 193.59 193.51 186.19L165.43 158.06H139.53L111.45 186.19Z" fill="#F4A51D"/>
<path fill-rule="evenodd" clip-rule="evenodd" d="M170.7 263.21V223C170.7 206.74 179.16 193.59 193.51 186.19L181.71 174.37L123.76 195.43C168.99 215.16 162.96 211.6 170.7 263.21Z" fill="#E19525"/>
<path fill-rule="evenodd" clip-rule="evenodd" d="M253.78 38.73C253.78 128.61 208.42 201.48 152.47 201.48C96.5202 201.48 51.1602 128.61 51.1602 38.73H253.78V38.73Z" fill="#FEBB12"/>
<path fill-rule="evenodd" clip-rule="evenodd" d="M253.78 38.73C253.78 128.61 208.42 201.48 152.47 201.48C148.66 201.48 144.89 201.13 141.18 200.47C167.54 195.47 185.47 180.96 197.92 160.25C205.97 146.85 206.5 131.5 199.4 117.57C192.29 103.65 179.55 95.07 163.97 93.73C128.72 90.7 95.51 79.95 65.22 58.32L201.52 38.74H253.78V38.73Z" fill="#F4A51D"/>
<path d="M152.47 77.23C208.422 77.23 253.78 59.9929 253.78 38.73C253.78 17.467 208.422 0.22998 152.47 0.22998C96.5182 0.22998 51.1602 17.467 51.1602 38.73C51.1602 59.9929 96.5182 77.23 152.47 77.23Z" fill="#FEDD30"/>
<path fill-rule="evenodd" clip-rule="evenodd" d="M152.47 65.86C197.14 65.86 233.57 52.9 233.57 37.02C233.57 21.13 197.14 8.17999 152.47 8.17999C107.8 8.17999 71.3701 21.14 71.3701 37.02C71.3801 52.91 107.81 65.86 152.47 65.86Z" fill="#F4A51D"/>
<path fill-rule="evenodd" clip-rule="evenodd" d="M152.47 8.17999C161.19 8.17999 169.59 8.66999 177.46 9.57999C138.8 12.81 108.59 34.31 106.59 60.81C85.3201 55.61 71.3701 46.9 71.3701 37.02C71.3801 21.09 107.69 8.17999 152.47 8.17999Z" fill="#E69A24"/>
<path fill-rule="evenodd" clip-rule="evenodd" d="M68.01 87.44C71.79 88.58 75.53 89.69 79.25 90.67C82.92 91.64 86.58 92.48 90.21 93.28C90.17 97.55 90.26 101.88 90.74 106.25C91.23 110.69 92.15 115.15 93.16 119.67C89.76 119.07 86.32 118.45 82.87 117.71C79.38 116.96 75.88 116.1 72.35 115.23C71.01 110.47 69.81 105.77 69.08 101.09C68.37 96.48 68.13 91.93 68.01 87.44ZM105.33 95.97C108.86 96.45 112.39 96.92 115.93 97.28C119.45 97.64 122.98 97.92 126.52 98.18C126.23 102.1 126.03 106.06 126.13 110.05C126.23 114.09 126.64 118.15 127.12 122.25C123.81 122.21 120.51 122.15 117.22 122.02C113.92 121.89 110.63 121.66 107.33 121.42C106.53 117.08 105.83 112.77 105.49 108.5C105.16 104.27 105.2 100.09 105.33 95.97ZM128.41 130.19C129.59 135.68 130.88 141.21 132.5 146.68C134.13 152.18 136.05 157.62 137.99 163.04C135.52 163.4 133.07 163.76 130.64 164.06C128.2 164.37 125.76 164.6 123.3 164.79C120.49 159.03 117.73 153.27 115.36 147.39C113.01 141.58 111.11 135.69 109.35 129.84C112.53 130.01 115.71 130.14 118.88 130.19C122.03 130.23 125.22 130.22 128.41 130.19ZM112.72 164.84C109.31 158.85 105.96 152.85 103.06 146.73C100.2 140.68 97.86 134.53 95.7 128.44C92.41 127.92 89.1 127.36 85.77 126.7C82.41 126.04 79.02 125.27 75.62 124.5C78.35 130.94 81.33 137.48 84.9 143.86C88.55 150.38 92.75 156.7 97.03 163.04C99.69 163.42 102.34 163.8 104.96 164.11C107.57 164.41 110.15 164.64 112.72 164.84Z" fill="#FEDD30"/>
<path fill-rule="evenodd" clip-rule="evenodd" d="M253.78 38.73C253.78 50.15 243.74 60.34 224.72 67.57C206.2 74.61 180.66 78.96 152.48 78.96C124.3 78.96 98.7599 74.61 80.2399 67.57C61.2199 60.34 51.1699 50.15 51.1699 38.73C51.1699 48.57 63.8099 57.64 81.4499 64.34C99.5999 71.24 124.71 75.5 152.48 75.5C180.25 75.5 205.36 71.23 223.51 64.34C241.14 57.64 253.78 48.57 253.78 38.73Z" fill="#FEF6BB"/>
<path fill-rule="evenodd" clip-rule="evenodd" d="M15.81 472.35H289.14L297.65 340.43H7.30005L15.81 472.35Z" fill="#57260E"/>
<path fill-rule="evenodd" clip-rule="evenodd" d="M154.68 366.4C159.38 366.4 163.91 367.1 168.14 368.38V363.84C168.14 363.24 167.91 362.69 167.52 362.27L166.57 364.73L154.13 364.6L141.69 364.73L140.77 362.35C140.43 362.76 140.22 363.28 140.22 363.84V368.69C144.75 367.21 149.62 366.4 154.68 366.4ZM175.97 340.43L168.5 359.76C169.83 360.63 170.71 362.14 170.71 363.84V369.24C186.61 375.12 197.85 389.48 197.85 406.27C197.85 407.88 197.74 409.47 197.54 411.03C197.74 412.59 197.85 414.18 197.85 415.78C197.85 437.8 178.52 455.65 154.69 455.65C130.85 455.65 111.53 437.8 111.53 415.78C111.53 414.17 111.64 412.58 111.84 411.03C111.64 409.47 111.53 407.88 111.53 406.27C111.53 389.83 122.3 375.72 137.67 369.62V363.84C137.67 362.17 138.52 360.7 139.8 359.82L132.31 340.44H175.97V340.43Z" fill="#32190E"/>
<path fill-rule="evenodd" clip-rule="evenodd" d="M152.47 446.13C176.24 446.13 195.63 428.22 195.63 406.26C195.63 384.3 176.24 366.39 152.47 366.39C128.7 366.39 109.31 384.3 109.31 406.26C109.31 428.23 128.7 446.13 152.47 446.13Z" fill="#F4A51D"/>
<path fill-rule="evenodd" clip-rule="evenodd" d="M152.47 455.64C176.24 455.64 195.63 437.73 195.63 415.77C195.63 393.81 176.24 375.9 152.47 375.9C128.7 375.9 109.31 393.81 109.31 415.77C109.31 437.73 128.7 455.64 152.47 455.64Z" fill="#FEDD30"/>
<path fill-rule="evenodd" clip-rule="evenodd" d="M152.47 450.96C173.45 450.96 190.56 435.16 190.56 415.78C190.56 396.4 173.45 380.59 152.47 380.59C131.49 380.59 114.38 396.4 114.38 415.78C114.38 435.16 131.49 450.96 152.47 450.96Z" fill="#F4A51D"/>
<path d="M160.15 393.71H144.79V435.41H160.15V393.71Z" fill="#E19525"/>
<path d="M160.15 394.93H144.79V436.63H160.15V394.93Z" fill="#FEDD30"/>
<path fill-rule="evenodd" clip-rule="evenodd" d="M138.02 369.08H165.94V363.84C165.94 362.57 164.89 361.52 163.62 361.52H140.33C139.06 361.52 138.01 362.57 138.01 363.84V369.08H138.02ZM140.33 358.96H163.62C166.3 358.96 168.5 361.15 168.5 363.84V371.64H135.46V363.84C135.46 361.16 137.65 358.96 140.33 358.96Z" fill="#F4A51D"/>
<path fill-rule="evenodd" clip-rule="evenodd" d="M102.29 268.5L119.85 253.38L164.37 364.47L139.49 364.72L102.29 268.5Z" fill="#EA4E24"/>
<path fill-rule="evenodd" clip-rule="evenodd" d="M201.57 268.5L184.01 253.38L139.49 364.47L164.37 364.72L201.57 268.5Z" fill="#EA4E24"/>
</svg>
