<svg width="275" height="83" viewBox="0 0 275 83" fill="none" xmlns="http://www.w3.org/2000/svg">
<path d="M150.142 33.658L148.153 29.6606H135.271L133.283 33.658H127.417L138.829 12.292H144.845L156.258 33.658H150.142ZM137.29 25.5933H146.144L141.717 16.6192L137.29 25.5933Z" fill="white"/>
<path d="M159.606 27.0623H164.822V27.8918C164.822 29.141 165.282 29.6007 166.531 29.6007H177.364C178.613 29.6007 179.073 29.141 179.073 27.8918V26.9424C179.073 25.6932 178.673 25.3534 177.364 25.2335L164.482 24.3741C161.274 24.1342 159.905 22.8751 159.905 19.7971V16.869C159.905 13.6911 161.344 12.292 164.482 12.292H179.473C182.62 12.292 184.049 13.7011 184.049 16.869V18.5179H178.833V18.0582C178.833 16.809 178.373 16.3493 177.124 16.3493H167.021C165.771 16.3493 165.312 16.809 165.312 18.0582V18.458C165.312 19.7071 165.711 20.0769 167.021 20.1668L179.902 21.0263C183.11 21.2361 184.479 22.4653 184.479 25.6033V29.081C184.479 32.2589 183.04 33.658 179.902 33.658H164.182C161.035 33.658 159.606 32.2489 159.606 29.081V27.0623Z" fill="white"/>
<path d="M214.53 12.282L203.727 25.8031V33.648H198.35V25.8031L187.547 12.282H194.053L201.198 21.6559L208.314 12.282H214.53Z" fill="white"/>
<path d="M239.004 12.282H244.19V33.648H239.853L224.223 18.9976V33.648H219.037V12.282H223.614L239.004 26.7225V12.282Z" fill="white"/>
<path d="M256.252 33.658C252.225 33.658 250.326 31.7992 250.326 27.7319V18.2081C250.326 14.1508 252.215 12.282 256.252 12.282H269.074C273.101 12.282 275 14.1408 275 18.2081V20.7065H269.813V19.1775C269.813 17.3187 269.174 16.6791 267.315 16.6791H258.221C256.392 16.6791 255.723 17.3187 255.723 19.1775V26.7525C255.723 28.6113 256.392 29.2609 258.221 29.2609H267.315C269.174 29.2609 269.813 28.6213 269.813 26.7525V25.0137H275V27.7319C275 31.7892 273.111 33.658 269.074 33.658H256.252Z" fill="white"/>
<path d="M153.989 70.294H147.853L142.267 62.8489H134.512V70.294H129.135V48.928H147.753C151.511 48.928 153.06 50.457 153.06 54.2445V57.1726C153.06 60.8402 151.531 62.3892 147.993 62.4891L153.989 70.294ZM134.512 52.8254V59.0513H145.595C147.214 59.0513 147.703 58.5317 147.703 56.9127V54.954C147.703 53.3351 147.214 52.8154 145.595 52.8154H134.512V52.8254Z" fill="white"/>
<path d="M179.882 70.294L177.894 66.2966H165.012L163.023 70.294H157.157L168.57 48.928H174.586L186.008 70.294H179.882ZM167.031 62.2293H175.885L171.458 53.2551L167.031 62.2293Z" fill="white"/>
<path d="M195.112 70.294C191.085 70.294 189.186 68.4352 189.186 64.3679V54.8441C189.186 50.7868 191.075 48.918 195.112 48.918H207.934C211.961 48.918 213.86 50.7768 213.86 54.8441V57.3425H208.673V55.8135C208.673 53.9547 208.034 53.3151 206.175 53.3151H197.081C195.252 53.3151 194.583 53.9547 194.583 55.8135V63.3885C194.583 65.2473 195.252 65.8969 197.081 65.8969H206.175C208.034 65.8969 208.673 65.2573 208.673 63.3885V61.6496H213.86V64.3679C213.86 68.4252 211.971 70.294 207.934 70.294H195.112Z" fill="white"/>
<path d="M225.333 65.9568H242.002V70.294H219.926V48.928H241.692V53.2651H225.333V57.3225H240.473V61.2899H225.333V65.9568Z" fill="white"/>
<path d="M67.3658 0H67.0461H44.121L0 82.576H22.6451L30.3101 67.1261H80.0875L87.7525 82.576H111.467L67.3658 0ZM38.115 51.4363L52.1758 22.925H58.2618L72.3227 51.4363H38.115Z" fill="#FF9D03"/>
</svg>
