<svg width="37" height="36" viewBox="0 0 37 36" fill="none" xmlns="http://www.w3.org/2000/svg">
<path d="M18.4 34.07C27.1979 34.07 34.33 26.9379 34.33 18.14C34.33 9.34206 27.1979 2.20996 18.4 2.20996C9.60207 2.20996 2.46997 9.34206 2.46997 18.14C2.46997 26.9379 9.60207 34.07 18.4 34.07Z" fill="#0B1116"/>
<path d="M21.5001 7.84003L15.3501 1.88007L16.6701 0.52002L22.0901 7.23004L21.5001 7.84003Z" fill="#19242B"/>
<path d="M14.7001 29.6201L20.6601 35.77L22.0201 34.45L15.3101 29.02L14.7001 29.6201Z" fill="#19242B"/>
<path d="M8.09002 15.04L2.14002 21.1901L0.77002 19.8701L7.48002 14.4401L8.09002 15.04Z" fill="#19242B"/>
<path d="M29.87 21.84L36.02 15.8801L34.7 14.52L29.28 21.23L29.87 21.84Z" fill="#19242B"/>
<path d="M13.31 8.66003L4.73996 8.80005L4.70996 6.90002L13.29 7.81006L13.31 8.66003Z" fill="#19242B"/>
<path d="M23.8999 28.8701L32.4599 29.0101L32.4899 27.1101L23.9099 28.0201L23.8999 28.8701Z" fill="#19242B"/>
<path d="M8.92002 23.23L9.05002 31.79L7.15002 31.82L8.06002 23.25L8.92002 23.23Z" fill="#19242B"/>
<path d="M29.12 12.64L29.26 4.08002L27.36 4.05005L28.27 12.6301L29.12 12.64Z" fill="#19242B"/>
<path d="M17.4 7.42999L9.46997 4.21997L10.18 2.45996L17.72 6.63995L17.4 7.42999Z" fill="#19242B"/>
<path d="M19.2899 30.1699L27.1199 33.6299L27.8799 31.8899L19.6299 29.3899L19.2899 30.1699Z" fill="#19242B"/>
<path d="M7.67997 19.14L4.47997 27.08L2.71997 26.3701L6.88997 18.8201L7.67997 19.14Z" fill="#19242B"/>
<path d="M30.42 17.2601L33.88 9.43005L32.14 8.66003L29.64 16.91L30.42 17.2601Z" fill="#19242B"/>
<path d="M10.12 11.27L2.24 14.62L1.5 12.87L9.79 10.49L10.12 11.27Z" fill="#19242B"/>
<path d="M27.53 26.0199L35.51 22.9299L34.83 21.1599L27.22 25.2199L27.53 26.0199Z" fill="#19242B"/>
<path d="M11.53 26.4301L14.87 34.3101L13.12 35.05L10.74 26.7601L11.53 26.4301Z" fill="#19242B"/>
<path d="M26.27 9.02002L23.18 1.03003L21.41 1.72003L25.48 9.33002L26.27 9.02002Z" fill="#19242B"/>
<path d="M18.4001 26.96C23.2712 26.96 27.2201 23.0112 27.2201 18.14C27.2201 13.2689 23.2712 9.32007 18.4001 9.32007C13.5289 9.32007 9.58008 13.2689 9.58008 18.14C9.58008 23.0112 13.5289 26.96 18.4001 26.96Z" fill="black"/>
<path d="M18.4 25.4501C22.4372 25.4501 25.71 22.1773 25.71 18.1401C25.71 14.1029 22.4372 10.8301 18.4 10.8301C14.3628 10.8301 11.09 14.1029 11.09 18.1401C11.09 22.1773 14.3628 25.4501 18.4 25.4501Z" fill="#FFFFFB"/>
<path d="M18.4 21.6701C20.3496 21.6701 21.93 20.0896 21.93 18.1401C21.93 16.1905 20.3496 14.6101 18.4 14.6101C16.4504 14.6101 14.87 16.1905 14.87 18.1401C14.87 20.0896 16.4504 21.6701 18.4 21.6701Z" fill="#AFAFAF"/>
<path d="M18.4001 19.11C18.9358 19.11 19.3701 18.6757 19.3701 18.14C19.3701 17.6043 18.9358 17.17 18.4001 17.17C17.8643 17.17 17.4301 17.6043 17.4301 18.14C17.4301 18.6757 17.8643 19.11 18.4001 19.11Z" fill="#0B1116"/>
<path d="M19.1894 12.7105C19.1987 12.2853 18.8615 11.9331 18.4363 11.9239C18.0111 11.9147 17.659 12.2519 17.6498 12.6771C17.6405 13.1022 17.9777 13.4544 18.4029 13.4636C18.828 13.4728 19.1802 13.1356 19.1894 12.7105Z" fill="#0B1116"/>
<path d="M19.1601 23.5901C19.1601 24.0101 18.8201 24.3602 18.3901 24.3602C17.9701 24.3602 17.6201 24.0201 17.6201 23.5901C17.6201 23.1701 17.9601 22.8202 18.3901 22.8202C18.8201 22.8202 19.1601 23.1601 19.1601 23.5901Z" fill="#0B1116"/>
<path d="M23.8301 17.3801C23.4101 17.3801 23.0601 17.7201 23.0601 18.1501C23.0601 18.5801 23.4001 18.9201 23.8301 18.9201C24.2501 18.9201 24.6001 18.5801 24.6001 18.1501C24.6001 17.7201 24.2601 17.3801 23.8301 17.3801Z" fill="#0B1116"/>
<path d="M12.9601 18.9201C13.3853 18.9201 13.7301 18.5753 13.7301 18.1501C13.7301 17.7248 13.3853 17.3801 12.9601 17.3801C12.5348 17.3801 12.1901 17.7248 12.1901 18.1501C12.1901 18.5753 12.5348 18.9201 12.9601 18.9201Z" fill="#0B1116"/>
<path d="M22.2401 15.0701C22.6653 15.0701 23.0101 14.7253 23.0101 14.3C23.0101 13.8748 22.6653 13.53 22.2401 13.53C21.8148 13.53 21.4701 13.8748 21.4701 14.3C21.4701 14.7253 21.8148 15.0701 22.2401 15.0701Z" fill="#0B1116"/>
<path d="M15.09 22.5401C14.79 22.8401 14.31 22.8401 14.01 22.5401C13.71 22.2401 13.71 21.7601 14.01 21.4601C14.31 21.1601 14.79 21.1601 15.09 21.4601C15.39 21.7501 15.39 22.2401 15.09 22.5401Z" fill="#0B1116"/>
<path d="M22.78 21.4501C22.48 21.1501 22 21.1501 21.7 21.4501C21.4 21.7501 21.4 22.2301 21.7 22.5301C22 22.8301 22.48 22.8301 22.78 22.5301C23.08 22.2401 23.08 21.7501 22.78 21.4501Z" fill="#0B1116"/>
<path d="M15.09 13.7602C14.79 13.4602 14.31 13.4602 14.01 13.7602C13.71 14.0602 13.71 14.5401 14.01 14.8401C14.31 15.1401 14.79 15.1401 15.09 14.8401C15.39 14.5501 15.39 14.0602 15.09 13.7602Z" fill="#0B1116"/>
</svg>
