<svg width="115" height="35" viewBox="0 0 115 35" fill="none" xmlns="http://www.w3.org/2000/svg">
<path d="M108.16 13.5899C107.43 12.2499 106.02 11.4199 104.5 11.4199C104.45 11.4199 104.4 11.4199 104.35 11.4199L92.1601 11.8499L78.3701 12.3399H78.1401C78.0301 12.2199 77.9101 12.0899 77.7801 11.9599C77.7401 11.9099 77.7001 11.8699 77.6501 11.8199C77.5301 11.6899 77.3901 11.5499 77.2501 11.3999C76.4501 10.5599 75.4701 9.57993 74.3801 8.54993C73.5801 7.79993 72.7101 7.0299 71.8001 6.2699C71.0701 5.6599 70.3001 5.06994 69.5301 4.49994C69.3201 4.34994 69.1101 4.19993 68.9001 4.04993C68.1901 3.55993 67.4701 3.08993 66.7501 2.67993C66.4401 2.49993 66.1301 2.32992 65.8201 2.16992C65.5301 2.01992 65.2401 1.87993 64.9501 1.73993C64.5601 1.55993 64.1701 1.39995 63.7801 1.25995C63.7701 1.25995 63.7701 1.25995 63.7701 1.25995C63.3501 1.10995 62.9501 0.979944 62.5401 0.879944C62.0201 0.749944 61.5101 0.669944 61.0201 0.629944C59.7501 0.539944 58.5001 0.479941 57.2801 0.439941C56.6301 0.429941 55.9801 0.419922 55.3501 0.419922C50.3001 0.419922 45.7001 0.8999 41.5401 1.7099C40.2401 1.9599 38.9801 2.24994 37.7701 2.55994C37.6501 2.58994 37.5301 2.6199 37.4101 2.6499C37.1801 2.7099 36.9501 2.7699 36.7301 2.8299C35.3701 3.1999 34.0701 3.59991 32.8201 4.02991C31.1001 4.61991 29.4901 5.24991 27.9801 5.90991C23.1001 8.03991 19.3701 10.4299 16.8001 12.3499H4.10006C1.96006 12.3499 -0.389943 13.7899 0.230057 16.2199L2.16006 25.5499C2.87006 28.2099 3.92006 29.6899 6.19006 29.8399L10.0101 30.0799L10.8501 30.1299C12.0201 27.5799 13.8301 25.3799 16.2301 23.7999C18.3701 22.3899 20.7701 21.5999 23.2401 21.3899C23.3801 21.3699 23.5101 21.3699 23.6501 21.3599C27.9701 21.0999 32.5101 22.5699 36.3401 25.5099C37.0701 26.0699 37.7801 26.6799 38.4501 27.3399C39.5801 28.4499 40.6101 29.7099 41.5301 31.0999C42.2801 32.2299 42.9101 33.3999 43.4401 34.5999H76.9401C77.4601 33.4099 78.0901 32.2499 78.8401 31.1199C78.8401 31.1099 78.8501 31.1099 78.8501 31.0999C82.1901 26.0399 87.1101 22.7699 92.1601 21.7099C94.4601 21.2299 96.7801 21.1999 99.0001 21.6599C100.81 22.0399 102.56 22.7399 104.15 23.7999C106.2 25.1499 107.8 26.9399 108.96 29.0099L114.37 28.3099V15.2099L108.16 13.5899Z" fill="#FF9D03"/>
</svg>
