<svg width="89" height="105" viewBox="0 0 89 105" fill="none" xmlns="http://www.w3.org/2000/svg">
<path d="M0.810059 84L5.80005 86.18H48.54L43.62 84H0.810059Z" fill="#FF9D03"/>
<path d="M11.03 88.47L16.02 90.66H58.62L53.7 88.47H11.03Z" fill="#FF9D03"/>
<path d="M21.24 92.95L26.23 95.1299H68.7L63.77 92.95H21.24Z" fill="#FF9D03"/>
<path d="M31.45 97.4199L36.4399 99.5999H78.77L73.85 97.4199H31.45Z" fill="#FF9D03"/>
<path d="M41.67 101.89L46.66 104.08H88.85L83.9301 101.89H41.67Z" fill="#FF9D03"/>
<path d="M3.81006 19.8441H2.29004V75.9241H3.81006V19.8441Z" fill="white"/>
<path d="M1 81.9902V65.9935C1 64.8838 1.83918 64 2.89278 64H3.014C4.12355 64 5 64.9525 5 66.0917V82H1V81.9902Z" fill="white"/>
<path d="M5.88 7.93411C4.68 7.54411 3.48004 7.00412 2.29004 6.28412C2.29004 5.02412 2.29004 3.75414 2.29004 2.49414C3.49004 3.21414 4.69 3.75413 5.88 4.14413C5.88 5.40413 5.88 6.66411 5.88 7.93411Z" fill="white"/>
<path d="M5.88 15.5042C4.68 15.1142 3.48004 14.5742 2.29004 13.8542C2.29004 12.5942 2.29004 11.3242 2.29004 10.0642C3.49004 10.7842 4.69 11.3242 5.88 11.7142C5.88 12.9842 5.88 14.2442 5.88 15.5042Z" fill="white"/>
<path d="M5.88 11.7242C4.68 11.3342 3.48004 10.7942 2.29004 10.0742C2.29004 8.81416 2.29004 7.54418 2.29004 6.28418C3.49004 7.00418 4.69 7.54417 5.88 7.93417C5.88 9.19417 5.88 10.4542 5.88 11.7242Z" fill="#231F20"/>
<path d="M5.88 19.2941C4.68 18.9041 3.48004 18.3641 2.29004 17.6441C2.29004 16.3841 2.29004 15.1141 2.29004 13.8541C3.49004 14.5741 4.69 15.1142 5.88 15.5042C5.88 16.7742 5.88 18.0341 5.88 19.2941Z" fill="#231F20"/>
<path d="M5.88 23.0842C4.68 22.6942 3.48004 22.1542 2.29004 21.4342C2.29004 20.1742 2.29004 18.9042 2.29004 17.6442C3.49004 18.3642 4.69 18.9042 5.88 19.2942C5.88 20.5642 5.88 21.8242 5.88 23.0842Z" fill="white"/>
<path d="M5.88 26.8742C4.68 26.4842 3.48004 25.9442 2.29004 25.2242C2.29004 23.9642 2.29004 22.6942 2.29004 21.4342C3.49004 22.1542 4.69 22.6942 5.88 23.0842C5.88 24.3442 5.88 25.6142 5.88 26.8742Z" fill="#231F20"/>
<path d="M9.47998 23.8341C8.27998 23.7141 7.08001 23.4741 5.89001 23.0841C5.89001 24.3441 5.89001 25.6141 5.89001 26.8741C7.09001 27.2641 8.28998 27.5041 9.47998 27.6241C9.47998 26.3641 9.47998 25.0941 9.47998 23.8341Z" fill="white"/>
<path d="M9.47998 20.0442C8.27998 19.9242 7.08001 19.6842 5.89001 19.2942C5.89001 20.5542 5.89001 21.8242 5.89001 23.0842C7.09001 23.4742 8.28998 23.7142 9.47998 23.8342C9.47998 22.5742 9.47998 21.3142 9.47998 20.0442Z" fill="#231F20"/>
<path d="M9.47998 16.2542C8.27998 16.1342 7.08001 15.8942 5.89001 15.5042C5.89001 16.7642 5.89001 18.0341 5.89001 19.2941C7.09001 19.6841 8.28998 19.9241 9.47998 20.0441C9.47998 18.7841 9.47998 17.5242 9.47998 16.2542Z" fill="white"/>
<path d="M9.47998 8.68411C8.27998 8.56411 7.08001 8.32408 5.89001 7.93408C5.89001 9.19408 5.89001 10.4641 5.89001 11.7241C7.09001 12.1141 8.28998 12.3541 9.47998 12.4741C9.47998 11.2041 9.47998 9.94411 9.47998 8.68411Z" fill="white"/>
<path d="M9.47998 12.4741C8.27998 12.3541 7.08001 12.1141 5.89001 11.7241C5.89001 12.9841 5.89001 14.2541 5.89001 15.5141C7.09001 15.9041 8.28998 16.1441 9.47998 16.2641C9.47998 14.9941 9.47998 13.7341 9.47998 12.4741Z" fill="#231F20"/>
<path d="M9.47998 4.89417C8.27998 4.77417 7.08001 4.53417 5.89001 4.14417C5.89001 5.40417 5.89001 6.67414 5.89001 7.93414C7.09001 8.32414 8.28998 8.56417 9.47998 8.68417C9.47998 7.41417 9.47998 6.15417 9.47998 4.89417Z" fill="#231F20"/>
<path d="M13.0699 8.71414C11.8699 8.80414 10.67 8.80417 9.47998 8.68417C9.47998 7.42417 9.47998 6.15417 9.47998 4.89417C10.68 5.01417 11.8799 5.01416 13.0699 4.92416C13.0699 6.18416 13.0699 7.44414 13.0699 8.71414Z" fill="white"/>
<path d="M13.0699 16.2841C11.8699 16.3741 10.67 16.3742 9.47998 16.2542C9.47998 14.9942 9.47998 13.7241 9.47998 12.4641C10.68 12.5841 11.8799 12.5841 13.0699 12.4941C13.0699 13.7641 13.0699 15.0241 13.0699 16.2841Z" fill="white"/>
<path d="M13.0699 12.5042C11.8699 12.5942 10.67 12.5942 9.47998 12.4742C9.47998 11.2142 9.47998 9.9442 9.47998 8.6842C10.68 8.8042 11.8799 8.80417 13.0699 8.71417C13.0699 9.97417 13.0699 11.2342 13.0699 12.5042Z" fill="#231F20"/>
<path d="M13.0699 20.0741C11.8699 20.1641 10.67 20.1641 9.47998 20.0441C9.47998 18.7841 9.47998 17.5142 9.47998 16.2542C10.68 16.3742 11.8799 16.3741 13.0699 16.2841C13.0699 17.5541 13.0699 18.8141 13.0699 20.0741Z" fill="#231F20"/>
<path d="M13.0699 23.8642C11.8699 23.9542 10.67 23.9542 9.47998 23.8342C9.47998 22.5742 9.47998 21.3042 9.47998 20.0442C10.68 20.1642 11.8799 20.1642 13.0699 20.0742C13.0699 21.3442 13.0699 22.6042 13.0699 23.8642Z" fill="white"/>
<path d="M13.0699 27.6541C11.8699 27.7441 10.67 27.7441 9.47998 27.6241C9.47998 26.3641 9.47998 25.0941 9.47998 23.8341C10.68 23.9541 11.8799 23.9541 13.0699 23.8641C13.0699 25.1241 13.0699 26.3941 13.0699 27.6541Z" fill="#231F20"/>
<path d="M16.66 23.3541C15.46 23.5941 14.2599 23.7741 13.0699 23.8641C13.0699 25.1241 13.0699 26.3941 13.0699 27.6541C14.2699 27.5641 15.47 27.3841 16.66 27.1441C16.66 25.8841 16.66 24.6141 16.66 23.3541Z" fill="white"/>
<path d="M16.66 19.5642C15.46 19.8042 14.2599 19.9842 13.0699 20.0742C13.0699 21.3342 13.0699 22.6042 13.0699 23.8642C14.2699 23.7742 15.47 23.5942 16.66 23.3542C16.66 22.0942 16.66 20.8342 16.66 19.5642Z" fill="#231F20"/>
<path d="M16.66 15.7742C15.46 16.0142 14.2599 16.1942 13.0699 16.2842C13.0699 17.5442 13.0699 18.8142 13.0699 20.0742C14.2699 19.9842 15.47 19.8042 16.66 19.5642C16.66 18.3042 16.66 17.0442 16.66 15.7742Z" fill="white"/>
<path d="M16.66 8.2041C15.46 8.4441 14.2599 8.62408 13.0699 8.71408C13.0699 9.97408 13.0699 11.2441 13.0699 12.5041C14.2699 12.4141 15.47 12.2341 16.66 11.9941C16.66 10.7241 16.66 9.4641 16.66 8.2041Z" fill="white"/>
<path d="M16.66 11.9941C15.46 12.2341 14.2599 12.4142 13.0699 12.5042C13.0699 13.7642 13.0699 15.0341 13.0699 16.2941C14.2699 16.2041 15.47 16.0241 16.66 15.7841C16.66 14.5141 16.66 13.2541 16.66 11.9941Z" fill="#231F20"/>
<path d="M16.66 4.41418C15.46 4.65418 14.2599 4.83419 13.0699 4.92419C13.0699 6.18419 13.0699 7.45417 13.0699 8.71417C14.2699 8.62417 15.47 8.44419 16.66 8.20419C16.66 6.93419 16.66 5.67418 16.66 4.41418Z" fill="#231F20"/>
<path d="M20.25 7.3342C19.05 7.6642 17.85 7.96419 16.66 8.20419C16.66 6.94419 16.66 5.67418 16.66 4.41418C17.86 4.17418 19.06 3.87419 20.25 3.54419C20.25 4.80419 20.25 6.0642 20.25 7.3342Z" fill="white"/>
<path d="M20.25 14.9041C19.05 15.2341 17.85 15.5341 16.66 15.7741C16.66 14.5141 16.66 13.2441 16.66 11.9841C17.86 11.7441 19.06 11.4441 20.25 11.1141C20.25 12.3841 20.25 13.6441 20.25 14.9041Z" fill="white"/>
<path d="M20.25 11.1242C19.05 11.4542 17.85 11.7542 16.66 11.9942C16.66 10.7342 16.66 9.46422 16.66 8.20422C17.86 7.96422 19.06 7.66423 20.25 7.33423C20.25 8.59423 20.25 9.85424 20.25 11.1242Z" fill="#231F20"/>
<path d="M20.25 18.6942C19.05 19.0242 17.85 19.3242 16.66 19.5642C16.66 18.3042 16.66 17.0342 16.66 15.7742C17.86 15.5342 19.06 15.2342 20.25 14.9042C20.25 16.1742 20.25 17.4342 20.25 18.6942Z" fill="#231F20"/>
<path d="M20.25 22.4842C19.05 22.8142 17.85 23.1142 16.66 23.3542C16.66 22.0942 16.66 20.8242 16.66 19.5642C17.86 19.3242 19.06 19.0242 20.25 18.6942C20.25 19.9642 20.25 21.2242 20.25 22.4842Z" fill="white"/>
<path d="M20.25 26.2741C19.05 26.6041 17.85 26.9041 16.66 27.1441C16.66 25.8841 16.66 24.6141 16.66 23.3541C17.86 23.1141 19.06 22.8141 20.25 22.4841C20.25 23.7541 20.25 25.0141 20.25 26.2741Z" fill="#231F20"/>
<path d="M23.85 21.4342C22.65 21.7942 21.45 22.1542 20.26 22.4842C20.26 23.7442 20.26 25.0142 20.26 26.2742C21.46 25.9442 22.66 25.5842 23.85 25.2242C23.85 23.9642 23.85 22.7042 23.85 21.4342Z" fill="white"/>
<path d="M23.85 17.6442C22.65 18.0042 21.45 18.3642 20.26 18.6942C20.26 19.9542 20.26 21.2242 20.26 22.4842C21.46 22.1542 22.66 21.7942 23.85 21.4342C23.85 20.1742 23.85 18.9142 23.85 17.6442Z" fill="#231F20"/>
<path d="M23.85 13.8541C22.65 14.2141 21.45 14.5741 20.26 14.9041C20.26 16.1641 20.26 17.4342 20.26 18.6942C21.46 18.3642 22.66 18.0041 23.85 17.6441C23.85 16.3841 23.85 15.1241 23.85 13.8541Z" fill="white"/>
<path d="M23.85 6.28418C22.65 6.64418 21.45 7.0042 20.26 7.3342C20.26 8.5942 20.26 9.86421 20.26 11.1242C21.46 10.7942 22.66 10.4342 23.85 10.0742C23.85 8.80416 23.85 7.54418 23.85 6.28418Z" fill="white"/>
<path d="M23.85 10.0741C22.65 10.4341 21.45 10.7941 20.26 11.1241C20.26 12.3841 20.26 13.6541 20.26 14.9141C21.46 14.5841 22.66 14.2241 23.85 13.8641C23.85 12.5941 23.85 11.3341 23.85 10.0741Z" fill="#231F20"/>
<path d="M23.85 2.49414C22.65 2.85414 21.45 3.21413 20.26 3.54413C20.26 4.80413 20.26 6.07414 20.26 7.33414C21.46 7.00414 22.66 6.64412 23.85 6.28412C23.85 5.01412 23.85 3.75414 23.85 2.49414Z" fill="#231F20"/>
<path d="M27.4399 5.2341C26.2399 5.5641 25.04 5.92409 23.85 6.28409C23.85 5.02409 23.85 3.75411 23.85 2.49411C25.05 2.13411 26.2499 1.77409 27.4399 1.44409C27.4399 2.70409 27.4399 3.9641 27.4399 5.2341Z" fill="white"/>
<path d="M27.4399 12.8042C26.2399 13.1342 25.04 13.4942 23.85 13.8542C23.85 12.5942 23.85 11.3242 23.85 10.0642C25.05 9.70421 26.2499 9.34416 27.4399 9.01416C27.4399 10.2842 27.4399 11.5442 27.4399 12.8042Z" fill="white"/>
<path d="M27.4399 9.02411C26.2399 9.35411 25.04 9.7141 23.85 10.0741C23.85 8.8141 23.85 7.54412 23.85 6.28412C25.05 5.92412 26.2499 5.56413 27.4399 5.23413C27.4399 6.49413 27.4399 7.75411 27.4399 9.02411Z" fill="#231F20"/>
<path d="M27.4399 16.5942C26.2399 16.9242 25.04 17.2842 23.85 17.6442C23.85 16.3842 23.85 15.1142 23.85 13.8542C25.05 13.4942 26.2499 13.1342 27.4399 12.8042C27.4399 14.0742 27.4399 15.3342 27.4399 16.5942Z" fill="#231F20"/>
<path d="M27.4399 20.3842C26.2399 20.7142 25.04 21.0741 23.85 21.4341C23.85 20.1741 23.85 18.9041 23.85 17.6441C25.05 17.2841 26.2499 16.9241 27.4399 16.5941C27.4399 17.8641 27.4399 19.1242 27.4399 20.3842Z" fill="white"/>
<path d="M27.4399 24.1741C26.2399 24.5041 25.04 24.8641 23.85 25.2241C23.85 23.9641 23.85 22.6941 23.85 21.4341C25.05 21.0741 26.2499 20.7142 27.4399 20.3842C27.4399 21.6542 27.4399 22.9141 27.4399 24.1741Z" fill="#231F20"/>
<path d="M31.03 19.5142C29.83 19.7542 28.6299 20.0542 27.4399 20.3842C27.4399 21.6442 27.4399 22.9142 27.4399 24.1742C28.6399 23.8442 29.84 23.5442 31.03 23.3042C31.03 22.0442 31.03 20.7842 31.03 19.5142Z" fill="white"/>
<path d="M31.03 15.7241C29.83 15.9641 28.6299 16.2641 27.4399 16.5941C27.4399 17.8541 27.4399 19.1242 27.4399 20.3842C28.6399 20.0542 29.84 19.7541 31.03 19.5141C31.03 18.2541 31.03 16.9941 31.03 15.7241Z" fill="#231F20"/>
<path d="M31.03 11.9342C29.83 12.1742 28.6299 12.4742 27.4399 12.8042C27.4399 14.0642 27.4399 15.3342 27.4399 16.5942C28.6399 16.2642 29.84 15.9642 31.03 15.7242C31.03 14.4642 31.03 13.2042 31.03 11.9342Z" fill="white"/>
<path d="M31.03 4.36414C29.83 4.60414 28.6299 4.90413 27.4399 5.23413C27.4399 6.49413 27.4399 7.76411 27.4399 9.02411C28.6399 8.69411 29.84 8.39411 31.03 8.15411C31.03 6.88411 31.03 5.62414 31.03 4.36414Z" fill="white"/>
<path d="M31.03 8.15417C29.83 8.39417 28.6299 8.69417 27.4399 9.02417C27.4399 10.2842 27.4399 11.5542 27.4399 12.8142C28.6399 12.4842 29.84 12.1842 31.03 11.9442C31.03 10.6742 31.03 9.41417 31.03 8.15417Z" fill="#231F20"/>
<path d="M31.03 0.574219C29.83 0.814219 28.6299 1.11421 27.4399 1.44421C27.4399 2.70421 27.4399 3.97422 27.4399 5.23422C28.6399 4.90422 29.84 4.60423 31.03 4.36423C31.03 3.09423 31.03 1.83422 31.03 0.574219Z" fill="#231F20"/>
<path d="M34.62 3.85422C33.42 3.94422 32.22 4.12423 31.03 4.36423C31.03 3.10423 31.03 1.83422 31.03 0.574219C32.23 0.334219 33.43 0.154209 34.62 0.064209C34.62 1.32421 34.62 2.58422 34.62 3.85422Z" fill="white"/>
<path d="M34.62 11.4242C33.42 11.5142 32.22 11.6942 31.03 11.9342C31.03 10.6742 31.03 9.40417 31.03 8.14417C32.23 7.90417 33.43 7.72416 34.62 7.63416C34.62 8.90416 34.62 10.1642 34.62 11.4242Z" fill="white"/>
<path d="M34.62 7.64413C33.42 7.73413 32.22 7.91411 31.03 8.15411C31.03 6.89411 31.03 5.62414 31.03 4.36414C32.23 4.12414 33.43 3.94413 34.62 3.85413C34.62 5.11413 34.62 6.37413 34.62 7.64413Z" fill="#231F20"/>
<path d="M34.62 15.2142C33.42 15.3042 32.22 15.4842 31.03 15.7242C31.03 14.4642 31.03 13.1942 31.03 11.9342C32.23 11.6942 33.43 11.5142 34.62 11.4242C34.62 12.6942 34.62 13.9542 34.62 15.2142Z" fill="#231F20"/>
<path d="M34.62 19.0042C33.42 19.0942 32.22 19.2741 31.03 19.5141C31.03 18.2541 31.03 16.9841 31.03 15.7241C32.23 15.4841 33.43 15.3041 34.62 15.2141C34.62 16.4841 34.62 17.7442 34.62 19.0042Z" fill="white"/>
<path d="M34.62 22.7941C33.42 22.8841 32.22 23.0641 31.03 23.3041C31.03 22.0441 31.03 20.7741 31.03 19.5141C32.23 19.2741 33.43 19.0942 34.62 19.0042C34.62 20.2742 34.62 21.5341 34.62 22.7941Z" fill="#231F20"/>
<path d="M38.22 19.0342C37.02 18.9142 35.82 18.9142 34.63 19.0042C34.63 20.2642 34.63 21.5342 34.63 22.7942C35.83 22.7042 37.03 22.7042 38.22 22.8242C38.22 21.5642 38.22 20.3042 38.22 19.0342Z" fill="white"/>
<path d="M38.22 15.2442C37.02 15.1242 35.82 15.1242 34.63 15.2142C34.63 16.4742 34.63 17.7442 34.63 19.0042C35.83 18.9142 37.03 18.9142 38.22 19.0342C38.22 17.7742 38.22 16.5142 38.22 15.2442Z" fill="#231F20"/>
<path d="M38.22 11.4541C37.02 11.3341 35.82 11.3342 34.63 11.4242C34.63 12.6842 34.63 13.9541 34.63 15.2141C35.83 15.1241 37.03 15.1242 38.22 15.2442C38.22 13.9842 38.22 12.7241 38.22 11.4541Z" fill="white"/>
<path d="M38.22 3.88419C37.02 3.76419 35.82 3.76419 34.63 3.85419C34.63 5.11419 34.63 6.3842 34.63 7.6442C35.83 7.5542 37.03 7.5542 38.22 7.6742C38.22 6.4042 38.22 5.14419 38.22 3.88419Z" fill="white"/>
<path d="M38.22 7.67423C37.02 7.55423 35.82 7.55423 34.63 7.64423C34.63 8.90423 34.63 10.1742 34.63 11.4342C35.83 11.3442 37.03 11.3442 38.22 11.4642C38.22 10.1942 38.22 8.93423 38.22 7.67423Z" fill="#231F20"/>
<path d="M38.22 0.0941525C37.02 -0.0258475 35.82 -0.0258463 34.63 0.0641537C34.63 1.32415 34.63 2.59416 34.63 3.85416C35.83 3.76416 37.03 3.76416 38.22 3.88416C38.22 2.61416 38.22 1.35415 38.22 0.0941525Z" fill="#231F20"/>
<path d="M41.8101 4.63412C40.6101 4.24412 39.41 4.00412 38.22 3.88412C38.22 2.62412 38.22 1.35412 38.22 0.0941162C39.42 0.214116 40.6201 0.454116 41.8101 0.844116C41.8101 2.10412 41.8101 3.36412 41.8101 4.63412Z" fill="white"/>
<path d="M41.8101 12.2042C40.6101 11.8142 39.41 11.5742 38.22 11.4542C38.22 10.1942 38.22 8.92418 38.22 7.66418C39.42 7.78418 40.6201 8.02418 41.8101 8.41418C41.8101 9.68418 41.8101 10.9442 41.8101 12.2042Z" fill="white"/>
<path d="M41.8101 8.42416C40.6101 8.03416 39.41 7.79416 38.22 7.67416C38.22 6.41416 38.22 5.14416 38.22 3.88416C39.42 4.00416 40.6201 4.24416 41.8101 4.63416C41.8101 5.89416 41.8101 7.15416 41.8101 8.42416Z" fill="#231F20"/>
<path d="M41.8101 15.9941C40.6101 15.6041 39.41 15.3641 38.22 15.2441C38.22 13.9841 38.22 12.7141 38.22 11.4541C39.42 11.5741 40.6201 11.8141 41.8101 12.2041C41.8101 13.4741 41.8101 14.7341 41.8101 15.9941Z" fill="#231F20"/>
<path d="M41.8101 19.7841C40.6101 19.3941 39.41 19.1541 38.22 19.0341C38.22 17.7741 38.22 16.5041 38.22 15.2441C39.42 15.3641 40.6201 15.6041 41.8101 15.9941C41.8101 17.2641 41.8101 18.5241 41.8101 19.7841Z" fill="white"/>
<path d="M41.8101 23.5742C40.6101 23.1842 39.41 22.9442 38.22 22.8242C38.22 21.5642 38.22 20.2942 38.22 19.0342C39.42 19.1542 40.6201 19.3942 41.8101 19.7842C41.8101 21.0542 41.8101 22.3142 41.8101 23.5742Z" fill="#231F20"/>
<path d="M45.4 21.4342C44.2 20.7142 43.0001 20.1742 41.8101 19.7842C41.8101 21.0442 41.8101 22.3142 41.8101 23.5742C43.0101 23.9642 44.21 24.5042 45.4 25.2242C45.4 23.9642 45.4 22.7042 45.4 21.4342Z" fill="white"/>
<path d="M45.4 17.6441C44.2 16.9241 43.0001 16.3841 41.8101 15.9941C41.8101 17.2541 41.8101 18.5241 41.8101 19.7841C43.0101 20.1741 44.21 20.7141 45.4 21.4341C45.4 20.1741 45.4 18.9141 45.4 17.6441Z" fill="#231F20"/>
<path d="M45.4 13.8541C44.2 13.1341 43.0001 12.5941 41.8101 12.2041C41.8101 13.4641 41.8101 14.7341 41.8101 15.9941C43.0101 16.3841 44.21 16.9241 45.4 17.6441C45.4 16.3841 45.4 15.1241 45.4 13.8541Z" fill="white"/>
<path d="M45.4 6.28415C44.2 5.56415 43.0001 5.02416 41.8101 4.63416C41.8101 5.89416 41.8101 7.16416 41.8101 8.42416C43.0101 8.81416 44.21 9.35413 45.4 10.0741C45.4 8.80413 45.4 7.54415 45.4 6.28415Z" fill="white"/>
<path d="M45.4 10.0742C44.2 9.35416 43.0001 8.81419 41.8101 8.42419C41.8101 9.68419 41.8101 10.9542 41.8101 12.2142C43.0101 12.6042 44.21 13.1442 45.4 13.8642C45.4 12.5942 45.4 11.3342 45.4 10.0742Z" fill="#231F20"/>
<path d="M45.4 2.49414C44.2 1.77414 43.0001 1.23412 41.8101 0.844116C41.8101 2.10412 41.8101 3.37412 41.8101 4.63412C43.0101 5.02412 44.21 5.56412 45.4 6.28412C45.4 5.01412 45.4 3.75414 45.4 2.49414Z" fill="#231F20"/>
</svg>
