<svg width="1920" height="120" viewBox="0 0 1920 120" fill="none" xmlns="http://www.w3.org/2000/svg">
<g opacity="0.15">
<path d="M0.08 113.142L94.5 113.083L111.67 112.984L145.65 112.775L247.17 113.142V49.8163H240.24V59.0922H234.62V43.8108H216.52V57.6651H210.41V48.1613L203.2 48.191V38.935H201.75V37.8944H201.56V38.935H194.88V37.8944H194.69V38.935H193.35V59.6571H184.77V54.2065H180V51.9767H175.58V43.127H173.38V38.9945H173.05V43.127H167.76V35.3871H167.25V43.127H163.76V32.1168H162.72V30.9672H162.55V32.1168H154.83V30.9672H154.66V32.1168H153.26V36.0313L152.27 36.0413L152.28 25.2094H152.27H142.91H141.3C141.22 25.259 141.13 25.2887 141.05 25.3382V38.2115H134.21V49.7965H128.68V28.3708H127.48V26.8644H127.26V28.3708H122.9V26.8644H122.68V28.3708H116.5V26.8644H116.28V28.3708H112.39V26.8644H112.17V28.3708H110.57V48.3793H104.46V45.1388L97.25 45.1685V39.926H95.8V38.8855H95.61V39.926H90.05H88.94V38.8855H88.75V39.926H87.4V50.3614H78.82V54.1966H74.06V51.9668H69.64V46.5757H67.44V42.4432H67.11V46.5757H61.82V38.8359H61.31V46.5757H57.82V29.6789H56.78V28.5293H56.61V29.6789H48.89V28.5293H48.72V29.6789H47.32V39.48L46.33 39.49V32.7015H35.35C35.27 32.751 35.18 32.7808 35.1 32.8303V41.6603H23.61V54.0876H16.27V36.4971H15.07V34.9907H14.85V36.4971H10.49V34.9907H10.27V36.4971H4.1V34.9907H3.88V36.4971H0V48.3793L0.08 113.142Z" fill="#666666"/>
<path d="M247.26 113.142L341.68 113.083L358.85 112.984L392.83 112.775L494.35 113.142V49.7668H487.33V59.0922H481.8V43.8108H463.7V57.6651H457.59V48.1613L450.38 48.191V38.935H448.93V37.8944H448.74V38.935H442.06V37.8944H441.87V38.935H440.53V59.6571H431.95V54.2065H427.18V51.9767H422.76V43.127H420.56V38.9945H420.23V43.127H414.94V35.3871H414.43V43.127H410.94V32.1168H409.9V30.9672H409.73V32.1168H402.01V30.9672H401.84V32.1168H400.44V36.0313L399.45 36.0413L399.46 25.2094H399.45H390.09H388.48C388.4 25.259 388.31 25.2887 388.23 25.3382V38.2115H381.39V49.7965H375.86V28.3708H374.66V26.8644H374.44V28.3708H370.08V26.8644H369.86V28.3708H363.68V26.8644H363.46V28.3708H359.57V26.8644H359.35V28.3708H357.75V48.3793H351.64V45.1388L344.43 45.1685V39.926H342.98V38.8855H342.79V39.926H337.23H336.12V38.8855H335.93V39.926H334.58V50.3614H326V54.1966H321.24V51.9668H316.82V46.5757H314.62V42.4432H314.29V46.5757H309V38.8359H308.49V46.5757H305V29.6789H303.96V28.5293H303.79V29.6789H296.07V28.5293H295.9V29.6789H294.5V39.48L293.51 39.49V32.7015H282.54C282.46 32.751 282.37 32.7808 282.29 32.8303V41.6603H270.8V49.7866H265.27V36.4971H264.07V34.9907H263.85V36.4971H259.49V34.9907H259.27V36.4971H253.09V34.9907H252.87V36.4971H247.17V48.3793L247.26 113.142Z" fill="#666666"/>
<path d="M494.43 113.142L588.85 113.083L606.02 112.984L640 112.775L741.52 113.142V49.8163H734.59V59.0922H728.97V43.8108H710.87V57.6651H704.76V48.1613L697.55 48.191V38.935H696.1V37.8944H695.91V38.935H689.23V37.8944H689.04V38.935H687.7V59.6571H679.12V54.2065H674.35V51.9767H669.93V43.127H667.73V38.9945H667.4V43.127H662.11V35.3871H661.6V43.127H658.11V32.1168H657.07V30.9672H656.9V32.1168H649.18V30.9672H649.01V32.1168H647.61V36.0313L646.62 36.0413L646.63 25.2094H646.62H637.26H635.65C635.57 25.259 635.48 25.2887 635.4 25.3382V38.2115H628.56V49.7965H623.03V28.3708H621.83V26.8644H621.61V28.3708H617.25V26.8644H617.03V28.3708H610.85V26.8644H610.63V28.3708H606.74V26.8644H606.52V28.3708H604.92V48.3793H598.81V45.1388L591.6 45.1685V39.926H590.15V38.8855H589.96V39.926H584.4H583.29V38.8855H583.1V39.926H581.75V50.3614H573.17V54.1966H568.41V51.9668H564V46.5757H561.8V42.4432H561.47V46.5757H556.18V38.8359H555.67V46.5757H552.18V29.6789H551.14V28.5293H550.97V29.6789H543.25V28.5293H543.08V29.6789H541.68V39.48L540.69 39.49V32.7015H529.7C529.62 32.751 529.53 32.7808 529.45 32.8303V41.6603H517.96V54.0876H510.62V36.4971H509.42V34.9907H509.2V36.4971H504.84V34.9907H504.62V36.4971H498.44V34.9907H498.22V36.4971H494.34V48.3793L494.43 113.142Z" fill="#666666"/>
<path d="M741.61 113.142L836.03 113.083L853.2 112.984L887.18 112.775L988.7 113.142V49.7668H981.68V59.0922H976.15V43.8108H958.05V57.6651H951.94V48.1613L944.73 48.191V38.935H943.28V37.8944H943.09V38.935H936.41V37.8944H936.22V38.935H934.88V59.6571H926.3V54.2065H921.53V51.9767H917.11V43.127H914.91V38.9945H914.58V43.127H909.29V35.3871H908.78V43.127H905.29V32.1168H904.25V30.9672H904.08V32.1168H896.36V30.9672H896.19V32.1168H894.79V36.0313L893.8 36.0413L893.81 25.2094H893.8H884.44H882.83C882.75 25.259 882.66 25.2887 882.58 25.3382V38.2115H875.74V49.7965H870.21V28.3708H869.01V26.8644H868.79V28.3708H864.43V26.8644H864.21V28.3708H858.03V26.8644H857.81V28.3708H853.92V26.8644H853.7V28.3708H852.1V48.3793H846V45.1388L838.79 45.1685V39.926H837.34V38.8855H837.15V39.926H831.59H830.48V38.8855H830.29V39.926H828.94V50.3614H820.36V54.1966H815.6V51.9668H811.18V46.5757H808.98V42.4432H808.65V46.5757H803.36V38.8359H802.85V46.5757H799.36V29.6789H798.32V28.5293H798.15V29.6789H790.43V28.5293H790.26V29.6789H788.86V39.48L787.87 39.49V32.7015H776.9C776.82 32.751 776.73 32.7808 776.65 32.8303V41.6603H765.16V49.7866H759.63V36.4971H758.43V34.9907H758.21V36.4971H753.85V34.9907H753.63V36.4971H747.45V34.9907H747.23V36.4971H741.53V48.3793L741.61 113.142Z" fill="#666666"/>
<path d="M988.77 113.142L1083.19 113.083L1100.36 112.984L1134.34 112.775L1235.86 113.142V49.8163H1228.93V59.0922H1223.31V43.8108H1205.21V57.6651H1199.1V48.1613L1191.89 48.191V38.935H1190.44V37.8944H1190.25V38.935H1183.57V37.8944H1183.38V38.935H1182.04V59.6571H1173.46V54.2065H1168.69V51.9767H1164.27V43.127H1162.07V38.9945H1161.74V43.127H1156.45V35.3871H1155.94V43.127H1152.45V32.1168H1151.41V30.9672H1151.24V32.1168H1143.52V30.9672H1143.35V32.1168H1141.95V36.0313L1140.96 36.0413L1140.97 25.2094H1140.96H1131.6H1129.99C1129.91 25.259 1129.82 25.2887 1129.74 25.3382V38.2115H1122.9V49.7965H1117.37V28.3708H1116.17V26.8644H1115.95V28.3708H1111.59V26.8644H1111.37V28.3708H1105.19V26.8644H1104.97V28.3708H1101.08V26.8644H1100.86V28.3708H1099.26V48.3793H1093.15V45.1388L1085.94 45.1685V39.926H1084.49V38.8855H1084.3V39.926H1078.74H1077.63V38.8855H1077.44V39.926H1076.09V50.3614H1067.51V54.1966H1062.75V51.9668H1058.33V46.5757H1056.13V42.4432H1055.8V46.5757H1050.51V38.8359H1050V46.5757H1046.51V29.6789H1045.47V28.5293H1045.3V29.6789H1037.58V28.5293H1037.41V29.6789H1036.01V39.48L1035.02 39.49V32.7015H1024.05C1023.97 32.751 1023.88 32.7808 1023.8 32.8303V41.6603H1012.31V54.0876H1004.97V36.4971H1003.77V34.9907H1003.55V36.4971H999.19V34.9907H998.97V36.4971H992.79V34.9907H992.57V36.4971H988.69V48.3793L988.77 113.142Z" fill="#666666"/>
<path d="M1235.95 113.142L1330.37 113.083L1347.54 112.984L1381.52 112.775L1483.04 113.142V49.7668H1476.02V59.0922H1470.49V43.8108H1452.39V57.6651H1446.28V48.1613L1439.07 48.191V38.935H1437.62V37.8944H1437.43V38.935H1430.75V37.8944H1430.56V38.935H1429.22V59.6571H1420.64V54.2065H1415.87V51.9767H1411.45V43.127H1409.25V38.9945H1408.92V43.127H1403.63V35.3871H1403.12V43.127H1399.63V32.1168H1398.59V30.9672H1398.42V32.1168H1390.7V30.9672H1390.53V32.1168H1389.13V36.0313L1388.14 36.0413L1388.15 25.2094H1388.14H1378.78H1377.17C1377.09 25.259 1377 25.2887 1376.92 25.3382V38.2115H1370.08V49.7965H1364.55V28.3708H1363.35V26.8644H1363.13V28.3708H1358.77V26.8644H1358.55V28.3708H1352.37V26.8644H1352.15V28.3708H1348.26V26.8644H1348.04V28.3708H1346.44V48.3793H1340.33V45.1388L1333.12 45.1685V39.926H1331.67V38.8855H1331.48V39.926H1325.92H1324.81V38.8855H1324.62V39.926H1323.27V50.3614H1314.69V54.1966H1309.93V51.9668H1305.51V46.5757H1303.31V42.4432H1302.98V46.5757H1297.69V38.8359H1297.18V46.5757H1293.69V29.6789H1292.65V28.5293H1292.48V29.6789H1284.76V28.5293H1284.59V29.6789H1283.19V39.48L1282.2 39.49V32.7015H1271.23C1271.15 32.751 1271.06 32.7808 1270.98 32.8303V41.6603H1259.49V49.7866H1253.96V36.4971H1252.76V34.9907H1252.54V36.4971H1248.18V34.9907H1247.96V36.4971H1241.78V34.9907H1241.56V36.4971H1235.86V48.3793L1235.95 113.142Z" fill="#666666"/>
<path d="M817.21 119.009L733.71 118.959L718.53 118.87L688.48 118.692L588.85 119.009V53.8101H601.86V62.9967H609.79V49.4892H625.79V61.7382H631.2V58.8741L637.57 58.894V54.256H638.86V53.3443H639.03V54.256H644.94V53.3443H645.11V54.256H646.29V63.4922H653.88V66.8914H658.09V64.9193H662.01V57.0903H663.96V53.4335H664.26V57.0903H668.93V50.2424H669.39V57.0903H672.49V35.5358H673.41V34.5051H673.56V35.5358H680.39V34.5051H680.54V35.5358H681.78V50.8271H682.64V36.6952H692.35C692.43 36.725 692.5 36.7646 692.57 36.8042V52.7497H698.62V63.0067H703.5V44.0485H704.56V42.7206H704.75V44.0485H708.61V42.7206H708.8V44.0485H714.26V42.7206H714.45V44.0485H717.89V42.7206H718.08V44.0485H719.49V61.748H724.9V58.8841L731.27 58.9038V54.2659H732.56V53.3443H732.73V54.256H737.65H738.63V53.3443H738.8V54.256H739.98V63.4922H747.57V66.8914H751.78V64.9193H755.7V57.0903H757.65V53.4335H757.95V57.0903H762.63V50.2424H763.09V57.0903H766.19V43.6819H767.11V42.6512H767.26V43.6819H774.09V42.6512H774.24V43.6819H775.48V50.837H776.34H776.35H776.34V44.8513H784.63H786.05C786.13 44.881 786.2 44.9207 786.27 44.9603V52.7695H796.42V63.0265H801.3V53.8596H802.36V52.5316H802.55V53.8596H806.41V52.5316H806.6V53.8596H812.06V52.5316H812.25V53.8596H817.29V61.758L817.21 119.009Z" fill="#4D4D4D"/>
<path d="M228.36 119.009L144.86 118.959L129.68 118.87L99.63 118.692L0 119.009V53.8101H13.01V62.9967H20.94V49.4892H36.94V61.7382H42.35V58.8741L48.72 58.894V54.256H50.01V53.3443H50.18V54.256H56.09V53.3443H56.26V54.256H57.44V63.4922H65.03V66.8914H69.24V64.9193H73.16V57.0903H75.11V53.4335H75.41V57.0903H80.08V50.2424H80.54V57.0903H83.64V35.5358H84.56V34.5051H84.71V35.5358H91.54V34.5051H91.69V35.5358H92.93V50.8271H93.79V36.6952H103.5C103.58 36.725 103.65 36.7646 103.72 36.8042V52.7497H109.77V63.0067H114.65V44.0485H115.71V42.7206H115.9V44.0485H119.76V42.7206H119.95V44.0485H125.41V42.7206H125.6V44.0485H129.04V42.7206H129.23V44.0485H130.64V61.748H136.05V58.8841L142.42 58.9038V54.2659H143.71V53.3443H143.88V54.256H148.8H149.78V53.3443H149.95V54.256H151.13V63.4922H158.72V66.8914H162.93V64.9193H166.85V57.0903H168.8V53.4335H169.1V57.0903H173.78V50.2424H174.24V57.0903H177.34V43.6819H178.26V42.6512H178.41V43.6819H185.24V42.6512H185.39V43.6819H186.63V50.837H187.49H187.5H187.49V44.8513H195.78H197.2C197.28 44.881 197.35 44.9207 197.42 44.9603V52.7695H207.57V63.0265H212.45V53.8596H213.51V52.5316H213.7V53.8596H217.56V52.5316H217.75V53.8596H223.21V52.5316H223.4V53.8596H228.44V61.758L228.36 119.009Z" fill="#4D4D4D"/>
<path d="M446.88 119.009L363.38 118.959L348.2 118.87L318.15 118.692L228.36 119.009V54.7515H234.57V62.9967H239.45V49.4892H255.45V61.7382H260.86V58.8741L267.23 58.894V54.256H268.52V53.3443H268.69V54.256H274.6V53.3443H274.77V54.256H275.95V63.4922H283.54V66.8914H287.75V64.9193H291.67V57.0903H293.62V53.4335H293.92V57.0903H298.59V50.2424H299.05V57.0903H302.15V35.5358H303.07V34.5051H303.22V35.5358H310.05V34.5051H310.2V35.5358H311.44V50.8271H312.3V36.6952H322.01C322.09 36.725 322.16 36.7646 322.23 36.8042V52.7497H328.28V63.0067H333.16V44.0485H334.22V42.7206H334.41V44.0485H338.27V42.7206H338.46V44.0485H343.92V42.7206H344.11V44.0485H347.55V42.7206H347.74V44.0485H349.15V61.748H354.56V58.8841L360.93 58.9038V54.2659H362.22V53.3443H362.39V54.256H367.31H368.29V53.3443H368.46V54.256H369.64V63.4922H377.23V66.8914H381.44V64.9193H385.36V57.0903H387.31V53.4335H387.61V57.0903H392.29V50.2424H392.75V57.0903H395.85V43.6819H396.77V42.6512H396.92V43.6819H403.75V42.6512H403.9V43.6819H405.14V50.837H406H406.01H406V44.8513H414.29H415.71C415.79 44.881 415.86 44.9207 415.93 44.9603V52.7695H426.08V63.0265H430.96V53.8596H432.02V52.5316H432.21V53.8596H436.07V52.5316H436.26V53.8596H441.72V52.5316H441.91V53.8596H446.95V61.758L446.88 119.009Z" fill="#4D4D4D"/>
<path d="M1035.73 119.009L952.23 118.959L937.05 118.87L907 118.692L817.21 119.009V54.7515H823.42V62.9967H828.3V49.4892H844.3V61.7382H849.71V58.8741L856.08 58.894V54.256H857.37V53.3443H857.54V54.256H863.45V53.3443H863.62V54.256H864.8V63.4922H872.39V66.8914H876.6V64.9193H880.52V57.0903H882.47V53.4335H882.77V57.0903H887.44V50.2424H887.9V57.0903H891V35.5358H891.92V34.5051H892.07V35.5358H898.9V34.5051H899.05V35.5358H900.29V50.8271H901.15V36.6952H910.86C910.94 36.725 911.01 36.7646 911.08 36.8042V52.7497H917.13V63.0067H922V44.0485H923.06V42.7206H923.25V44.0485H927.11V42.7206H927.3V44.0485H932.76V42.7206H932.95V44.0485H936.39V42.7206H936.58V44.0485H938V61.748H943.41V58.8841L949.78 58.9038V54.2659H951.07V53.3443H951.24V54.256H956.16H957.14V53.3443H957.31V54.256H958.49V63.4922H966.08V66.8914H970.29V64.9193H974.21V57.0903H976.16V53.4335H976.46V57.0903H981.14V50.2424H981.6V57.0903H984.7V43.6819H985.62V42.6512H985.77V43.6819H992.6V42.6512H992.75V43.6819H993.99V50.837H994.85H994.86H994.85V44.8513H1003.14H1004.56C1004.64 44.881 1004.71 44.9207 1004.78 44.9603V52.7695H1014.93V63.0265H1019.81V53.8596H1020.87V52.5316H1021.06V53.8596H1024.92V52.5316H1025.11V53.8596H1030.57V52.5316H1030.76V53.8596H1035.8V61.758L1035.73 119.009Z" fill="#4D4D4D"/>
<path d="M665.48 119.009L581.98 118.959L566.8 118.87L536.75 118.692L446.96 119.009V59.9543H453.17V62.9967H458.05V49.4892H474.05V61.7382H479.46V58.8741L485.83 58.894V54.256H487.12V53.3443H487.29V54.256H493.2V53.3443H493.37V54.256H494.55V63.4922H502.14V66.8914H506.35V64.9193H510.27V57.0903H512.22V53.4335H512.52V57.0903H517.19V50.2424H517.65V57.0903H520.75V35.5358H521.67V34.5051H521.82V35.5358H528.65V34.5051H528.8V35.5358H530.04V50.8271H530.9V36.6952H540.61C540.69 36.725 540.76 36.7646 540.83 36.8042V52.7497H546.88V63.0067H551.76V44.0485H552.82V42.7206H553V44.0485H556.86V42.7206H557.05V44.0485H562.51V42.7206H562.7V44.0485H566.14V42.7206H566.33V44.0485H567.74V61.748H573.15V58.8841L579.52 58.9038V54.2659H580.81V53.3443H580.98V54.256H585.9H586.88V53.3443H587.05V54.256H588.23V63.4922H595.82V66.8914H600.03V64.9193H603.95V57.0903H605.9V53.4335H606.2V57.0903H610.88V50.2424H611.34V57.0903H614.44V43.6819H615.36V42.6512H615.51V43.6819H622.34V42.6512H622.49V43.6819H623.73V50.837H624.59H624.6H624.59V44.8513H632.88H634.3C634.38 44.881 634.45 44.9207 634.52 44.9603V52.7695H644.67V63.0265H649.55V53.8596H650.61V52.5316H650.8V53.8596H654.66V52.5316H654.85V53.8596H660.31V52.5316H660.5V53.8596H665.54V61.758L665.48 119.009Z" fill="#4D4D4D"/>
<path d="M1254.32 119.009L1170.82 118.959L1155.64 118.87L1125.59 118.692L1035.8 119.009V59.9543H1042.01V62.9967H1046.89V49.4892H1062.89V61.7382H1068.3V58.8741L1074.67 58.894V54.256H1075.96V53.3443H1076.13V54.256H1082.04V53.3443H1082.21V54.256H1083.39V63.4922H1090.98V66.8914H1095.19V64.9193H1099.11V57.0903H1101.06V53.4335H1101.36V57.0903H1106.03V50.2424H1106.49V57.0903H1109.59V35.5358H1110.51V34.5051H1110.66V35.5358H1117.49V34.5051H1117.64V35.5358H1118.88V50.8271H1119.74V36.6952H1129.45C1129.53 36.725 1129.6 36.7646 1129.67 36.8042V52.7497H1135.72V63.0067H1140.6V44.0485H1141.66V42.7206H1141.85V44.0485H1145.71V42.7206H1145.9V44.0485H1151.36V42.7206H1151.55V44.0485H1154.99V42.7206H1155.18V44.0485H1156.59V61.748H1162V58.8841L1168.37 58.9038V54.2659H1169.66V53.3443H1169.83V54.256H1174.75H1175.73V53.3443H1175.9V54.256H1177.08V63.4922H1184.67V66.8914H1188.88V64.9193H1192.8V57.0903H1194.75V53.4335H1195.05V57.0903H1199.73V50.2424H1200.19V57.0903H1203.29V43.6819H1204.21V42.6512H1204.36V43.6819H1211.19V42.6512H1211.34V43.6819H1212.58V50.837H1213.44H1213.45H1213.44V44.8513H1221.73H1223.15C1223.23 44.881 1223.3 44.9207 1223.37 44.9603V52.7695H1233.52V63.0265H1238.4V53.8596H1239.46V52.5316H1239.65V53.8596H1243.51V52.5316H1243.7V53.8596H1249.16V52.5316H1249.35V53.8596H1254.39V61.758L1254.32 119.009Z" fill="#4D4D4D"/>
<path d="M126.84 44.0486H114.63V47.0514H126.84V44.0486Z" fill="#1A1A1A"/>
<path d="M126.84 48.6667H114.63V51.6695H126.84V48.6667Z" fill="#1A1A1A"/>
<path d="M126.84 53.3741H114.63V56.3768H126.84V53.3741Z" fill="#1A1A1A"/>
<path d="M126.84 58.1606H114.63V61.1634H126.84V58.1606Z" fill="#1A1A1A"/>
<path d="M126.84 62.7887H114.63V65.7914H126.84V62.7887Z" fill="#1A1A1A"/>
<path d="M36.95 49.4893H24.74V52.4921H36.95V49.4893Z" fill="#1A1A1A"/>
<path d="M36.95 54.1074H24.74V57.1102H36.95V54.1074Z" fill="#1A1A1A"/>
<path d="M36.95 58.8148H24.74V61.8175H36.95V58.8148Z" fill="#1A1A1A"/>
<path d="M36.95 63.6112H24.74V66.614H36.95V63.6112Z" fill="#1A1A1A"/>
<path d="M183.03 43.6621H177.33V45.4757H183.03V43.6621Z" fill="#1A1A1A"/>
<path d="M183.03 46.4767H177.33V48.2903H183.03V46.4767Z" fill="#1A1A1A"/>
<path d="M183.03 49.3406H177.33V51.1541H183.03V49.3406Z" fill="#1A1A1A"/>
<path d="M183.03 52.2542H177.33V54.0677H183.03V52.2542Z" fill="#1A1A1A"/>
<path d="M183.03 55.0488H177.33V56.8623H183.03V55.0488Z" fill="#1A1A1A"/>
<path d="M193.56 44.8612H187.46V46.6748H193.56V44.8612Z" fill="#1A1A1A"/>
<path d="M193.56 47.6658H187.46V49.4794H193.56V47.6658Z" fill="#1A1A1A"/>
<path d="M193.56 50.5397H187.46V52.3532H193.56V50.5397Z" fill="#1A1A1A"/>
<path d="M193.56 53.4335H187.46V55.247H193.56V53.4335Z" fill="#1A1A1A"/>
<path d="M193.56 56.238H187.46V58.0516H193.56V56.238Z" fill="#1A1A1A"/>
<path d="M193.56 59.1715H187.46V60.9851H193.56V59.1715Z" fill="#1A1A1A"/>
<path d="M193.56 61.976H187.46V63.7896H193.56V61.976Z" fill="#1A1A1A"/>
<path d="M193.56 64.8402H187.46V66.6537H193.56V64.8402Z" fill="#1A1A1A"/>
<path d="M193.56 67.7438H187.46V69.5672H193.56V67.7438Z" fill="#1A1A1A"/>
<path d="M193.56 70.5483H187.46V72.3619H193.56V70.5483Z" fill="#1A1A1A"/>
<path d="M228.44 53.8497H217.32V56.8525H228.44V53.8497Z" fill="#1A1A1A"/>
<path d="M228.44 58.458H217.32V61.4608H228.44V58.458Z" fill="#1A1A1A"/>
<path d="M228.44 63.1751H217.32V66.1779H228.44V63.1751Z" fill="#1A1A1A"/>
<path d="M228.44 67.9518H217.32V70.9546H228.44V67.9518Z" fill="#1A1A1A"/>
<path d="M11.12 53.8497H0V56.8525H11.12V53.8497Z" fill="#1A1A1A"/>
<path d="M11.12 58.458H0V61.4608H11.12V58.458Z" fill="#1A1A1A"/>
<path d="M11.12 63.1751H0V66.1779H11.12V63.1751Z" fill="#1A1A1A"/>
<path d="M11.12 67.9518H0V70.9546H11.12V67.9518Z" fill="#1A1A1A"/>
<path d="M11.12 72.7385H0V75.7413H11.12V72.7385Z" fill="#1A1A1A"/>
<path d="M11.12 77.5152H0V80.5179H11.12V77.5152Z" fill="#1A1A1A"/>
<path d="M92.9 35.4961H86.8V37.3097H92.9V35.4961Z" fill="#1A1A1A"/>
<path d="M92.9 38.3107H86.8V40.1243H92.9V38.3107Z" fill="#1A1A1A"/>
<path d="M92.9 41.1746H86.8V42.9881H92.9V41.1746Z" fill="#1A1A1A"/>
<path d="M92.9 44.0883H86.8V45.9018H92.9V44.0883Z" fill="#1A1A1A"/>
<path d="M92.9 46.8829H86.8V48.6964H92.9V46.8829Z" fill="#1A1A1A"/>
<path d="M92.9 49.975H86.8V51.7885H92.9V49.975Z" fill="#1A1A1A"/>
<path d="M92.9 52.7795H86.8V54.5931H92.9V52.7795Z" fill="#1A1A1A"/>
<path d="M92.9 55.6336H86.8V57.4571H92.9V55.6336Z" fill="#1A1A1A"/>
<path d="M92.9 58.5472H86.8V60.3608H92.9V58.5472Z" fill="#1A1A1A"/>
<path d="M92.9 61.3518H86.8V63.1654H92.9V61.3518Z" fill="#1A1A1A"/>
<path d="M103.69 36.6953H96.75V38.5088H103.69V36.6953Z" fill="#1A1A1A"/>
<path d="M103.69 39.4999H96.75V41.3135H103.69V39.4999Z" fill="#1A1A1A"/>
<path d="M103.69 42.3738H96.75V44.1874H103.69V42.3738Z" fill="#1A1A1A"/>
<path d="M103.69 45.2676H96.75V47.0811H103.69V45.2676Z" fill="#1A1A1A"/>
<path d="M103.69 48.0721H96.75V49.8857H103.69V48.0721Z" fill="#1A1A1A"/>
<path d="M103.69 51.0056H96.75V52.8191H103.69V51.0056Z" fill="#1A1A1A"/>
<path d="M103.69 53.8101H96.75V55.6236H103.69V53.8101Z" fill="#1A1A1A"/>
<path d="M103.69 56.6742H96.75V58.4878H103.69V56.6742Z" fill="#1A1A1A"/>
<path d="M103.69 59.5779H96.75V61.4013H103.69V59.5779Z" fill="#1A1A1A"/>
<path d="M103.69 62.3824H96.75V64.196H103.69V62.3824Z" fill="#1A1A1A"/>
<path d="M103.69 65.6031H96.75V67.4167H103.69V65.6031Z" fill="#1A1A1A"/>
<path d="M103.69 68.3978H96.75V70.2113H103.69V68.3978Z" fill="#1A1A1A"/>
<path d="M103.69 71.262H96.75V73.0755H103.69V71.262Z" fill="#1A1A1A"/>
<path d="M103.69 74.1755H96.75V75.989H103.69V74.1755Z" fill="#1A1A1A"/>
<path d="M103.69 76.9801H96.75V78.7936H103.69V76.9801Z" fill="#1A1A1A"/>
<path d="M1919.92 119.009L1836.42 118.959L1821.24 118.87L1791.19 118.692L1691.56 119.009V53.8101H1704.57V62.9967H1712.5V49.4892H1728.5V61.7382H1733.91V58.8741L1740.28 58.894V54.256H1741.57V53.3443H1741.74V54.256H1747.65V53.3443H1747.82V54.256H1749V63.4922H1756.59V66.8914H1760.8V64.9193H1764.72V57.0903H1766.67V53.4335H1766.97V57.0903H1771.64V50.2424H1772.1V57.0903H1775.2V35.5358H1776.12V34.5051H1776.27V35.5358H1783.1V34.5051H1783.25V35.5358H1784.49V50.8271H1785.35V36.6952H1795.06C1795.14 36.725 1795.21 36.7646 1795.28 36.8042V52.7497H1801.33V63.0067H1806.21V44.0485H1807.27V42.7206H1807.46V44.0485H1811.32V42.7206H1811.51V44.0485H1816.97V42.7206H1817.16V44.0485H1820.6V42.7206H1820.79V44.0485H1822.2V61.748H1827.61V58.8841L1833.98 58.9038V54.2659H1835.27V53.3443H1835.44V54.256H1840.36H1841.34V53.3443H1841.51V54.256H1842.69V63.4922H1850.28V66.8914H1854.49V64.9193H1858.41V57.0903H1860.36V53.4335H1860.66V57.0903H1865.34V50.2424H1865.8V57.0903H1868.9V43.6819H1869.82V42.6512H1869.97V43.6819H1876.8V42.6512H1876.95V43.6819H1878.19V50.837H1879.05H1879.06H1879.05V44.8513H1887.34H1888.76C1888.84 44.881 1888.91 44.9207 1888.98 44.9603V52.7695H1899.13V63.0265H1904.01V53.8596H1905.07V52.5316H1905.26V53.8596H1909.12V52.5316H1909.31V53.8596H1914.77V52.5316H1914.96V53.8596H1920V61.758L1919.92 119.009Z" fill="#4D4D4D"/>
<path d="M1818.4 44.0486H1806.19V47.0514H1818.4V44.0486Z" fill="#1A1A1A"/>
<path d="M1818.4 48.6667H1806.19V51.6695H1818.4V48.6667Z" fill="#1A1A1A"/>
<path d="M1818.4 53.3741H1806.19V56.3768H1818.4V53.3741Z" fill="#1A1A1A"/>
<path d="M1818.4 58.1606H1806.19V61.1634H1818.4V58.1606Z" fill="#1A1A1A"/>
<path d="M1818.4 62.7887H1806.19V65.7914H1818.4V62.7887Z" fill="#1A1A1A"/>
<path d="M1728.51 49.4893H1716.3V52.4921H1728.51V49.4893Z" fill="#1A1A1A"/>
<path d="M1728.51 54.1074H1716.3V57.1102H1728.51V54.1074Z" fill="#1A1A1A"/>
<path d="M1728.51 58.8148H1716.3V61.8175H1728.51V58.8148Z" fill="#1A1A1A"/>
<path d="M1728.51 63.6112H1716.3V66.614H1728.51V63.6112Z" fill="#1A1A1A"/>
<path d="M1874.59 43.6621H1868.89V45.4757H1874.59V43.6621Z" fill="#1A1A1A"/>
<path d="M1874.59 46.4767H1868.89V48.2903H1874.59V46.4767Z" fill="#1A1A1A"/>
<path d="M1874.59 49.3406H1868.89V51.1541H1874.59V49.3406Z" fill="#1A1A1A"/>
<path d="M1874.59 52.2542H1868.89V54.0677H1874.59V52.2542Z" fill="#1A1A1A"/>
<path d="M1874.59 55.0488H1868.89V56.8623H1874.59V55.0488Z" fill="#1A1A1A"/>
<path d="M1885.12 44.8612H1879.02V46.6748H1885.12V44.8612Z" fill="#1A1A1A"/>
<path d="M1885.12 47.6658H1879.02V49.4794H1885.12V47.6658Z" fill="#1A1A1A"/>
<path d="M1885.12 50.5397H1879.02V52.3532H1885.12V50.5397Z" fill="#1A1A1A"/>
<path d="M1885.12 53.4335H1879.02V55.247H1885.12V53.4335Z" fill="#1A1A1A"/>
<path d="M1885.12 56.238H1879.02V58.0516H1885.12V56.238Z" fill="#1A1A1A"/>
<path d="M1885.12 59.1715H1879.02V60.9851H1885.12V59.1715Z" fill="#1A1A1A"/>
<path d="M1885.12 61.976H1879.02V63.7896H1885.12V61.976Z" fill="#1A1A1A"/>
<path d="M1885.12 64.8402H1879.02V66.6537H1885.12V64.8402Z" fill="#1A1A1A"/>
<path d="M1885.12 67.7438H1879.02V69.5672H1885.12V67.7438Z" fill="#1A1A1A"/>
<path d="M1885.12 70.5483H1879.02V72.3619H1885.12V70.5483Z" fill="#1A1A1A"/>
<path d="M1920 53.8497H1908.88V56.8525H1920V53.8497Z" fill="#1A1A1A"/>
<path d="M1920 58.458H1908.88V61.4608H1920V58.458Z" fill="#1A1A1A"/>
<path d="M1920 63.1751H1908.88V66.1779H1920V63.1751Z" fill="#1A1A1A"/>
<path d="M1920 67.9518H1908.88V70.9546H1920V67.9518Z" fill="#1A1A1A"/>
<path d="M1702.68 53.8497H1691.56V56.8525H1702.68V53.8497Z" fill="#1A1A1A"/>
<path d="M1702.68 58.458H1691.56V61.4608H1702.68V58.458Z" fill="#1A1A1A"/>
<path d="M1702.68 63.1751H1691.56V66.1779H1702.68V63.1751Z" fill="#1A1A1A"/>
<path d="M1702.68 67.9518H1691.56V70.9546H1702.68V67.9518Z" fill="#1A1A1A"/>
<path d="M1702.68 72.7385H1691.56V75.7413H1702.68V72.7385Z" fill="#1A1A1A"/>
<path d="M1702.68 77.5152H1691.56V80.5179H1702.68V77.5152Z" fill="#1A1A1A"/>
<path d="M1784.46 35.4961H1778.36V37.3097H1784.46V35.4961Z" fill="#1A1A1A"/>
<path d="M1784.46 38.3107H1778.36V40.1243H1784.46V38.3107Z" fill="#1A1A1A"/>
<path d="M1784.46 41.1746H1778.36V42.9881H1784.46V41.1746Z" fill="#1A1A1A"/>
<path d="M1784.46 44.0883H1778.36V45.9018H1784.46V44.0883Z" fill="#1A1A1A"/>
<path d="M1784.46 46.8829H1778.36V48.6964H1784.46V46.8829Z" fill="#1A1A1A"/>
<path d="M1784.46 49.975H1778.36V51.7885H1784.46V49.975Z" fill="#1A1A1A"/>
<path d="M1784.46 52.7795H1778.36V54.5931H1784.46V52.7795Z" fill="#1A1A1A"/>
<path d="M1784.46 55.6336H1778.36V57.4571H1784.46V55.6336Z" fill="#1A1A1A"/>
<path d="M1784.46 58.5472H1778.36V60.3608H1784.46V58.5472Z" fill="#1A1A1A"/>
<path d="M1784.46 61.3518H1778.36V63.1654H1784.46V61.3518Z" fill="#1A1A1A"/>
<path d="M1795.25 36.6953H1788.31V38.5088H1795.25V36.6953Z" fill="#1A1A1A"/>
<path d="M1795.25 39.4999H1788.31V41.3135H1795.25V39.4999Z" fill="#1A1A1A"/>
<path d="M1795.25 42.3738H1788.31V44.1874H1795.25V42.3738Z" fill="#1A1A1A"/>
<path d="M1795.25 45.2676H1788.31V47.0811H1795.25V45.2676Z" fill="#1A1A1A"/>
<path d="M1795.25 48.0721H1788.31V49.8857H1795.25V48.0721Z" fill="#1A1A1A"/>
<path d="M1795.25 51.0056H1788.31V52.8191H1795.25V51.0056Z" fill="#1A1A1A"/>
<path d="M1795.25 53.8101H1788.31V55.6236H1795.25V53.8101Z" fill="#1A1A1A"/>
<path d="M1795.25 56.6742H1788.31V58.4878H1795.25V56.6742Z" fill="#1A1A1A"/>
<path d="M1795.25 59.5779H1788.31V61.4013H1795.25V59.5779Z" fill="#1A1A1A"/>
<path d="M1795.25 62.3824H1788.31V64.196H1795.25V62.3824Z" fill="#1A1A1A"/>
<path d="M1795.25 65.6031H1788.31V67.4167H1795.25V65.6031Z" fill="#1A1A1A"/>
<path d="M1795.25 68.3978H1788.31V70.2113H1795.25V68.3978Z" fill="#1A1A1A"/>
<path d="M1795.25 71.262H1788.31V73.0755H1795.25V71.262Z" fill="#1A1A1A"/>
<path d="M1795.25 74.1755H1788.31V75.989H1795.25V74.1755Z" fill="#1A1A1A"/>
<path d="M1795.25 76.9801H1788.31V78.7936H1795.25V76.9801Z" fill="#1A1A1A"/>
<path d="M345.36 44.0486H333.15V47.0514H345.36V44.0486Z" fill="#1A1A1A"/>
<path d="M345.36 48.6667H333.15V51.6695H345.36V48.6667Z" fill="#1A1A1A"/>
<path d="M345.36 53.3741H333.15V56.3768H345.36V53.3741Z" fill="#1A1A1A"/>
<path d="M345.36 58.1606H333.15V61.1634H345.36V58.1606Z" fill="#1A1A1A"/>
<path d="M345.36 62.7887H333.15V65.7914H345.36V62.7887Z" fill="#1A1A1A"/>
<path d="M255.47 49.4893H243.26V52.4921H255.47V49.4893Z" fill="#1A1A1A"/>
<path d="M255.47 54.1074H243.26V57.1102H255.47V54.1074Z" fill="#1A1A1A"/>
<path d="M255.47 58.8148H243.26V61.8175H255.47V58.8148Z" fill="#1A1A1A"/>
<path d="M255.47 63.6112H243.26V66.614H255.47V63.6112Z" fill="#1A1A1A"/>
<path d="M401.55 43.6621H395.85V45.4757H401.55V43.6621Z" fill="#1A1A1A"/>
<path d="M401.55 46.4767H395.85V48.2903H401.55V46.4767Z" fill="#1A1A1A"/>
<path d="M401.55 49.3406H395.85V51.1541H401.55V49.3406Z" fill="#1A1A1A"/>
<path d="M401.55 52.2542H395.85V54.0677H401.55V52.2542Z" fill="#1A1A1A"/>
<path d="M401.55 55.0488H395.85V56.8623H401.55V55.0488Z" fill="#1A1A1A"/>
<path d="M412.08 44.8612H405.98V46.6748H412.08V44.8612Z" fill="#1A1A1A"/>
<path d="M412.08 47.6658H405.98V49.4794H412.08V47.6658Z" fill="#1A1A1A"/>
<path d="M412.08 50.5397H405.98V52.3532H412.08V50.5397Z" fill="#1A1A1A"/>
<path d="M412.08 53.4335H405.98V55.247H412.08V53.4335Z" fill="#1A1A1A"/>
<path d="M412.08 56.238H405.98V58.0516H412.08V56.238Z" fill="#1A1A1A"/>
<path d="M412.08 59.1715H405.98V60.9851H412.08V59.1715Z" fill="#1A1A1A"/>
<path d="M412.08 61.976H405.98V63.7896H412.08V61.976Z" fill="#1A1A1A"/>
<path d="M412.08 64.8402H405.98V66.6537H412.08V64.8402Z" fill="#1A1A1A"/>
<path d="M412.08 67.7438H405.98V69.5672H412.08V67.7438Z" fill="#1A1A1A"/>
<path d="M412.08 70.5483H405.98V72.3619H412.08V70.5483Z" fill="#1A1A1A"/>
<path d="M446.96 53.8497H435.84V56.8525H446.96V53.8497Z" fill="#1A1A1A"/>
<path d="M446.96 58.458H435.84V61.4608H446.96V58.458Z" fill="#1A1A1A"/>
<path d="M446.96 63.1751H435.84V66.1779H446.96V63.1751Z" fill="#1A1A1A"/>
<path d="M446.96 67.9518H435.84V70.9546H446.96V67.9518Z" fill="#1A1A1A"/>
<path d="M311.42 35.4961H305.32V37.3097H311.42V35.4961Z" fill="#1A1A1A"/>
<path d="M311.42 38.3107H305.32V40.1243H311.42V38.3107Z" fill="#1A1A1A"/>
<path d="M311.42 41.1746H305.32V42.9881H311.42V41.1746Z" fill="#1A1A1A"/>
<path d="M311.42 44.0883H305.32V45.9018H311.42V44.0883Z" fill="#1A1A1A"/>
<path d="M311.42 46.8829H305.32V48.6964H311.42V46.8829Z" fill="#1A1A1A"/>
<path d="M311.42 49.975H305.32V51.7885H311.42V49.975Z" fill="#1A1A1A"/>
<path d="M311.42 52.7795H305.32V54.5931H311.42V52.7795Z" fill="#1A1A1A"/>
<path d="M311.42 55.6336H305.32V57.4571H311.42V55.6336Z" fill="#1A1A1A"/>
<path d="M311.42 58.5472H305.32V60.3608H311.42V58.5472Z" fill="#1A1A1A"/>
<path d="M311.42 61.3518H305.32V63.1654H311.42V61.3518Z" fill="#1A1A1A"/>
<path d="M322.21 36.6953H315.27V38.5088H322.21V36.6953Z" fill="#1A1A1A"/>
<path d="M322.21 39.4999H315.27V41.3135H322.21V39.4999Z" fill="#1A1A1A"/>
<path d="M322.21 42.3738H315.27V44.1874H322.21V42.3738Z" fill="#1A1A1A"/>
<path d="M322.21 45.2676H315.27V47.0811H322.21V45.2676Z" fill="#1A1A1A"/>
<path d="M322.21 48.0721H315.27V49.8857H322.21V48.0721Z" fill="#1A1A1A"/>
<path d="M322.21 51.0056H315.27V52.8191H322.21V51.0056Z" fill="#1A1A1A"/>
<path d="M322.21 53.8101H315.27V55.6236H322.21V53.8101Z" fill="#1A1A1A"/>
<path d="M322.21 56.6742H315.27V58.4878H322.21V56.6742Z" fill="#1A1A1A"/>
<path d="M322.21 59.5779H315.27V61.4013H322.21V59.5779Z" fill="#1A1A1A"/>
<path d="M322.21 62.3824H315.27V64.196H322.21V62.3824Z" fill="#1A1A1A"/>
<path d="M322.21 65.6031H315.27V67.4167H322.21V65.6031Z" fill="#1A1A1A"/>
<path d="M322.21 68.3978H315.27V70.2113H322.21V68.3978Z" fill="#1A1A1A"/>
<path d="M322.21 71.262H315.27V73.0755H322.21V71.262Z" fill="#1A1A1A"/>
<path d="M322.21 74.1755H315.27V75.989H322.21V74.1755Z" fill="#1A1A1A"/>
<path d="M322.21 76.9801H315.27V78.7936H322.21V76.9801Z" fill="#1A1A1A"/>
<path d="M1691.48 119.009L1607.98 118.959L1592.8 118.87L1562.75 118.692L1472.96 119.009V54.7515H1479.17V62.9967H1484.05V49.4892H1500.05V61.7382H1505.46V58.8741L1511.83 58.894V54.256H1513.12V53.3443H1513.29V54.256H1519.2V53.3443H1519.37V54.256H1520.55V63.4922H1528.14V66.8914H1532.35V64.9193H1536.27V57.0903H1538.22V53.4335H1538.52V57.0903H1543.19V50.2424H1543.65V57.0903H1546.75V35.5358H1547.67V34.5051H1547.82V35.5358H1554.65V34.5051H1554.8V35.5358H1556.04V50.8271H1556.9V36.6952H1566.61C1566.69 36.725 1566.76 36.7646 1566.83 36.8042V52.7497H1572.88V63.0067H1577.76V44.0485H1578.82V42.7206H1579.01V44.0485H1582.87V42.7206H1583.06V44.0485H1588.52V42.7206H1588.71V44.0485H1592.15V42.7206H1592.34V44.0485H1593.75V61.748H1599.16V58.8841L1605.53 58.9038V54.2659H1606.82V53.3443H1606.99V54.256H1611.91H1612.89V53.3443H1613.06V54.256H1614.24V63.4922H1621.83V66.8914H1626.04V64.9193H1629.96V57.0903H1631.91V53.4335H1632.21V57.0903H1636.89V50.2424H1637.35V57.0903H1640.45V43.6819H1641.37V42.6512H1641.52V43.6819H1648.35V42.6512H1648.5V43.6819H1649.74V50.837H1650.6H1650.61H1650.6V44.8513H1658.89H1660.31C1660.39 44.881 1660.46 44.9207 1660.53 44.9603V52.7695H1670.68V63.0265H1675.56V53.8596H1676.62V52.5316H1676.81V53.8596H1680.67V52.5316H1680.86V53.8596H1686.32V52.5316H1686.51V53.8596H1691.55V61.758L1691.48 119.009Z" fill="#4D4D4D"/>
<path d="M1589.96 44.0486H1577.75V47.0514H1589.96V44.0486Z" fill="#1A1A1A"/>
<path d="M1589.96 48.6667H1577.75V51.6695H1589.96V48.6667Z" fill="#1A1A1A"/>
<path d="M1589.96 53.3741H1577.75V56.3768H1589.96V53.3741Z" fill="#1A1A1A"/>
<path d="M1589.96 58.1606H1577.75V61.1634H1589.96V58.1606Z" fill="#1A1A1A"/>
<path d="M1589.96 62.7887H1577.75V65.7914H1589.96V62.7887Z" fill="#1A1A1A"/>
<path d="M1500.07 49.4893H1487.86V52.4921H1500.07V49.4893Z" fill="#1A1A1A"/>
<path d="M1500.07 54.1074H1487.86V57.1102H1500.07V54.1074Z" fill="#1A1A1A"/>
<path d="M1500.07 58.8148H1487.86V61.8175H1500.07V58.8148Z" fill="#1A1A1A"/>
<path d="M1500.07 63.6112H1487.86V66.614H1500.07V63.6112Z" fill="#1A1A1A"/>
<path d="M1646.15 43.6621H1640.45V45.4757H1646.15V43.6621Z" fill="#1A1A1A"/>
<path d="M1646.15 46.4767H1640.45V48.2903H1646.15V46.4767Z" fill="#1A1A1A"/>
<path d="M1646.15 49.3406H1640.45V51.1541H1646.15V49.3406Z" fill="#1A1A1A"/>
<path d="M1646.15 52.2542H1640.45V54.0677H1646.15V52.2542Z" fill="#1A1A1A"/>
<path d="M1646.15 55.0488H1640.45V56.8623H1646.15V55.0488Z" fill="#1A1A1A"/>
<path d="M1656.68 44.8612H1650.58V46.6748H1656.68V44.8612Z" fill="#1A1A1A"/>
<path d="M1656.68 47.6658H1650.58V49.4794H1656.68V47.6658Z" fill="#1A1A1A"/>
<path d="M1656.68 50.5397H1650.58V52.3532H1656.68V50.5397Z" fill="#1A1A1A"/>
<path d="M1656.68 53.4335H1650.58V55.247H1656.68V53.4335Z" fill="#1A1A1A"/>
<path d="M1656.68 56.238H1650.58V58.0516H1656.68V56.238Z" fill="#1A1A1A"/>
<path d="M1656.68 59.1715H1650.58V60.9851H1656.68V59.1715Z" fill="#1A1A1A"/>
<path d="M1656.68 61.976H1650.58V63.7896H1656.68V61.976Z" fill="#1A1A1A"/>
<path d="M1656.68 64.8402H1650.58V66.6537H1656.68V64.8402Z" fill="#1A1A1A"/>
<path d="M1656.68 67.7438H1650.58V69.5672H1656.68V67.7438Z" fill="#1A1A1A"/>
<path d="M1656.68 70.5483H1650.58V72.3619H1656.68V70.5483Z" fill="#1A1A1A"/>
<path d="M1691.56 53.8497H1680.44V56.8525H1691.56V53.8497Z" fill="#1A1A1A"/>
<path d="M1691.56 58.458H1680.44V61.4608H1691.56V58.458Z" fill="#1A1A1A"/>
<path d="M1691.56 63.1751H1680.44V66.1779H1691.56V63.1751Z" fill="#1A1A1A"/>
<path d="M1691.56 67.9518H1680.44V70.9546H1691.56V67.9518Z" fill="#1A1A1A"/>
<path d="M1556.02 35.4961H1549.92V37.3097H1556.02V35.4961Z" fill="#1A1A1A"/>
<path d="M1556.02 38.3107H1549.92V40.1243H1556.02V38.3107Z" fill="#1A1A1A"/>
<path d="M1556.02 41.1746H1549.92V42.9881H1556.02V41.1746Z" fill="#1A1A1A"/>
<path d="M1556.02 44.0883H1549.92V45.9018H1556.02V44.0883Z" fill="#1A1A1A"/>
<path d="M1556.02 46.8829H1549.92V48.6964H1556.02V46.8829Z" fill="#1A1A1A"/>
<path d="M1556.02 49.975H1549.92V51.7885H1556.02V49.975Z" fill="#1A1A1A"/>
<path d="M1556.02 52.7795H1549.92V54.5931H1556.02V52.7795Z" fill="#1A1A1A"/>
<path d="M1556.02 55.6336H1549.92V57.4571H1556.02V55.6336Z" fill="#1A1A1A"/>
<path d="M1556.02 58.5472H1549.92V60.3608H1556.02V58.5472Z" fill="#1A1A1A"/>
<path d="M1556.02 61.3518H1549.92V63.1654H1556.02V61.3518Z" fill="#1A1A1A"/>
<path d="M1566.81 36.6953H1559.87V38.5088H1566.81V36.6953Z" fill="#1A1A1A"/>
<path d="M1566.81 39.4999H1559.87V41.3135H1566.81V39.4999Z" fill="#1A1A1A"/>
<path d="M1566.81 42.3738H1559.87V44.1874H1566.81V42.3738Z" fill="#1A1A1A"/>
<path d="M1566.81 45.2676H1559.87V47.0811H1566.81V45.2676Z" fill="#1A1A1A"/>
<path d="M1566.81 48.0721H1559.87V49.8857H1566.81V48.0721Z" fill="#1A1A1A"/>
<path d="M1566.81 51.0056H1559.87V52.8191H1566.81V51.0056Z" fill="#1A1A1A"/>
<path d="M1566.81 53.8101H1559.87V55.6236H1566.81V53.8101Z" fill="#1A1A1A"/>
<path d="M1566.81 56.6742H1559.87V58.4878H1566.81V56.6742Z" fill="#1A1A1A"/>
<path d="M1566.81 59.5779H1559.87V61.4013H1566.81V59.5779Z" fill="#1A1A1A"/>
<path d="M1566.81 62.3824H1559.87V64.196H1566.81V62.3824Z" fill="#1A1A1A"/>
<path d="M1566.81 65.6031H1559.87V67.4167H1566.81V65.6031Z" fill="#1A1A1A"/>
<path d="M1566.81 68.3978H1559.87V70.2113H1566.81V68.3978Z" fill="#1A1A1A"/>
<path d="M1566.81 71.262H1559.87V73.0755H1566.81V71.262Z" fill="#1A1A1A"/>
<path d="M1566.81 74.1755H1559.87V75.989H1566.81V74.1755Z" fill="#1A1A1A"/>
<path d="M1566.81 76.9801H1559.87V78.7936H1566.81V76.9801Z" fill="#1A1A1A"/>
<path d="M934.21 44.0486H922V47.0514H934.21V44.0486Z" fill="#1A1A1A"/>
<path d="M934.21 48.6667H922V51.6695H934.21V48.6667Z" fill="#1A1A1A"/>
<path d="M934.21 53.3741H922V56.3768H934.21V53.3741Z" fill="#1A1A1A"/>
<path d="M934.21 58.1606H922V61.1634H934.21V58.1606Z" fill="#1A1A1A"/>
<path d="M934.21 62.7887H922V65.7914H934.21V62.7887Z" fill="#1A1A1A"/>
<path d="M844.32 49.4893H832.11V52.4921H844.32V49.4893Z" fill="#1A1A1A"/>
<path d="M844.32 54.1074H832.11V57.1102H844.32V54.1074Z" fill="#1A1A1A"/>
<path d="M844.32 58.8148H832.11V61.8175H844.32V58.8148Z" fill="#1A1A1A"/>
<path d="M844.32 63.6112H832.11V66.614H844.32V63.6112Z" fill="#1A1A1A"/>
<path d="M990.39 43.6621H984.69V45.4757H990.39V43.6621Z" fill="#1A1A1A"/>
<path d="M990.39 46.4767H984.69V48.2903H990.39V46.4767Z" fill="#1A1A1A"/>
<path d="M990.39 49.3406H984.69V51.1541H990.39V49.3406Z" fill="#1A1A1A"/>
<path d="M990.39 52.2542H984.69V54.0677H990.39V52.2542Z" fill="#1A1A1A"/>
<path d="M990.39 55.0488H984.69V56.8623H990.39V55.0488Z" fill="#1A1A1A"/>
<path d="M1000.92 44.8612H994.82V46.6748H1000.92V44.8612Z" fill="#1A1A1A"/>
<path d="M1000.92 47.6658H994.82V49.4794H1000.92V47.6658Z" fill="#1A1A1A"/>
<path d="M1000.92 50.5397H994.82V52.3532H1000.92V50.5397Z" fill="#1A1A1A"/>
<path d="M1000.92 53.4335H994.82V55.247H1000.92V53.4335Z" fill="#1A1A1A"/>
<path d="M1000.92 56.238H994.82V58.0516H1000.92V56.238Z" fill="#1A1A1A"/>
<path d="M1000.92 59.1715H994.82V60.9851H1000.92V59.1715Z" fill="#1A1A1A"/>
<path d="M1000.92 61.976H994.82V63.7896H1000.92V61.976Z" fill="#1A1A1A"/>
<path d="M1000.92 64.8402H994.82V66.6537H1000.92V64.8402Z" fill="#1A1A1A"/>
<path d="M1000.92 67.7438H994.82V69.5672H1000.92V67.7438Z" fill="#1A1A1A"/>
<path d="M1000.92 70.5483H994.82V72.3619H1000.92V70.5483Z" fill="#1A1A1A"/>
<path d="M1035.81 53.8497H1024.69V56.8525H1035.81V53.8497Z" fill="#1A1A1A"/>
<path d="M1035.81 58.458H1024.69V61.4608H1035.81V58.458Z" fill="#1A1A1A"/>
<path d="M1035.81 63.1751H1024.69V66.1779H1035.81V63.1751Z" fill="#1A1A1A"/>
<path d="M1035.81 67.9518H1024.69V70.9546H1035.81V67.9518Z" fill="#1A1A1A"/>
<path d="M900.27 35.4961H894.17V37.3097H900.27V35.4961Z" fill="#1A1A1A"/>
<path d="M900.27 38.3107H894.17V40.1243H900.27V38.3107Z" fill="#1A1A1A"/>
<path d="M900.27 41.1746H894.17V42.9881H900.27V41.1746Z" fill="#1A1A1A"/>
<path d="M900.27 44.0883H894.17V45.9018H900.27V44.0883Z" fill="#1A1A1A"/>
<path d="M900.27 46.8829H894.17V48.6964H900.27V46.8829Z" fill="#1A1A1A"/>
<path d="M900.27 49.975H894.17V51.7885H900.27V49.975Z" fill="#1A1A1A"/>
<path d="M900.27 52.7795H894.17V54.5931H900.27V52.7795Z" fill="#1A1A1A"/>
<path d="M900.27 55.6336H894.17V57.4571H900.27V55.6336Z" fill="#1A1A1A"/>
<path d="M900.27 58.5472H894.17V60.3608H900.27V58.5472Z" fill="#1A1A1A"/>
<path d="M900.27 61.3518H894.17V63.1654H900.27V61.3518Z" fill="#1A1A1A"/>
<path d="M911.06 36.6953H904.12V38.5088H911.06V36.6953Z" fill="#1A1A1A"/>
<path d="M911.06 39.4999H904.12V41.3135H911.06V39.4999Z" fill="#1A1A1A"/>
<path d="M911.06 42.3738H904.12V44.1874H911.06V42.3738Z" fill="#1A1A1A"/>
<path d="M911.06 45.2676H904.12V47.0811H911.06V45.2676Z" fill="#1A1A1A"/>
<path d="M911.06 48.0721H904.12V49.8857H911.06V48.0721Z" fill="#1A1A1A"/>
<path d="M911.06 51.0056H904.12V52.8191H911.06V51.0056Z" fill="#1A1A1A"/>
<path d="M911.06 53.8101H904.12V55.6236H911.06V53.8101Z" fill="#1A1A1A"/>
<path d="M911.06 56.6742H904.12V58.4878H911.06V56.6742Z" fill="#1A1A1A"/>
<path d="M911.06 59.5779H904.12V61.4013H911.06V59.5779Z" fill="#1A1A1A"/>
<path d="M911.06 62.3824H904.12V64.196H911.06V62.3824Z" fill="#1A1A1A"/>
<path d="M911.06 65.6031H904.12V67.4167H911.06V65.6031Z" fill="#1A1A1A"/>
<path d="M911.06 68.3978H904.12V70.2113H911.06V68.3978Z" fill="#1A1A1A"/>
<path d="M911.06 71.262H904.12V73.0755H911.06V71.262Z" fill="#1A1A1A"/>
<path d="M911.06 74.1755H904.12V75.989H911.06V74.1755Z" fill="#1A1A1A"/>
<path d="M911.06 76.9801H904.12V78.7936H911.06V76.9801Z" fill="#1A1A1A"/>
<path d="M715.69 44.0486H703.48V47.0514H715.69V44.0486Z" fill="#1A1A1A"/>
<path d="M715.69 48.6667H703.48V51.6695H715.69V48.6667Z" fill="#1A1A1A"/>
<path d="M715.69 53.3741H703.48V56.3768H715.69V53.3741Z" fill="#1A1A1A"/>
<path d="M715.69 58.1606H703.48V61.1634H715.69V58.1606Z" fill="#1A1A1A"/>
<path d="M715.69 62.7887H703.48V65.7914H715.69V62.7887Z" fill="#1A1A1A"/>
<path d="M771.88 43.6621H766.18V45.4757H771.88V43.6621Z" fill="#1A1A1A"/>
<path d="M771.88 46.4767H766.18V48.2903H771.88V46.4767Z" fill="#1A1A1A"/>
<path d="M771.88 49.3406H766.18V51.1541H771.88V49.3406Z" fill="#1A1A1A"/>
<path d="M771.88 52.2542H766.18V54.0677H771.88V52.2542Z" fill="#1A1A1A"/>
<path d="M771.88 55.0488H766.18V56.8623H771.88V55.0488Z" fill="#1A1A1A"/>
<path d="M782.41 44.8612H776.31V46.6748H782.41V44.8612Z" fill="#1A1A1A"/>
<path d="M782.41 47.6658H776.31V49.4794H782.41V47.6658Z" fill="#1A1A1A"/>
<path d="M782.41 50.5397H776.31V52.3532H782.41V50.5397Z" fill="#1A1A1A"/>
<path d="M782.41 53.4335H776.31V55.247H782.41V53.4335Z" fill="#1A1A1A"/>
<path d="M782.41 56.238H776.31V58.0516H782.41V56.238Z" fill="#1A1A1A"/>
<path d="M782.41 59.1715H776.31V60.9851H782.41V59.1715Z" fill="#1A1A1A"/>
<path d="M782.41 61.976H776.31V63.7896H782.41V61.976Z" fill="#1A1A1A"/>
<path d="M782.41 64.8402H776.31V66.6537H782.41V64.8402Z" fill="#1A1A1A"/>
<path d="M782.41 67.7438H776.31V69.5672H782.41V67.7438Z" fill="#1A1A1A"/>
<path d="M782.41 70.5483H776.31V72.3619H782.41V70.5483Z" fill="#1A1A1A"/>
<path d="M817.29 53.8497H806.17V56.8525H817.29V53.8497Z" fill="#1A1A1A"/>
<path d="M817.29 58.458H806.17V61.4608H817.29V58.458Z" fill="#1A1A1A"/>
<path d="M817.29 63.1751H806.17V66.1779H817.29V63.1751Z" fill="#1A1A1A"/>
<path d="M817.29 67.9518H806.17V70.9546H817.29V67.9518Z" fill="#1A1A1A"/>
<path d="M681.75 35.4961H675.65V37.3097H681.75V35.4961Z" fill="#1A1A1A"/>
<path d="M681.75 38.3107H675.65V40.1243H681.75V38.3107Z" fill="#1A1A1A"/>
<path d="M681.75 41.1746H675.65V42.9881H681.75V41.1746Z" fill="#1A1A1A"/>
<path d="M681.75 44.0883H675.65V45.9018H681.75V44.0883Z" fill="#1A1A1A"/>
<path d="M681.75 46.8829H675.65V48.6964H681.75V46.8829Z" fill="#1A1A1A"/>
<path d="M681.75 49.975H675.65V51.7885H681.75V49.975Z" fill="#1A1A1A"/>
<path d="M681.75 52.7795H675.65V54.5931H681.75V52.7795Z" fill="#1A1A1A"/>
<path d="M681.75 55.6336H675.65V57.4571H681.75V55.6336Z" fill="#1A1A1A"/>
<path d="M681.75 58.5472H675.65V60.3608H681.75V58.5472Z" fill="#1A1A1A"/>
<path d="M681.75 61.3518H675.65V63.1654H681.75V61.3518Z" fill="#1A1A1A"/>
<path d="M692.54 36.6953H685.6V38.5088H692.54V36.6953Z" fill="#1A1A1A"/>
<path d="M692.54 39.4999H685.6V41.3135H692.54V39.4999Z" fill="#1A1A1A"/>
<path d="M692.54 42.3738H685.6V44.1874H692.54V42.3738Z" fill="#1A1A1A"/>
<path d="M692.54 45.2676H685.6V47.0811H692.54V45.2676Z" fill="#1A1A1A"/>
<path d="M692.54 48.0721H685.6V49.8857H692.54V48.0721Z" fill="#1A1A1A"/>
<path d="M692.54 51.0056H685.6V52.8191H692.54V51.0056Z" fill="#1A1A1A"/>
<path d="M692.54 53.8101H685.6V55.6236H692.54V53.8101Z" fill="#1A1A1A"/>
<path d="M692.54 56.6742H685.6V58.4878H692.54V56.6742Z" fill="#1A1A1A"/>
<path d="M692.54 59.5779H685.6V61.4013H692.54V59.5779Z" fill="#1A1A1A"/>
<path d="M692.54 62.3824H685.6V64.196H692.54V62.3824Z" fill="#1A1A1A"/>
<path d="M692.54 65.6031H685.6V67.4167H692.54V65.6031Z" fill="#1A1A1A"/>
<path d="M692.54 68.3978H685.6V70.2113H692.54V68.3978Z" fill="#1A1A1A"/>
<path d="M692.54 71.262H685.6V73.0755H692.54V71.262Z" fill="#1A1A1A"/>
<path d="M692.54 74.1755H685.6V75.989H692.54V74.1755Z" fill="#1A1A1A"/>
<path d="M692.54 76.9801H685.6V78.7936H692.54V76.9801Z" fill="#1A1A1A"/>
<path d="M1152.8 44.0486H1140.59V47.0514H1152.8V44.0486Z" fill="#1A1A1A"/>
<path d="M1152.8 48.6667H1140.59V51.6695H1152.8V48.6667Z" fill="#1A1A1A"/>
<path d="M1152.8 53.3741H1140.59V56.3768H1152.8V53.3741Z" fill="#1A1A1A"/>
<path d="M1152.8 58.1606H1140.59V61.1634H1152.8V58.1606Z" fill="#1A1A1A"/>
<path d="M1152.8 62.7887H1140.59V65.7914H1152.8V62.7887Z" fill="#1A1A1A"/>
<path d="M1059.11 49.4893H1046.9V52.4921H1059.11V49.4893Z" fill="#1A1A1A"/>
<path d="M1059.11 54.1074H1046.9V57.1102H1059.11V54.1074Z" fill="#1A1A1A"/>
<path d="M1059.11 58.8148H1046.9V61.8175H1059.11V58.8148Z" fill="#1A1A1A"/>
<path d="M1059.11 63.6112H1046.9V66.614H1059.11V63.6112Z" fill="#1A1A1A"/>
<path d="M1059.11 68.3087H1046.9V71.3115H1059.11V68.3087Z" fill="#1A1A1A"/>
<path d="M1059.11 73.1051H1046.9V76.1079H1059.11V73.1051Z" fill="#1A1A1A"/>
<path d="M1208.99 43.6621H1203.29V45.4757H1208.99V43.6621Z" fill="#1A1A1A"/>
<path d="M1208.99 46.4767H1203.29V48.2903H1208.99V46.4767Z" fill="#1A1A1A"/>
<path d="M1208.99 49.3406H1203.29V51.1541H1208.99V49.3406Z" fill="#1A1A1A"/>
<path d="M1208.99 52.2542H1203.29V54.0677H1208.99V52.2542Z" fill="#1A1A1A"/>
<path d="M1208.99 55.0488H1203.29V56.8623H1208.99V55.0488Z" fill="#1A1A1A"/>
<path d="M1219.52 44.8612H1213.42V46.6748H1219.52V44.8612Z" fill="#1A1A1A"/>
<path d="M1219.52 47.6658H1213.42V49.4794H1219.52V47.6658Z" fill="#1A1A1A"/>
<path d="M1219.52 50.5397H1213.42V52.3532H1219.52V50.5397Z" fill="#1A1A1A"/>
<path d="M1219.52 53.4335H1213.42V55.247H1219.52V53.4335Z" fill="#1A1A1A"/>
<path d="M1219.52 56.238H1213.42V58.0516H1219.52V56.238Z" fill="#1A1A1A"/>
<path d="M1219.52 59.1715H1213.42V60.9851H1219.52V59.1715Z" fill="#1A1A1A"/>
<path d="M1219.52 61.976H1213.42V63.7896H1219.52V61.976Z" fill="#1A1A1A"/>
<path d="M1219.52 64.8402H1213.42V66.6537H1219.52V64.8402Z" fill="#1A1A1A"/>
<path d="M1219.52 67.7438H1213.42V69.5672H1219.52V67.7438Z" fill="#1A1A1A"/>
<path d="M1219.52 70.5483H1213.42V72.3619H1219.52V70.5483Z" fill="#1A1A1A"/>
<path d="M1254.41 53.8497H1243.29V56.8525H1254.41V53.8497Z" fill="#1A1A1A"/>
<path d="M1254.41 58.458H1243.29V61.4608H1254.41V58.458Z" fill="#1A1A1A"/>
<path d="M1254.41 63.1751H1243.29V66.1779H1254.41V63.1751Z" fill="#1A1A1A"/>
<path d="M1254.41 67.9518H1243.29V70.9546H1254.41V67.9518Z" fill="#1A1A1A"/>
<path d="M1115.68 35.4961H1109.58V37.3097H1115.68V35.4961Z" fill="#1A1A1A"/>
<path d="M1115.68 38.3107H1109.58V40.1243H1115.68V38.3107Z" fill="#1A1A1A"/>
<path d="M1115.68 41.1746H1109.58V42.9881H1115.68V41.1746Z" fill="#1A1A1A"/>
<path d="M1115.68 44.0883H1109.58V45.9018H1115.68V44.0883Z" fill="#1A1A1A"/>
<path d="M1115.68 46.8829H1109.58V48.6964H1115.68V46.8829Z" fill="#1A1A1A"/>
<path d="M1115.68 49.975H1109.58V51.7885H1115.68V49.975Z" fill="#1A1A1A"/>
<path d="M1115.68 52.7795H1109.58V54.5931H1115.68V52.7795Z" fill="#1A1A1A"/>
<path d="M1115.68 55.6336H1109.58V57.4571H1115.68V55.6336Z" fill="#1A1A1A"/>
<path d="M1115.68 58.5472H1109.58V60.3608H1115.68V58.5472Z" fill="#1A1A1A"/>
<path d="M1115.68 61.3518H1109.58V63.1654H1115.68V61.3518Z" fill="#1A1A1A"/>
<path d="M1126.67 36.6953H1119.73V38.5088H1126.67V36.6953Z" fill="#1A1A1A"/>
<path d="M1126.67 39.4999H1119.73V41.3135H1126.67V39.4999Z" fill="#1A1A1A"/>
<path d="M1126.67 42.3738H1119.73V44.1874H1126.67V42.3738Z" fill="#1A1A1A"/>
<path d="M1126.67 45.2676H1119.73V47.0811H1126.67V45.2676Z" fill="#1A1A1A"/>
<path d="M1126.67 48.0721H1119.73V49.8857H1126.67V48.0721Z" fill="#1A1A1A"/>
<path d="M1126.67 51.0056H1119.73V52.8191H1126.67V51.0056Z" fill="#1A1A1A"/>
<path d="M1126.67 53.8101H1119.73V55.6236H1126.67V53.8101Z" fill="#1A1A1A"/>
<path d="M1126.67 56.6742H1119.73V58.4878H1126.67V56.6742Z" fill="#1A1A1A"/>
<path d="M1126.67 59.5779H1119.73V61.4013H1126.67V59.5779Z" fill="#1A1A1A"/>
<path d="M1126.67 62.3824H1119.73V64.196H1126.67V62.3824Z" fill="#1A1A1A"/>
<path d="M1126.67 65.6031H1119.73V67.4167H1126.67V65.6031Z" fill="#1A1A1A"/>
<path d="M1126.67 68.3978H1119.73V70.2113H1126.67V68.3978Z" fill="#1A1A1A"/>
<path d="M1126.67 71.262H1119.73V73.0755H1126.67V71.262Z" fill="#1A1A1A"/>
<path d="M1126.67 74.1755H1119.73V75.989H1126.67V74.1755Z" fill="#1A1A1A"/>
<path d="M1126.67 76.9801H1119.73V78.7936H1126.67V76.9801Z" fill="#1A1A1A"/>
<path d="M1472.88 119.009L1389.38 118.959L1374.2 118.87L1344.15 118.692L1254.36 119.009V59.9543H1260.57V62.9967H1265.45V49.4892H1281.45V61.7382H1286.86V58.8741L1293.23 58.894V54.256H1294.52V53.3443H1294.69V54.256H1300.6V53.3443H1300.77V54.256H1301.95V63.4922H1309.54V66.8914H1313.75V64.9193H1317.67V57.0903H1319.62V53.4335H1319.92V57.0903H1324.59V50.2424H1325.05V57.0903H1328.15V35.5358H1329.07V34.5051H1329.22V35.5358H1336.05V34.5051H1336.2V35.5358H1337.44V50.8271H1338.3V36.6952H1348.01C1348.09 36.725 1348.16 36.7646 1348.23 36.8042V52.7497H1354.28V63.0067H1359.16V44.0485H1360.22V42.7206H1360.41V44.0485H1364.27V42.7206H1364.46V44.0485H1369.92V42.7206H1370.11V44.0485H1373.55V42.7206H1373.74V44.0485H1375.15V61.748H1380.56V58.8841L1386.93 58.9038V54.2659H1388.22V53.3443H1388.39V54.256H1393.31H1394.29V53.3443H1394.46V54.256H1395.64V63.4922H1403.23V66.8914H1407.44V64.9193H1411.36V57.0903H1413.31V53.4335H1413.61V57.0903H1418.29V50.2424H1418.75V57.0903H1421.85V43.6819H1422.77V42.6512H1422.92V43.6819H1429.75V42.6512H1429.9V43.6819H1431.14V50.837H1432H1432.01H1432V44.8513H1440.29H1441.71C1441.79 44.881 1441.86 44.9207 1441.93 44.9603V52.7695H1452.08V63.0265H1456.96V53.8596H1458.02V52.5316H1458.21V53.8596H1462.07V52.5316H1462.26V53.8596H1467.72V52.5316H1467.91V53.8596H1472.95V61.758L1472.88 119.009Z" fill="#4D4D4D"/>
<path d="M1371.36 44.0486H1359.15V47.0514H1371.36V44.0486Z" fill="#1A1A1A"/>
<path d="M1371.36 48.6667H1359.15V51.6695H1371.36V48.6667Z" fill="#1A1A1A"/>
<path d="M1371.36 53.3741H1359.15V56.3768H1371.36V53.3741Z" fill="#1A1A1A"/>
<path d="M1371.36 58.1606H1359.15V61.1634H1371.36V58.1606Z" fill="#1A1A1A"/>
<path d="M1371.36 62.7887H1359.15V65.7914H1371.36V62.7887Z" fill="#1A1A1A"/>
<path d="M1277.67 49.4893H1265.46V52.4921H1277.67V49.4893Z" fill="#1A1A1A"/>
<path d="M1277.67 54.1074H1265.46V57.1102H1277.67V54.1074Z" fill="#1A1A1A"/>
<path d="M1277.67 58.8148H1265.46V61.8175H1277.67V58.8148Z" fill="#1A1A1A"/>
<path d="M1277.67 63.6112H1265.46V66.614H1277.67V63.6112Z" fill="#1A1A1A"/>
<path d="M1277.67 68.3087H1265.46V71.3115H1277.67V68.3087Z" fill="#1A1A1A"/>
<path d="M1277.67 73.1051H1265.46V76.1079H1277.67V73.1051Z" fill="#1A1A1A"/>
<path d="M1427.55 43.6621H1421.85V45.4757H1427.55V43.6621Z" fill="#1A1A1A"/>
<path d="M1427.55 46.4767H1421.85V48.2903H1427.55V46.4767Z" fill="#1A1A1A"/>
<path d="M1427.55 49.3406H1421.85V51.1541H1427.55V49.3406Z" fill="#1A1A1A"/>
<path d="M1427.55 52.2542H1421.85V54.0677H1427.55V52.2542Z" fill="#1A1A1A"/>
<path d="M1427.55 55.0488H1421.85V56.8623H1427.55V55.0488Z" fill="#1A1A1A"/>
<path d="M1438.08 44.8612H1431.98V46.6748H1438.08V44.8612Z" fill="#1A1A1A"/>
<path d="M1438.08 47.6658H1431.98V49.4794H1438.08V47.6658Z" fill="#1A1A1A"/>
<path d="M1438.08 50.5397H1431.98V52.3532H1438.08V50.5397Z" fill="#1A1A1A"/>
<path d="M1438.08 53.4335H1431.98V55.247H1438.08V53.4335Z" fill="#1A1A1A"/>
<path d="M1438.08 56.238H1431.98V58.0516H1438.08V56.238Z" fill="#1A1A1A"/>
<path d="M1438.08 59.1715H1431.98V60.9851H1438.08V59.1715Z" fill="#1A1A1A"/>
<path d="M1438.08 61.976H1431.98V63.7896H1438.08V61.976Z" fill="#1A1A1A"/>
<path d="M1438.08 64.8402H1431.98V66.6537H1438.08V64.8402Z" fill="#1A1A1A"/>
<path d="M1438.08 67.7438H1431.98V69.5672H1438.08V67.7438Z" fill="#1A1A1A"/>
<path d="M1438.08 70.5483H1431.98V72.3619H1438.08V70.5483Z" fill="#1A1A1A"/>
<path d="M1472.96 53.8497H1461.84V56.8525H1472.96V53.8497Z" fill="#1A1A1A"/>
<path d="M1472.96 58.458H1461.84V61.4608H1472.96V58.458Z" fill="#1A1A1A"/>
<path d="M1472.96 63.1751H1461.84V66.1779H1472.96V63.1751Z" fill="#1A1A1A"/>
<path d="M1472.96 67.9518H1461.84V70.9546H1472.96V67.9518Z" fill="#1A1A1A"/>
<path d="M1334.24 35.4961H1328.14V37.3097H1334.24V35.4961Z" fill="#1A1A1A"/>
<path d="M1334.24 38.3107H1328.14V40.1243H1334.24V38.3107Z" fill="#1A1A1A"/>
<path d="M1334.24 41.1746H1328.14V42.9881H1334.24V41.1746Z" fill="#1A1A1A"/>
<path d="M1334.24 44.0883H1328.14V45.9018H1334.24V44.0883Z" fill="#1A1A1A"/>
<path d="M1334.24 46.8829H1328.14V48.6964H1334.24V46.8829Z" fill="#1A1A1A"/>
<path d="M1334.24 49.975H1328.14V51.7885H1334.24V49.975Z" fill="#1A1A1A"/>
<path d="M1334.24 52.7795H1328.14V54.5931H1334.24V52.7795Z" fill="#1A1A1A"/>
<path d="M1334.24 55.6336H1328.14V57.4571H1334.24V55.6336Z" fill="#1A1A1A"/>
<path d="M1334.24 58.5472H1328.14V60.3608H1334.24V58.5472Z" fill="#1A1A1A"/>
<path d="M1334.24 61.3518H1328.14V63.1654H1334.24V61.3518Z" fill="#1A1A1A"/>
<path d="M1345.23 36.6953H1338.29V38.5088H1345.23V36.6953Z" fill="#1A1A1A"/>
<path d="M1345.23 39.4999H1338.29V41.3135H1345.23V39.4999Z" fill="#1A1A1A"/>
<path d="M1345.23 42.3738H1338.29V44.1874H1345.23V42.3738Z" fill="#1A1A1A"/>
<path d="M1345.23 45.2676H1338.29V47.0811H1345.23V45.2676Z" fill="#1A1A1A"/>
<path d="M1345.23 48.0721H1338.29V49.8857H1345.23V48.0721Z" fill="#1A1A1A"/>
<path d="M1345.23 51.0056H1338.29V52.8191H1345.23V51.0056Z" fill="#1A1A1A"/>
<path d="M1345.23 53.8101H1338.29V55.6236H1345.23V53.8101Z" fill="#1A1A1A"/>
<path d="M1345.23 56.6742H1338.29V58.4878H1345.23V56.6742Z" fill="#1A1A1A"/>
<path d="M1345.23 59.5779H1338.29V61.4013H1345.23V59.5779Z" fill="#1A1A1A"/>
<path d="M1345.23 62.3824H1338.29V64.196H1345.23V62.3824Z" fill="#1A1A1A"/>
<path d="M1345.23 65.6031H1338.29V67.4167H1345.23V65.6031Z" fill="#1A1A1A"/>
<path d="M1345.23 68.3978H1338.29V70.2113H1345.23V68.3978Z" fill="#1A1A1A"/>
<path d="M1345.23 71.262H1338.29V73.0755H1345.23V71.262Z" fill="#1A1A1A"/>
<path d="M1345.23 74.1755H1338.29V75.989H1345.23V74.1755Z" fill="#1A1A1A"/>
<path d="M1345.23 76.9801H1338.29V78.7936H1345.23V76.9801Z" fill="#1A1A1A"/>
<path d="M563.95 44.0486H551.74V47.0514H563.95V44.0486Z" fill="#1A1A1A"/>
<path d="M563.95 48.6667H551.74V51.6695H563.95V48.6667Z" fill="#1A1A1A"/>
<path d="M563.95 53.3741H551.74V56.3768H563.95V53.3741Z" fill="#1A1A1A"/>
<path d="M563.95 58.1606H551.74V61.1634H563.95V58.1606Z" fill="#1A1A1A"/>
<path d="M563.95 62.7887H551.74V65.7914H563.95V62.7887Z" fill="#1A1A1A"/>
<path d="M470.27 49.4893H458.06V52.4921H470.27V49.4893Z" fill="#1A1A1A"/>
<path d="M470.27 54.1074H458.06V57.1102H470.27V54.1074Z" fill="#1A1A1A"/>
<path d="M470.27 58.8148H458.06V61.8175H470.27V58.8148Z" fill="#1A1A1A"/>
<path d="M470.27 63.6112H458.06V66.614H470.27V63.6112Z" fill="#1A1A1A"/>
<path d="M470.27 68.3087H458.06V71.3115H470.27V68.3087Z" fill="#1A1A1A"/>
<path d="M470.27 73.1051H458.06V76.1079H470.27V73.1051Z" fill="#1A1A1A"/>
<path d="M620.14 43.6621H614.44V45.4757H620.14V43.6621Z" fill="#1A1A1A"/>
<path d="M620.14 46.4767H614.44V48.2903H620.14V46.4767Z" fill="#1A1A1A"/>
<path d="M620.14 49.3406H614.44V51.1541H620.14V49.3406Z" fill="#1A1A1A"/>
<path d="M620.14 52.2542H614.44V54.0677H620.14V52.2542Z" fill="#1A1A1A"/>
<path d="M620.14 55.0488H614.44V56.8623H620.14V55.0488Z" fill="#1A1A1A"/>
<path d="M630.67 44.8612H624.57V46.6748H630.67V44.8612Z" fill="#1A1A1A"/>
<path d="M630.67 47.6658H624.57V49.4794H630.67V47.6658Z" fill="#1A1A1A"/>
<path d="M630.67 50.5397H624.57V52.3532H630.67V50.5397Z" fill="#1A1A1A"/>
<path d="M630.67 53.4335H624.57V55.247H630.67V53.4335Z" fill="#1A1A1A"/>
<path d="M630.67 56.238H624.57V58.0516H630.67V56.238Z" fill="#1A1A1A"/>
<path d="M630.67 59.1715H624.57V60.9851H630.67V59.1715Z" fill="#1A1A1A"/>
<path d="M630.67 61.976H624.57V63.7896H630.67V61.976Z" fill="#1A1A1A"/>
<path d="M630.67 64.8402H624.57V66.6537H630.67V64.8402Z" fill="#1A1A1A"/>
<path d="M630.67 67.7438H624.57V69.5672H630.67V67.7438Z" fill="#1A1A1A"/>
<path d="M630.67 70.5483H624.57V72.3619H630.67V70.5483Z" fill="#1A1A1A"/>
<path d="M665.56 53.8497H654.44V56.8525H665.56V53.8497Z" fill="#1A1A1A"/>
<path d="M665.56 58.458H654.44V61.4608H665.56V58.458Z" fill="#1A1A1A"/>
<path d="M665.56 63.1751H654.44V66.1779H665.56V63.1751Z" fill="#1A1A1A"/>
<path d="M665.56 67.9518H654.44V70.9546H665.56V67.9518Z" fill="#1A1A1A"/>
<path d="M526.83 35.4961H520.73V37.3097H526.83V35.4961Z" fill="#1A1A1A"/>
<path d="M526.83 38.3107H520.73V40.1243H526.83V38.3107Z" fill="#1A1A1A"/>
<path d="M526.83 41.1746H520.73V42.9881H526.83V41.1746Z" fill="#1A1A1A"/>
<path d="M526.83 44.0883H520.73V45.9018H526.83V44.0883Z" fill="#1A1A1A"/>
<path d="M526.83 46.8829H520.73V48.6964H526.83V46.8829Z" fill="#1A1A1A"/>
<path d="M526.83 49.975H520.73V51.7885H526.83V49.975Z" fill="#1A1A1A"/>
<path d="M526.83 52.7795H520.73V54.5931H526.83V52.7795Z" fill="#1A1A1A"/>
<path d="M526.83 55.6336H520.73V57.4571H526.83V55.6336Z" fill="#1A1A1A"/>
<path d="M526.83 58.5472H520.73V60.3608H526.83V58.5472Z" fill="#1A1A1A"/>
<path d="M526.83 61.3518H520.73V63.1654H526.83V61.3518Z" fill="#1A1A1A"/>
<path d="M537.82 36.6953H530.88V38.5088H537.82V36.6953Z" fill="#1A1A1A"/>
<path d="M537.82 39.4999H530.88V41.3135H537.82V39.4999Z" fill="#1A1A1A"/>
<path d="M537.82 42.3738H530.88V44.1874H537.82V42.3738Z" fill="#1A1A1A"/>
<path d="M537.82 45.2676H530.88V47.0811H537.82V45.2676Z" fill="#1A1A1A"/>
<path d="M537.82 48.0721H530.88V49.8857H537.82V48.0721Z" fill="#1A1A1A"/>
<path d="M537.82 51.0056H530.88V52.8191H537.82V51.0056Z" fill="#1A1A1A"/>
<path d="M537.82 53.8101H530.88V55.6236H537.82V53.8101Z" fill="#1A1A1A"/>
<path d="M537.82 56.6742H530.88V58.4878H537.82V56.6742Z" fill="#1A1A1A"/>
<path d="M537.82 59.5779H530.88V61.4013H537.82V59.5779Z" fill="#1A1A1A"/>
<path d="M537.82 62.3824H530.88V64.196H537.82V62.3824Z" fill="#1A1A1A"/>
<path d="M537.82 65.6031H530.88V67.4167H537.82V65.6031Z" fill="#1A1A1A"/>
<path d="M537.82 68.3978H530.88V70.2113H537.82V68.3978Z" fill="#1A1A1A"/>
<path d="M537.82 71.262H530.88V73.0755H537.82V71.262Z" fill="#1A1A1A"/>
<path d="M537.82 74.1755H530.88V75.989H537.82V74.1755Z" fill="#1A1A1A"/>
<path d="M537.82 76.9801H530.88V78.7936H537.82V76.9801Z" fill="#1A1A1A"/>
</g>
<g opacity="0.1">
<path d="M127.21 96.0074C127.21 96.0074 125.7 88.9019 117.15 89.9821C108.49 91.0722 110.46 84.4027 103.8 86.018C98.42 87.3163 97.69 92.9849 91.65 92.0236C84.66 90.9037 83.13 95.948 83.13 95.948L127.21 96.0074Z" fill="white"/>
<path d="M294.23 96.0074C294.23 96.0074 295.18 90.6064 301.12 90.4874C306.15 90.3784 305.69 85.3738 310.25 86.8504C313.93 88.0397 315.71 95.4425 318.57 92.3506C321.93 88.7135 324.4 95.9479 324.4 95.9479L294.23 96.0074Z" fill="white"/>
<path d="M4.59998 96.0074C4.59998 96.0074 5.20998 92.8064 9.01998 92.737C12.25 92.6776 13.03 88.0297 15.96 88.9117C18.32 89.6153 18.39 95.6803 20.23 93.8469C22.39 91.6865 23.97 95.9777 23.97 95.9777L4.59998 96.0074Z" fill="white"/>
<path d="M1902.43 96.0074C1902.43 96.0074 1900.92 88.9019 1892.37 89.9821C1883.71 91.0722 1885.68 84.4027 1879.02 86.018C1873.64 87.3163 1872.91 92.9849 1866.87 92.0236C1859.88 90.9037 1858.35 95.948 1858.35 95.948L1902.43 96.0074Z" fill="white"/>
<path d="M1779.81 96.0074C1779.81 96.0074 1780.42 92.8064 1784.23 92.737C1787.46 92.6776 1788.24 88.0297 1791.17 88.9117C1793.53 89.6153 1793.6 95.6803 1795.44 93.8469C1797.6 91.6865 1799.18 95.9777 1799.18 95.9777L1779.81 96.0074Z" fill="white"/>
<path d="M553.44 96.0074C553.44 96.0074 552.69 84.8982 542.22 86.2162C531.62 87.5442 528.51 79.3584 520.36 81.3305C513.78 82.9261 517.31 92.3011 509.91 91.1218C501.35 89.7542 499.48 95.9282 499.48 95.9282L553.44 96.0074Z" fill="white"/>
<path d="M682.97 96.0075C682.97 96.0075 683.92 90.6064 689.86 90.4875C694.89 90.3785 693.58 83.9766 698.14 85.4532C701.82 86.6424 702.29 90.874 706.63 89.3776C711.33 87.7523 713.14 95.948 713.14 95.948L682.97 96.0075Z" fill="white"/>
<path d="M367.67 96.0075C367.67 96.0075 367.86 92.1921 371.67 92.1228C374.9 92.0633 376.16 88.7533 379.09 89.6254C381.45 90.329 381.46 95.6706 383.3 93.8372C385.46 91.6768 387.04 95.9679 387.04 95.9679L367.67 96.0075Z" fill="white"/>
<path d="M1606.55 96.0074C1606.55 96.0074 1605.04 87.4352 1595.61 87.227C1587.63 87.0586 1588.34 79.1106 1581.1 81.4494C1575.25 83.3423 1572.43 95.1056 1567.89 90.1902C1562.55 84.4126 1558.63 95.9083 1558.63 95.9083L1606.55 96.0074Z" fill="white"/>
<path d="M1632.07 96.0075C1632.07 96.0075 1632.26 92.1921 1636.07 92.1228C1639.3 92.0633 1640.56 88.7533 1643.49 89.6254C1645.85 90.329 1645.86 95.6706 1647.7 93.8372C1649.86 91.6768 1651.44 95.9679 1651.44 95.9679L1632.07 96.0075Z" fill="white"/>
<path d="M1033.89 96.0074C1033.89 96.0074 1032.38 88.9019 1023.83 89.9821C1015.17 91.0722 1017.14 84.4027 1010.48 86.018C1005.1 87.3163 1004.37 92.9849 998.33 92.0236C991.34 90.9037 989.81 95.948 989.81 95.948L1033.89 96.0074Z" fill="white"/>
<path d="M1125.93 96.0074C1125.93 96.0074 1126.88 90.6064 1132.82 90.4874C1137.85 90.3784 1137.39 85.3738 1141.95 86.8504C1145.63 88.0397 1147.41 95.4425 1150.27 92.3506C1153.63 88.7135 1156.1 95.9479 1156.1 95.9479L1125.93 96.0074Z" fill="white"/>
<path d="M899.52 96.0074C899.52 96.0074 900.13 92.8064 903.94 92.737C907.17 92.6776 907.95 88.0297 910.88 88.9117C913.24 89.6153 913.31 95.6803 915.15 93.8469C917.31 91.6865 918.89 95.9777 918.89 95.9777L899.52 96.0074Z" fill="white"/>
<path d="M1348.15 96.0074C1348.15 96.0074 1347.4 84.8982 1336.93 86.2162C1326.33 87.5442 1323.22 79.3584 1315.07 81.3305C1308.49 82.9261 1312.02 92.3011 1304.62 91.1218C1296.06 89.7542 1294.19 95.9282 1294.19 95.9282L1348.15 96.0074Z" fill="white"/>
<path d="M1428.68 96.0075C1428.68 96.0075 1428.87 92.1921 1432.68 92.1228C1435.91 92.0633 1437.17 88.7533 1440.1 89.6254C1442.46 90.329 1442.47 95.6706 1444.31 93.8372C1446.47 91.6768 1448.05 95.9679 1448.05 95.9679L1428.68 96.0075Z" fill="white"/>
</g>
<path d="M745.96 55.3562H745.06V95.7598H745.96V55.3562Z" fill="#333333"/>
<path d="M746.78 96.4038C746.78 96.4038 746.44 96.6912 745.51 96.6912C744.63 96.6912 744.24 96.4038 744.24 96.4038V86.9099C744.24 86.2558 744.77 85.7108 745.45 85.7108H745.53C746.22 85.7108 746.78 86.2658 746.78 86.9496V96.4038V96.4038Z" fill="#333333"/>
<path d="M746.7 64.0671H744.35C743.8 64.0671 743.37 63.6409 743.37 63.0959V52.5019C743.37 51.9569 743.8 51.5307 744.35 51.5307H746.7C747.25 51.5307 747.68 51.9569 747.68 52.5019V63.0959C747.67 63.6211 747.23 64.0671 746.7 64.0671Z" fill="#333333"/>
<path d="M743.89 57.6751C743.89 56.7634 744.63 56.03 745.55 56.03C746.47 56.03 747.21 56.7634 747.21 57.6751C747.21 58.5868 746.47 59.3202 745.55 59.3202C744.63 59.3202 743.89 58.5868 743.89 57.6751Z" fill="#333333"/>
<path d="M743.89 61.3913C743.89 60.4796 744.63 59.7463 745.55 59.7463C746.47 59.7463 747.21 60.4796 747.21 61.3913C747.21 62.3031 746.47 63.0365 745.55 63.0365C744.63 63.0365 743.89 62.2932 743.89 61.3913Z" fill="#333333"/>
<path d="M743.89 53.9191C743.89 53.0074 744.63 52.274 745.55 52.274C746.47 52.274 747.21 53.0074 747.21 53.9191C747.21 54.8308 746.47 55.5642 745.55 55.5642C744.63 55.5642 743.89 54.8308 743.89 53.9191Z" fill="#333333"/>
<path d="M542.59 68.2195H541.83V95.9085H542.59V68.2195Z" fill="#333333"/>
<path d="M543.27 99.0995C543.27 99.0995 542.98 99.3572 542.19 99.3572C541.45 99.3572 541.11 99.0995 541.11 99.0995V91.0524C541.11 90.4975 541.56 90.0516 542.12 90.0516H542.18C542.77 90.0516 543.24 90.5273 543.24 91.102V99.0995H543.27Z" fill="#333333"/>
<path d="M541.5 73.6106L536.76 68.9132C536.37 68.5267 536.37 67.9222 536.76 67.5456L541.52 62.8284C541.91 62.4419 542.52 62.4419 542.9 62.8284L547.66 67.5456C548.05 67.9321 548.05 68.5366 547.66 68.9132L542.9 73.6305C542.52 73.9872 541.89 73.9872 541.5 73.6106Z" fill="#333333"/>
<path d="M287.72 55.3562H286.82V95.7598H287.72V55.3562Z" fill="#333333"/>
<path d="M288.54 96.4038C288.54 96.4038 288.2 96.6912 287.27 96.6912C286.39 96.6912 286 96.4038 286 96.4038V86.9099C286 86.2558 286.53 85.7108 287.21 85.7108H287.29C287.98 85.7108 288.54 86.2658 288.54 86.9496V96.4038Z" fill="#333333"/>
<path d="M288.46 64.0671H286.11C285.56 64.0671 285.13 63.6409 285.13 63.0959V52.5019C285.13 51.9569 285.56 51.5307 286.11 51.5307H288.46C289.01 51.5307 289.44 51.9569 289.44 52.5019V63.0959C289.42 63.6211 288.99 64.0671 288.46 64.0671Z" fill="#333333"/>
<path d="M285.64 57.6751C285.64 56.7634 286.38 56.03 287.3 56.03C288.22 56.03 288.96 56.7634 288.96 57.6751C288.96 58.5868 288.22 59.3202 287.3 59.3202C286.38 59.3202 285.64 58.5868 285.64 57.6751Z" fill="#333333"/>
<path d="M285.64 61.3913C285.64 60.4796 286.38 59.7463 287.3 59.7463C288.22 59.7463 288.96 60.4796 288.96 61.3913C288.96 62.3031 288.22 63.0365 287.3 63.0365C286.38 63.0365 285.64 62.2932 285.64 61.3913Z" fill="#333333"/>
<path d="M285.64 53.9191C285.64 53.0074 286.38 52.274 287.3 52.274C288.22 52.274 288.96 53.0074 288.96 53.9191C288.96 54.8308 288.22 55.5642 287.3 55.5642C286.38 55.5642 285.64 54.8308 285.64 53.9191Z" fill="#333333"/>
<path d="M26.14 68.2195H25.38V95.9085H26.14V68.2195Z" fill="#333333"/>
<path d="M26.8199 99.0995C26.8199 99.0995 26.5299 99.3572 25.7399 99.3572C24.9999 99.3572 24.6599 99.0995 24.6599 99.0995V91.0524C24.6599 90.4975 25.1099 90.0516 25.6699 90.0516H25.7299C26.3199 90.0516 26.7899 90.5273 26.7899 91.102V99.0995H26.8199Z" fill="#333333"/>
<path d="M25.05 73.6106L20.31 68.9132C19.92 68.5267 19.92 67.9222 20.31 67.5456L25.07 62.8284C25.46 62.4419 26.07 62.4419 26.45 62.8284L31.21 67.5456C31.6 67.9321 31.6 68.5366 31.21 68.9132L26.45 73.6305C26.07 73.9872 25.44 73.9872 25.05 73.6106Z" fill="#333333"/>
<path d="M1870.5 55.3562H1869.6V95.7598H1870.5V55.3562Z" fill="#333333"/>
<path d="M1871.32 96.4038C1871.32 96.4038 1870.98 96.6912 1870.05 96.6912C1869.17 96.6912 1868.78 96.4038 1868.78 96.4038V86.9099C1868.78 86.2558 1869.31 85.7108 1869.99 85.7108H1870.07C1870.76 85.7108 1871.32 86.2658 1871.32 86.9496V96.4038Z" fill="#333333"/>
<path d="M1871.24 64.0671H1868.89C1868.34 64.0671 1867.91 63.6409 1867.91 63.0959V52.5019C1867.91 51.9569 1868.34 51.5307 1868.89 51.5307H1871.24C1871.79 51.5307 1872.22 51.9569 1872.22 52.5019V63.0959C1872.2 63.6211 1871.77 64.0671 1871.24 64.0671Z" fill="#333333"/>
<path d="M1868.43 57.6751C1868.43 56.7634 1869.17 56.03 1870.09 56.03C1871.01 56.03 1871.75 56.7634 1871.75 57.6751C1871.75 58.5868 1871.01 59.3202 1870.09 59.3202C1869.16 59.3202 1868.43 58.5868 1868.43 57.6751Z" fill="#333333"/>
<path d="M1868.43 61.3913C1868.43 60.4796 1869.17 59.7463 1870.09 59.7463C1871.01 59.7463 1871.75 60.4796 1871.75 61.3913C1871.75 62.3031 1871.01 63.0365 1870.09 63.0365C1869.16 63.0265 1868.43 62.2932 1868.43 61.3913Z" fill="#333333"/>
<path d="M1868.43 53.9191C1868.43 53.0074 1869.17 52.274 1870.09 52.274C1871.01 52.274 1871.75 53.0074 1871.75 53.9191C1871.75 54.8308 1871.01 55.5642 1870.09 55.5642C1869.16 55.5543 1868.43 54.8308 1868.43 53.9191Z" fill="#333333"/>
<path d="M1608.92 68.2195H1608.16V95.9085H1608.92V68.2195Z" fill="#333333"/>
<path d="M1609.6 99.0995C1609.6 99.0995 1609.31 99.3572 1608.52 99.3572C1607.78 99.3572 1607.44 99.0995 1607.44 99.0995V91.0524C1607.44 90.4975 1607.89 90.0516 1608.45 90.0516H1608.51C1609.1 90.0516 1609.57 90.5273 1609.57 91.102V99.0995H1609.6Z" fill="#333333"/>
<path d="M1607.84 73.6106L1603.1 68.9132C1602.71 68.5267 1602.71 67.9222 1603.1 67.5456L1607.86 62.8284C1608.25 62.4419 1608.86 62.4419 1609.24 62.8284L1614 67.5456C1614.39 67.9321 1614.39 68.5366 1614 68.9132L1609.24 73.6305C1608.85 73.9872 1608.22 73.9872 1607.84 73.6106Z" fill="#333333"/>
<path d="M1374.29 68.2195H1373.53V95.9085H1374.29V68.2195Z" fill="#333333"/>
<path d="M1374.97 99.0995C1374.97 99.0995 1374.68 99.3572 1373.89 99.3572C1373.15 99.3572 1372.81 99.0995 1372.81 99.0995V91.0524C1372.81 90.4975 1373.26 90.0516 1373.82 90.0516H1373.88C1374.47 90.0516 1374.94 90.5273 1374.94 91.102V99.0995H1374.97Z" fill="#333333"/>
<path d="M1373.2 73.6106L1368.46 68.9132C1368.07 68.5267 1368.07 67.9222 1368.46 67.5456L1373.22 62.8284C1373.61 62.4419 1374.22 62.4419 1374.6 62.8284L1379.36 67.5456C1379.75 67.9321 1379.75 68.5366 1379.36 68.9132L1374.6 73.6305C1374.22 73.9872 1373.59 73.9872 1373.2 73.6106Z" fill="#333333"/>
<path d="M1119.42 55.3562H1118.52V95.7598H1119.42V55.3562Z" fill="#333333"/>
<path d="M1120.24 96.4038C1120.24 96.4038 1119.9 96.6912 1118.97 96.6912C1118.09 96.6912 1117.7 96.4038 1117.7 96.4038V86.9099C1117.7 86.2558 1118.23 85.7108 1118.91 85.7108H1118.99C1119.68 85.7108 1120.24 86.2658 1120.24 86.9496V96.4038Z" fill="#333333"/>
<path d="M1120.16 64.0671H1117.81C1117.26 64.0671 1116.83 63.6409 1116.83 63.0959V52.5019C1116.83 51.9569 1117.26 51.5307 1117.81 51.5307H1120.16C1120.71 51.5307 1121.14 51.9569 1121.14 52.5019V63.0959C1121.12 63.6211 1120.69 64.0671 1120.16 64.0671Z" fill="#333333"/>
<path d="M1117.34 57.6751C1117.34 56.7634 1118.08 56.03 1119 56.03C1119.92 56.03 1120.66 56.7634 1120.66 57.6751C1120.66 58.5868 1119.92 59.3202 1119 59.3202C1118.08 59.3202 1117.34 58.5868 1117.34 57.6751Z" fill="#333333"/>
<path d="M1117.34 61.3913C1117.34 60.4796 1118.08 59.7463 1119 59.7463C1119.92 59.7463 1120.66 60.4796 1120.66 61.3913C1120.66 62.3031 1119.92 63.0365 1119 63.0365C1118.08 63.0365 1117.34 62.2932 1117.34 61.3913Z" fill="#333333"/>
<path d="M1117.34 53.9191C1117.34 53.0074 1118.08 52.274 1119 52.274C1119.92 52.274 1120.66 53.0074 1120.66 53.9191C1120.66 54.8308 1119.92 55.5642 1119 55.5642C1118.08 55.5642 1117.34 54.8308 1117.34 53.9191Z" fill="#333333"/>
<path d="M1025.63 68.2195H1024.87V95.9085H1025.63V68.2195Z" fill="#333333"/>
<path d="M1026.32 99.0995C1026.32 99.0995 1026.03 99.3572 1025.24 99.3572C1024.5 99.3572 1024.16 99.0995 1024.16 99.0995V91.0524C1024.16 90.4975 1024.61 90.0516 1025.17 90.0516H1025.23C1025.82 90.0516 1026.29 90.5273 1026.29 91.102V99.0995H1026.32Z" fill="#333333"/>
<path d="M1024.55 73.6106L1019.81 68.9132C1019.42 68.5267 1019.42 67.9222 1019.81 67.5456L1024.57 62.8284C1024.96 62.4419 1025.57 62.4419 1025.95 62.8284L1030.71 67.5456C1031.1 67.9321 1031.1 68.5366 1030.71 68.9132L1025.95 73.6305C1025.56 73.9872 1024.93 73.9872 1024.55 73.6106Z" fill="#333333"/>
<path d="M1920 96.0001H0V120H1920V96.0001Z" fill="#333333"/>
<path d="M946.84 108.514H932.16L928.8 107.067H943.47L946.84 108.514Z" fill="#FF9D03"/>
<path d="M902.8 108.514H888.12L884.76 107.067H899.44L902.8 108.514Z" fill="#FF9D03"/>
<path d="M858.76 108.514H844.08L840.72 107.067H855.4L858.76 108.514Z" fill="#FF9D03"/>
<path d="M814.72 108.514H800.04L796.68 107.067H811.36L814.72 108.514Z" fill="#FF9D03"/>
<path d="M770.69 108.514H756.01L752.64 107.067H767.32L770.69 108.514Z" fill="#FF9D03"/>
<path d="M726.65 108.514H711.97L708.61 107.067H723.29L726.65 108.514Z" fill="#FF9D03"/>
<path d="M682.61 108.514H667.93L664.57 107.067H679.25L682.61 108.514Z" fill="#FF9D03"/>
<path d="M638.57 108.514H623.89L620.53 107.067H635.21L638.57 108.514Z" fill="#FF9D03"/>
<path d="M594.53 108.514H579.86L576.49 107.067H591.17L594.53 108.514Z" fill="#FF9D03"/>
<path d="M550.5 108.514H535.82L532.46 107.067H547.14L550.5 108.514Z" fill="#FF9D03"/>
<path d="M506.46 108.514H491.78L488.42 107.067H503.1L506.46 108.514Z" fill="#FF9D03"/>
<path d="M1255.1 108.514H1240.42L1237.05 107.067H1251.73L1255.1 108.514Z" fill="#FF9D03"/>
<path d="M1211.06 108.514H1196.38L1193.02 107.067H1207.7L1211.06 108.514Z" fill="#FF9D03"/>
<path d="M1167.02 108.514H1152.34L1148.98 107.067H1163.66L1167.02 108.514Z" fill="#FF9D03"/>
<path d="M1122.98 108.514H1108.3L1104.94 107.067H1119.62L1122.98 108.514Z" fill="#FF9D03"/>
<path d="M1387.21 108.514H1372.53L1369.17 107.067H1383.85L1387.21 108.514Z" fill="#FF9D03"/>
<path d="M1343.17 108.514H1328.49L1325.13 107.067H1339.81L1343.17 108.514Z" fill="#FF9D03"/>
<path d="M1299.13 108.514H1284.45L1281.09 107.067H1295.77L1299.13 108.514Z" fill="#FF9D03"/>
<path d="M1431.25 108.514H1416.57L1413.21 107.067H1427.88L1431.25 108.514Z" fill="#FF9D03"/>
<path d="M1475.28 108.514H1460.6L1457.24 107.067H1471.92L1475.28 108.514Z" fill="#FF9D03"/>
<path d="M1563.36 108.514H1548.68L1545.32 107.067H1560L1563.36 108.514Z" fill="#FF9D03"/>
<path d="M1519.32 108.514H1504.64L1501.28 107.067H1515.96L1519.32 108.514Z" fill="#FF9D03"/>
<path d="M1695.47 108.514H1680.79L1677.43 107.067H1692.11L1695.47 108.514Z" fill="#FF9D03"/>
<path d="M1651.43 108.514H1636.76L1633.39 107.067H1648.07L1651.43 108.514Z" fill="#FF9D03"/>
<path d="M1607.4 108.514H1592.72L1589.36 107.067H1604.04L1607.4 108.514Z" fill="#FF9D03"/>
<path d="M1739.51 108.514H1724.83L1721.47 107.067H1736.15L1739.51 108.514Z" fill="#FF9D03"/>
<path d="M1827.58 108.514H1812.91L1809.54 107.067H1824.22L1827.58 108.514Z" fill="#FF9D03"/>
<path d="M1783.55 108.514H1768.87L1765.51 107.067H1780.19L1783.55 108.514Z" fill="#FF9D03"/>
<path d="M1915.66 108.514H1900.98L1897.62 107.067H1912.3L1915.66 108.514Z" fill="#FF9D03"/>
<path d="M1871.62 108.514H1856.94L1853.58 107.067H1868.26L1871.62 108.514Z" fill="#FF9D03"/>
<path d="M1078.94 108.514H1064.27L1060.9 107.067H1075.58L1078.94 108.514Z" fill="#FF9D03"/>
<path d="M1034.91 108.514H1020.23L1016.87 107.067H1031.55L1034.91 108.514Z" fill="#FF9D03"/>
<path d="M990.87 108.514H976.19L972.83 107.067H987.51L990.87 108.514Z" fill="#FF9D03"/>
<path d="M462.42 108.514H447.74L444.38 107.067H459.06L462.42 108.514Z" fill="#FF9D03"/>
<path d="M418.38 108.514H403.7L400.34 107.067H415.02L418.38 108.514Z" fill="#FF9D03"/>
<path d="M374.35 108.514H359.67L356.31 107.067H370.98L374.35 108.514Z" fill="#FF9D03"/>
<path d="M330.31 108.514H315.63L312.27 107.067H326.95L330.31 108.514Z" fill="#FF9D03"/>
<path d="M286.27 108.514H271.59L268.23 107.067H282.91L286.27 108.514Z" fill="#FF9D03"/>
<path d="M242.23 108.514H227.55L224.19 107.067H238.87L242.23 108.514Z" fill="#FF9D03"/>
<path d="M198.2 108.514H183.52L180.16 107.067H194.83L198.2 108.514Z" fill="#FF9D03"/>
<path d="M154.16 108.514H139.48L136.12 107.067H150.8L154.16 108.514Z" fill="#FF9D03"/>
<path d="M110.12 108.514H95.44L92.08 107.067H106.76L110.12 108.514Z" fill="#FF9D03"/>
<path d="M66.08 108.514H51.4L48.04 107.067H62.72L66.08 108.514Z" fill="#FF9D03"/>
<path d="M22.05 108.514H7.37L4 107.067H18.68L22.05 108.514Z" fill="#FF9D03"/>
<g opacity="0.5">
<path d="M48 29.7284C48 29.7284 51.1 24.6544 58.51 25.2193C58.51 25.2193 69.27 16.7659 80.75 24.0994C80.75 24.0994 92.95 22.2859 101.98 25.6751C108.01 27.9347 110 30.2932 110 30.2932L48 29.7284Z" fill="#E6E7E8"/>
<path opacity="0.65" d="M239.9 12.9109C239.9 12.9109 243 7.83694 250.41 8.40181C250.41 8.40181 261.17 -0.0515433 272.65 7.28196C272.65 7.28196 284.85 5.4684 293.88 8.85767C299.91 11.1172 301.9 13.4758 301.9 13.4758L239.9 12.9109Z" fill="#E6E7E8"/>
<path opacity="0.65" d="M123.63 42.9486C123.63 42.9486 125.11 40.4016 128.64 40.689C128.64 40.689 133.77 36.4674 139.24 40.1242C139.24 40.1242 145.05 39.2224 149.35 40.917C152.22 42.0567 153.17 43.2261 153.17 43.2261L123.63 42.9486Z" fill="#E6E7E8"/>
<path d="M215.64 25.3086C215.64 25.3086 213.81 21.9589 209.43 22.3256C209.43 22.3256 203.08 16.7363 196.31 21.5724C196.31 21.5724 189.11 20.3733 183.78 22.613C180.22 24.0995 179.05 25.6752 179.05 25.6752L215.64 25.3086Z" fill="#E6E7E8"/>
<path opacity="0.65" d="M36.59 11.4443C36.59 11.4443 34.76 8.09466 30.38 8.46134C30.38 8.46134 24.03 2.87201 17.26 7.70816C17.26 7.70816 10.06 6.50902 4.73 8.74871C1.17 10.2352 0 11.8109 0 11.8109L36.59 11.4443Z" fill="#E6E7E8"/>
<path opacity="0.65" d="M595.27 42.9486C595.27 42.9486 596.75 40.4016 600.28 40.689C600.28 40.689 605.41 36.4674 610.88 40.1242C610.88 40.1242 616.69 39.2224 620.99 40.917C623.86 42.0567 624.81 43.2261 624.81 43.2261L595.27 42.9486Z" fill="#E6E7E8"/>
<path d="M703.15 5.70627C703.15 5.70627 701.32 2.35663 696.94 2.7233C696.94 2.7233 690.59 -2.86603 683.82 1.97012C683.82 1.97012 676.62 0.771012 671.29 3.0107C667.73 4.49723 666.56 6.07294 666.56 6.07294L703.15 5.70627Z" fill="#E6E7E8"/>
<path d="M315.65 29.7284C315.65 29.7284 318.75 24.6544 326.16 25.2193C326.16 25.2193 336.92 16.7659 348.4 24.0994C348.4 24.0994 360.6 22.2859 369.63 25.6751C375.66 27.9347 377.65 30.2932 377.65 30.2932L315.65 29.7284Z" fill="#E6E7E8"/>
<path opacity="0.65" d="M510.79 17.5092C510.79 17.5092 513.89 12.4353 521.3 13.0001C521.3 13.0001 532.06 4.54678 543.54 11.8803C543.54 11.8803 555.74 10.0667 564.77 13.456C570.8 15.7155 572.79 18.0741 572.79 18.0741L510.79 17.5092Z" fill="#E6E7E8"/>
<path d="M396.78 13.1884C396.78 13.1884 398.26 10.6415 401.79 10.9289C401.79 10.9289 406.92 6.70716 412.39 10.364C412.39 10.364 418.2 9.4622 422.5 11.1568C425.37 12.2965 426.32 13.4659 426.32 13.4659L396.78 13.1884Z" fill="#E6E7E8"/>
<path opacity="0.65" d="M484.9 35.9917C484.9 35.9917 483.07 32.642 478.69 33.0087C478.69 33.0087 472.34 27.4194 465.57 32.2556C465.57 32.2556 458.37 31.0565 453.04 33.2961C449.48 34.7827 448.31 36.3583 448.31 36.3583L484.9 35.9917Z" fill="#E6E7E8"/>
<path opacity="0.65" d="M1618.59 17.5092C1618.59 17.5092 1621.69 12.4353 1629.1 13.0001C1629.1 13.0001 1639.86 4.54678 1651.34 11.8803C1651.34 11.8803 1663.54 10.0667 1672.57 13.456C1678.6 15.7155 1680.59 18.0741 1680.59 18.0741L1618.59 17.5092Z" fill="#E6E7E8"/>
<path d="M1504.58 13.1884C1504.58 13.1884 1506.06 10.6415 1509.59 10.9289C1509.59 10.9289 1514.72 6.70716 1520.19 10.364C1520.19 10.364 1526 9.4622 1530.3 11.1568C1533.17 12.2965 1534.12 13.4659 1534.12 13.4659L1504.58 13.1884Z" fill="#E6E7E8"/>
<path opacity="0.65" d="M1592.7 35.9917C1592.7 35.9917 1590.87 32.642 1586.49 33.0087C1586.49 33.0087 1580.14 27.4194 1573.37 32.2556C1573.37 32.2556 1566.17 31.0565 1560.84 33.2961C1557.28 34.7827 1556.11 36.3583 1556.11 36.3583L1592.7 35.9917Z" fill="#E6E7E8"/>
<path d="M761.81 29.7284C761.81 29.7284 764.91 24.6544 772.32 25.2193C772.32 25.2193 783.08 16.7659 794.56 24.0994C794.56 24.0994 806.76 22.2859 815.79 25.6751C821.82 27.9347 823.81 30.2932 823.81 30.2932L761.81 29.7284Z" fill="#E6E7E8"/>
<path opacity="0.65" d="M953.71 12.9109C953.71 12.9109 956.81 7.83694 964.22 8.40181C964.22 8.40181 974.98 -0.0515433 986.46 7.28196C986.46 7.28196 998.66 5.4684 1007.69 8.85767C1013.72 11.1172 1015.71 13.4758 1015.71 13.4758L953.71 12.9109Z" fill="#E6E7E8"/>
<path opacity="0.65" d="M837.44 42.9486C837.44 42.9486 838.92 40.4016 842.45 40.689C842.45 40.689 847.58 36.4674 853.05 40.1242C853.05 40.1242 858.86 39.2224 863.16 40.917C866.03 42.0567 866.98 43.2261 866.98 43.2261L837.44 42.9486Z" fill="#E6E7E8"/>
<path d="M929.45 25.3086C929.45 25.3086 927.62 21.9589 923.24 22.3256C923.24 22.3256 916.89 16.7363 910.12 21.5724C910.12 21.5724 902.92 20.3733 897.59 22.613C894.03 24.0995 892.86 25.6752 892.86 25.6752L929.45 25.3086Z" fill="#E6E7E8"/>
<path opacity="0.65" d="M1414.03 42.6711C1414.03 42.6711 1417.13 37.5971 1424.54 38.162C1424.54 38.162 1435.3 29.7086 1446.78 37.0422C1446.78 37.0422 1458.98 35.2286 1468.01 38.6179C1474.04 40.8774 1476.03 43.236 1476.03 43.236L1414.03 42.6711Z" fill="#E6E7E8"/>
<path opacity="0.65" d="M1309.08 42.9486C1309.08 42.9486 1310.56 40.4016 1314.09 40.689C1314.09 40.689 1319.22 36.4674 1324.69 40.1242C1324.69 40.1242 1330.5 39.2224 1334.8 40.917C1337.67 42.0567 1338.62 43.2261 1338.62 43.2261L1309.08 42.9486Z" fill="#E6E7E8"/>
<path d="M1416.96 5.70627C1416.96 5.70627 1415.13 2.35663 1410.75 2.7233C1410.75 2.7233 1404.4 -2.86603 1397.63 1.97012C1397.63 1.97012 1390.43 0.771012 1385.1 3.0107C1381.54 4.49723 1380.37 6.07294 1380.37 6.07294L1416.96 5.70627Z" fill="#E6E7E8"/>
<path d="M1029.46 29.7284C1029.46 29.7284 1032.56 24.6544 1039.97 25.2193C1039.97 25.2193 1050.73 16.7659 1062.21 24.0994C1062.21 24.0994 1074.41 22.2859 1083.44 25.6751C1089.47 27.9347 1091.46 30.2932 1091.46 30.2932L1029.46 29.7284Z" fill="#E6E7E8"/>
<path opacity="0.65" d="M1224.6 17.5092C1224.6 17.5092 1227.7 12.4353 1235.11 13.0001C1235.11 13.0001 1245.87 4.54678 1257.35 11.8803C1257.35 11.8803 1269.55 10.0667 1278.58 13.456C1284.61 15.7155 1286.6 18.0741 1286.6 18.0741L1224.6 17.5092Z" fill="#E6E7E8"/>
<path d="M1110.59 13.1884C1110.59 13.1884 1112.07 10.6415 1115.6 10.9289C1115.6 10.9289 1120.73 6.70716 1126.2 10.364C1126.2 10.364 1132.01 9.4622 1136.31 11.1568C1139.18 12.2965 1140.13 13.4659 1140.13 13.4659L1110.59 13.1884Z" fill="#E6E7E8"/>
<path opacity="0.65" d="M1198.71 35.9917C1198.71 35.9917 1196.88 32.642 1192.5 33.0087C1192.5 33.0087 1186.15 27.4194 1179.38 32.2556C1179.38 32.2556 1172.18 31.0565 1166.85 33.2961C1163.29 34.7827 1162.12 36.3583 1162.12 36.3583L1198.71 35.9917Z" fill="#E6E7E8"/>
</g>
</svg>
